<ttFont>
    <TTGlyph name=".notdef" xMin="251" yMin="-555" xMax="1107" yMax="2146">
      <contour>
        <pt x="1107" y="-555" on="1"/>
        <pt x="251" y="-555" on="1"/>
        <pt x="251" y="2146" on="1"/>
        <pt x="1107" y="2146" on="1"/>
      </contour>
      <contour>
        <pt x="454" y="1965" on="1"/>
        <pt x="454" y="1876" on="1"/>
        <pt x="629" y="1876" on="1"/>
        <pt x="629" y="1776" on="1"/>
        <pt x="451" y="1776" on="1"/>
        <pt x="451" y="1687" on="1"/>
        <pt x="899" y="1687" on="1"/>
        <pt x="899" y="1776" on="1"/>
        <pt x="721" y="1776" on="1"/>
        <pt x="721" y="1876" on="1"/>
        <pt x="899" y="1876" on="1"/>
        <pt x="899" y="1965" on="1"/>
      </contour>
      <contour>
        <pt x="451" y="1617" on="1"/>
        <pt x="451" y="1336" on="1"/>
        <pt x="899" y="1336" on="1"/>
        <pt x="899" y="1428" on="1"/>
        <pt x="721" y="1428" on="1"/>
        <pt x="721" y="1617" on="1"/>
      </contour>
      <contour>
        <pt x="629" y="1428" on="1"/>
        <pt x="540" y="1428" on="1"/>
        <pt x="540" y="1525" on="1"/>
        <pt x="629" y="1525" on="1"/>
      </contour>
      <contour>
        <pt x="451" y="1263" on="1"/>
        <pt x="451" y="1174" on="1"/>
        <pt x="629" y="1174" on="1"/>
        <pt x="629" y="1074" on="1"/>
        <pt x="451" y="1074" on="1"/>
        <pt x="451" y="985" on="1"/>
        <pt x="721" y="985" on="1"/>
        <pt x="721" y="1174" on="1"/>
        <pt x="899" y="1174" on="1"/>
        <pt x="899" y="1263" on="1"/>
      </contour>
      <contour>
        <pt x="810" y="1101" on="1"/>
        <pt x="810" y="922" on="1"/>
        <pt x="451" y="922" on="1"/>
        <pt x="451" y="831" on="1"/>
        <pt x="899" y="831" on="1"/>
        <pt x="899" y="1101" on="1"/>
      </contour>
      <contour>
        <pt x="629" y="771" on="1"/>
        <pt x="629" y="620" on="1"/>
        <pt x="721" y="620" on="1"/>
        <pt x="721" y="682" on="1"/>
        <pt x="810" y="682" on="1"/>
        <pt x="810" y="555" on="1"/>
        <pt x="540" y="555" on="1"/>
        <pt x="540" y="771" on="1"/>
        <pt x="451" y="771" on="1"/>
        <pt x="451" y="466" on="1"/>
        <pt x="899" y="466" on="1"/>
        <pt x="899" y="771" on="1"/>
      </contour>
      <contour>
        <pt x="451" y="304" on="1"/>
        <pt x="451" y="-1" on="1"/>
        <pt x="899" y="-1" on="1"/>
        <pt x="899" y="304" on="1"/>
      </contour>
      <contour>
        <pt x="810" y="88" on="1"/>
        <pt x="540" y="88" on="1"/>
        <pt x="540" y="215" on="1"/>
        <pt x="810" y="215" on="1"/>
      </contour>
      <contour>
        <pt x="451" y="-63" on="1"/>
        <pt x="451" y="-153" on="1"/>
        <pt x="640" y="-153" on="1"/>
        <pt x="451" y="-279" on="1"/>
        <pt x="451" y="-369" on="1"/>
        <pt x="899" y="-369" on="1"/>
        <pt x="899" y="-279" on="1"/>
        <pt x="624" y="-279" on="1"/>
        <pt x="813" y="-153" on="1"/>
        <pt x="899" y="-153" on="1"/>
        <pt x="899" y="-63" on="1"/>
      </contour>
    </TTGlyph>
    <TTGlyph name=".ttfautohint" xMin="0" yMin="0" xMax="0" yMax="0">
      <contour>
        <pt x="0" y="0" on="1"/>
      </contour>
    </TTGlyph>
    <TTGlyph name="A" xMin="33" yMin="0" xMax="1189" yMax="1456">
      <contour>
        <pt x="968" y="435" on="1"/>
        <pt x="254" y="435" on="1"/>
        <pt x="92" y="0" on="1"/>
        <pt x="33" y="0" on="1"/>
        <pt x="578" y="1456" on="1"/>
        <pt x="644" y="1456" on="1"/>
        <pt x="1189" y="0" on="1"/>
        <pt x="1130" y="0" on="1"/>
      </contour>
      <contour>
        <pt x="948" y="489" on="1"/>
        <pt x="611" y="1391" on="1"/>
        <pt x="274" y="489" on="1"/>
      </contour>
    </TTGlyph>
    <TTGlyph name="A.smcp" xMin="28" yMin="0" xMax="1029" yMax="1165">
      <contour>
        <pt x="834" y="342" on="1"/>
        <pt x="224" y="342" on="1"/>
        <pt x="87" y="0" on="1"/>
        <pt x="28" y="0" on="1"/>
        <pt x="497" y="1165" on="1"/>
        <pt x="560" y="1165" on="1"/>
        <pt x="1029" y="0" on="1"/>
        <pt x="971" y="0" on="1"/>
      </contour>
      <contour>
        <pt x="813" y="396" on="1"/>
        <pt x="551" y="1050" on="1"/>
        <pt x="529" y="1115" on="1"/>
        <pt x="507" y="1049" on="1"/>
        <pt x="246" y="396" on="1"/>
      </contour>
    </TTGlyph>
    <TTGlyph name="AE" xMin="50" yMin="0" xMax="1768" yMax="1456">
      <contour>
        <pt x="1768" y="54" on="1"/>
        <pt x="1768" y="0" on="1"/>
        <pt x="1016" y="0" on="1"/>
        <pt x="998" y="425" on="1"/>
        <pt x="371" y="425" on="1"/>
        <pt x="115" y="0" on="1"/>
        <pt x="50" y="0" on="1"/>
        <pt x="931" y="1456" on="1"/>
        <pt x="1707" y="1456" on="1"/>
        <pt x="1707" y="1402" on="1"/>
        <pt x="1011" y="1402" on="1"/>
        <pt x="1037" y="786" on="1"/>
        <pt x="1625" y="786" on="1"/>
        <pt x="1625" y="732" on="1"/>
        <pt x="1039" y="732" on="1"/>
        <pt x="1068" y="54" on="1"/>
      </contour>
      <contour>
        <pt x="996" y="478" on="1"/>
        <pt x="957" y="1399" on="1"/>
        <pt x="403" y="478" on="1"/>
      </contour>
    </TTGlyph>
    <TTGlyph name="AE.smcp" xMin="20" yMin="0" xMax="1485" yMax="1165">
      <contour>
        <pt x="806" y="1111" on="1"/>
        <pt x="806" y="630" on="1"/>
        <pt x="1398" y="630" on="1"/>
        <pt x="1398" y="576" on="1"/>
        <pt x="806" y="576" on="1"/>
        <pt x="806" y="54" on="1"/>
        <pt x="1485" y="54" on="1"/>
        <pt x="1485" y="0" on="1"/>
        <pt x="752" y="0" on="1"/>
        <pt x="752" y="346" on="1"/>
        <pt x="296" y="346" on="1"/>
        <pt x="86" y="0" on="1"/>
        <pt x="20" y="0" on="1"/>
        <pt x="733" y="1165" on="1"/>
        <pt x="1485" y="1165" on="1"/>
        <pt x="1485" y="1111" on="1"/>
      </contour>
      <contour>
        <pt x="752" y="400" on="1"/>
        <pt x="752" y="1099" on="1"/>
        <pt x="328" y="400" on="1"/>
      </contour>
    </TTGlyph>
    <TTGlyph name="Aacute" xMin="33" yMin="0" xMax="1189" yMax="1855">
      <component glyphName=".ttfautohint" x="33" y="0" flags="0x0"/>
      <component glyphName="A" x="0" y="0" flags="0x0"/>
      <component glyphName="acutecomb" x="1140" y="319" flags="0x4"/>
    </TTGlyph>
    <TTGlyph name="Aacute.smcp" xMin="28" yMin="0" xMax="1029" yMax="1563">
      <component glyphName=".ttfautohint" x="28" y="0" flags="0x0"/>
      <component glyphName="A.smcp" x="0" y="0" flags="0x0"/>
      <component glyphName="acutecomb" x="1058" y="27" flags="0x4"/>
    </TTGlyph>
    <TTGlyph name="Acircumflex" xMin="33" yMin="0" xMax="1189" yMax="1836">
      <component glyphName=".ttfautohint" x="33" y="0" flags="0x0"/>
      <component glyphName="A" x="0" y="0" flags="0x0"/>
      <component glyphName="circumflex" x="210" y="319" flags="0x4"/>
    </TTGlyph>
    <TTGlyph name="Acircumflex.smcp" xMin="28" yMin="0" xMax="1029" yMax="1544">
      <component glyphName=".ttfautohint" x="28" y="0" flags="0x0"/>
      <component glyphName="A.smcp" x="0" y="0" flags="0x0"/>
      <component glyphName="circumflex" x="128" y="27" flags="0x4"/>
    </TTGlyph>
    <TTGlyph name="Adieresis" xMin="33" yMin="0" xMax="1189" yMax="1796">
      <component glyphName=".ttfautohint" x="33" y="0" flags="0x0"/>
      <component glyphName="A" x="0" y="0" flags="0x0"/>
      <component glyphName="dieresis" x="162" y="319" flags="0x4"/>
    </TTGlyph>
    <TTGlyph name="Adieresis.smcp" xMin="28" yMin="0" xMax="1029" yMax="1504">
      <component glyphName=".ttfautohint" x="28" y="0" flags="0x0"/>
      <component glyphName="A.smcp" x="0" y="0" flags="0x0"/>
      <component glyphName="dieresis" x="80" y="27" flags="0x4"/>
    </TTGlyph>
    <TTGlyph name="Agrave" xMin="33" yMin="0" xMax="1189" yMax="1855">
      <component glyphName=".ttfautohint" x="33" y="0" flags="0x0"/>
      <component glyphName="A" x="0" y="0" flags="0x0"/>
      <component glyphName="gravecomb" x="1156" y="319" flags="0x4"/>
    </TTGlyph>
    <TTGlyph name="Agrave.smcp" xMin="28" yMin="0" xMax="1029" yMax="1563">
      <component glyphName=".ttfautohint" x="28" y="0" flags="0x0"/>
      <component glyphName="A.smcp" x="0" y="0" flags="0x0"/>
      <component glyphName="gravecomb" x="1074" y="27" flags="0x4"/>
    </TTGlyph>
    <TTGlyph name="Aring" xMin="33" yMin="0" xMax="1189" yMax="1875">
      <component glyphName=".ttfautohint" x="33" y="0" flags="0x0"/>
      <component glyphName="A" x="0" y="0" flags="0x0"/>
      <component glyphName="ring" x="329" y="319" flags="0x4"/>
    </TTGlyph>
    <TTGlyph name="Aring.smcp" xMin="28" yMin="0" xMax="1029" yMax="1583">
      <component glyphName=".ttfautohint" x="28" y="0" flags="0x0"/>
      <component glyphName="A.smcp" x="0" y="0" flags="0x0"/>
      <component glyphName="ring" x="247" y="27" flags="0x4"/>
    </TTGlyph>
    <TTGlyph name="Atilde" xMin="33" yMin="0" xMax="1189" yMax="1806">
      <component glyphName=".ttfautohint" x="33" y="0" flags="0x0"/>
      <component glyphName="A" x="0" y="0" flags="0x0"/>
      <component glyphName="tilde" x="211" y="334" flags="0x4"/>
    </TTGlyph>
    <TTGlyph name="Atilde.smcp" xMin="28" yMin="0" xMax="1029" yMax="1514">
      <component glyphName=".ttfautohint" x="28" y="0" flags="0x0"/>
      <component glyphName="A.smcp" x="0" y="0" flags="0x0"/>
      <component glyphName="tilde" x="129" y="42" flags="0x4"/>
    </TTGlyph>
    <TTGlyph name="B" xMin="200" yMin="0" xMax="1125" yMax="1456">
      <contour>
        <pt x="893" y="742" on="0"/>
        <pt x="1040" y="641" on="0"/>
        <pt x="1125" y="488" on="0"/>
        <pt x="1125" y="401" on="1"/>
        <pt x="1125" y="274" on="0"/>
        <pt x="1012" y="93" on="0"/>
        <pt x="808" y="0" on="0"/>
        <pt x="675" y="0" on="1"/>
        <pt x="200" y="0" on="1"/>
        <pt x="200" y="1456" on="1"/>
        <pt x="583" y="1456" on="1"/>
        <pt x="810" y="1456" on="0"/>
        <pt x="1059" y="1271" on="0"/>
        <pt x="1059" y="1083" on="1"/>
        <pt x="1059" y="954" on="0"/>
        <pt x="925" y="776" on="0"/>
        <pt x="803" y="754" on="1"/>
      </contour>
      <contour>
        <pt x="254" y="1402" on="1"/>
        <pt x="254" y="773" on="1"/>
        <pt x="603" y="773" on="1"/>
        <pt x="1004" y="773" on="0"/>
        <pt x="1004" y="1087" on="1"/>
        <pt x="1004" y="1243" on="0"/>
        <pt x="791" y="1402" on="0"/>
        <pt x="583" y="1402" on="1"/>
      </contour>
      <contour>
        <pt x="797" y="54" on="0"/>
        <pt x="975" y="136" on="0"/>
        <pt x="1071" y="291" on="0"/>
        <pt x="1071" y="399" on="1"/>
        <pt x="1071" y="485" on="0"/>
        <pt x="983" y="631" on="0"/>
        <pt x="809" y="719" on="0"/>
        <pt x="685" y="719" on="1"/>
        <pt x="254" y="719" on="1"/>
        <pt x="254" y="54" on="1"/>
        <pt x="675" y="54" on="1"/>
      </contour>
    </TTGlyph>
    <TTGlyph name="B.smcp" xMin="170" yMin="0" xMax="969" yMax="1165">
      <contour>
        <pt x="779" y="593" on="0"/>
        <pt x="900" y="511" on="0"/>
        <pt x="969" y="390" on="0"/>
        <pt x="969" y="322" on="1"/>
        <pt x="969" y="220" on="0"/>
        <pt x="871" y="75" on="0"/>
        <pt x="695" y="0" on="0"/>
        <pt x="580" y="0" on="1"/>
        <pt x="170" y="0" on="1"/>
        <pt x="170" y="1165" on="1"/>
        <pt x="504" y="1165" on="1"/>
        <pt x="699" y="1165" on="0"/>
        <pt x="913" y="1015" on="0"/>
        <pt x="913" y="864" on="1"/>
        <pt x="913" y="765" on="0"/>
        <pt x="804" y="626" on="0"/>
        <pt x="705" y="604" on="1"/>
      </contour>
      <contour>
        <pt x="224" y="1110" on="1"/>
        <pt x="224" y="625" on="1"/>
        <pt x="521" y="625" on="1"/>
        <pt x="688" y="625" on="0"/>
        <pt x="859" y="746" on="0"/>
        <pt x="859" y="867" on="1"/>
        <pt x="859" y="988" on="0"/>
        <pt x="679" y="1110" on="0"/>
        <pt x="504" y="1110" on="1"/>
      </contour>
      <contour>
        <pt x="737" y="54" on="0"/>
        <pt x="915" y="195" on="0"/>
        <pt x="915" y="320" on="1"/>
        <pt x="915" y="389" on="0"/>
        <pt x="841" y="503" on="0"/>
        <pt x="694" y="571" on="0"/>
        <pt x="589" y="571" on="1"/>
        <pt x="224" y="571" on="1"/>
        <pt x="224" y="54" on="1"/>
        <pt x="580" y="54" on="1"/>
      </contour>
    </TTGlyph>
    <TTGlyph name="C" xMin="144" yMin="-20" xMax="1190" yMax="1476">
      <contour>
        <pt x="1168" y="215" on="0"/>
        <pt x="895" y="-20" on="0"/>
        <pt x="671" y="-20" on="1"/>
        <pt x="513" y="-20" on="0"/>
        <pt x="274" y="140" on="0"/>
        <pt x="144" y="430" on="0"/>
        <pt x="144" y="619" on="1"/>
        <pt x="144" y="837" on="1"/>
        <pt x="144" y="1026" on="0"/>
        <pt x="274" y="1316" on="0"/>
        <pt x="513" y="1476" on="0"/>
        <pt x="671" y="1476" on="1"/>
        <pt x="895" y="1476" on="0"/>
        <pt x="1168" y="1241" on="0"/>
        <pt x="1190" y="1012" on="1"/>
        <pt x="1136" y="1012" on="1"/>
        <pt x="1113" y="1213" on="0"/>
        <pt x="877" y="1422" on="0"/>
        <pt x="671" y="1422" on="1"/>
        <pt x="531" y="1422" on="0"/>
        <pt x="316" y="1277" on="0"/>
        <pt x="198" y="1013" on="0"/>
        <pt x="198" y="839" on="1"/>
        <pt x="198" y="619" on="1"/>
        <pt x="198" y="444" on="0"/>
        <pt x="316" y="179" on="0"/>
        <pt x="531" y="34" on="0"/>
        <pt x="671" y="34" on="1"/>
        <pt x="1093" y="34" on="0"/>
        <pt x="1136" y="446" on="1"/>
        <pt x="1190" y="446" on="1"/>
      </contour>
    </TTGlyph>
    <TTGlyph name="C.smcp" xMin="122" yMin="-16" xMax="1026" yMax="1181">
      <contour>
        <pt x="1007" y="175" on="0"/>
        <pt x="772" y="-16" on="0"/>
        <pt x="578" y="-16" on="1"/>
        <pt x="441" y="-16" on="0"/>
        <pt x="235" y="113" on="0"/>
        <pt x="122" y="346" on="0"/>
        <pt x="122" y="498" on="1"/>
        <pt x="122" y="666" on="1"/>
        <pt x="122" y="818" on="0"/>
        <pt x="235" y="1052" on="0"/>
        <pt x="442" y="1181" on="0"/>
        <pt x="579" y="1181" on="1"/>
        <pt x="772" y="1181" on="0"/>
        <pt x="1007" y="989" on="0"/>
        <pt x="1026" y="807" on="1"/>
        <pt x="972" y="807" on="1"/>
        <pt x="952" y="963" on="0"/>
        <pt x="754" y="1126" on="0"/>
        <pt x="579" y="1126" on="1"/>
        <pt x="459" y="1126" on="0"/>
        <pt x="276" y="1012" on="0"/>
        <pt x="176" y="804" on="0"/>
        <pt x="176" y="667" on="1"/>
        <pt x="176" y="498" on="1"/>
        <pt x="176" y="362" on="0"/>
        <pt x="276" y="153" on="0"/>
        <pt x="458" y="37" on="0"/>
        <pt x="578" y="37" on="1"/>
        <pt x="934" y="37" on="0"/>
        <pt x="972" y="358" on="1"/>
        <pt x="1026" y="358" on="1"/>
      </contour>
    </TTGlyph>
    <TTGlyph name="C.ss06" xMin="130" yMin="-21" xMax="1236" yMax="1477">
      <contour>
        <pt x="1208" y="221" on="0"/>
        <pt x="937" y="-21" on="0"/>
        <pt x="717" y="-21" on="1"/>
        <pt x="543" y="-21" on="0"/>
        <pt x="276" y="169" on="0"/>
        <pt x="130" y="497" on="0"/>
        <pt x="130" y="699" on="1"/>
        <pt x="130" y="757" on="1"/>
        <pt x="130" y="959" on="0"/>
        <pt x="276" y="1287" on="0"/>
        <pt x="543" y="1477" on="0"/>
        <pt x="717" y="1477" on="1"/>
        <pt x="936" y="1477" on="0"/>
        <pt x="1206" y="1235" on="0"/>
        <pt x="1236" y="1012" on="1"/>
        <pt x="1182" y="1012" on="1"/>
        <pt x="1151" y="1208" on="0"/>
        <pt x="919" y="1423" on="0"/>
        <pt x="717" y="1423" on="1"/>
        <pt x="561" y="1423" on="0"/>
        <pt x="318" y="1249" on="0"/>
        <pt x="184" y="946" on="0"/>
        <pt x="184" y="759" on="1"/>
        <pt x="184" y="699" on="1"/>
        <pt x="184" y="511" on="0"/>
        <pt x="318" y="207" on="0"/>
        <pt x="561" y="33" on="0"/>
        <pt x="717" y="33" on="1"/>
        <pt x="919" y="33" on="0"/>
        <pt x="1152" y="242" on="0"/>
        <pt x="1182" y="446" on="1"/>
        <pt x="1236" y="446" on="1"/>
      </contour>
    </TTGlyph>
    <TTGlyph name="Ccedilla" xMin="144" yMin="-445" xMax="1190" yMax="1476">
      <component glyphName=".ttfautohint" x="144" y="0" flags="0x0"/>
      <component glyphName="C" x="0" y="0" flags="0x0"/>
      <component glyphName="cedilla" x="499" y="-10" flags="0x4"/>
    </TTGlyph>
    <TTGlyph name="Ccedilla.smcp" xMin="122" yMin="-443" xMax="1026" yMax="1181">
      <component glyphName=".ttfautohint" x="122" y="0" flags="0x0"/>
      <component glyphName="C.smcp" x="0" y="0" flags="0x0"/>
      <component glyphName="cedilla" x="404" y="-8" flags="0x4"/>
    </TTGlyph>
    <TTGlyph name="D" xMin="200" yMin="0" xMax="1204" yMax="1456">
      <contour>
        <pt x="774" y="1456" on="0"/>
        <pt x="1048" y="1294" on="0"/>
        <pt x="1204" y="1003" on="0"/>
        <pt x="1204" y="817" on="1"/>
        <pt x="1204" y="639" on="1"/>
        <pt x="1204" y="453" on="0"/>
        <pt x="1048" y="162" on="0"/>
        <pt x="774" y="0" on="0"/>
        <pt x="603" y="0" on="1"/>
        <pt x="200" y="0" on="1"/>
        <pt x="200" y="1456" on="1"/>
        <pt x="603" y="1456" on="1"/>
      </contour>
      <contour>
        <pt x="1150" y="820" on="1"/>
        <pt x="1150" y="987" on="0"/>
        <pt x="1008" y="1252" on="0"/>
        <pt x="758" y="1402" on="0"/>
        <pt x="603" y="1402" on="1"/>
        <pt x="254" y="1402" on="1"/>
        <pt x="254" y="54" on="1"/>
        <pt x="603" y="54" on="1"/>
        <pt x="758" y="54" on="0"/>
        <pt x="1008" y="204" on="0"/>
        <pt x="1150" y="471" on="0"/>
        <pt x="1150" y="639" on="1"/>
      </contour>
    </TTGlyph>
    <TTGlyph name="D.smcp" xMin="170" yMin="0" xMax="1036" yMax="1165">
      <contour>
        <pt x="665" y="1165" on="0"/>
        <pt x="902" y="1035" on="0"/>
        <pt x="1036" y="799" on="0"/>
        <pt x="1036" y="648" on="1"/>
        <pt x="1036" y="516" on="1"/>
        <pt x="1036" y="365" on="0"/>
        <pt x="901" y="130" on="0"/>
        <pt x="664" y="0" on="0"/>
        <pt x="516" y="0" on="1"/>
        <pt x="170" y="0" on="1"/>
        <pt x="170" y="1165" on="1"/>
        <pt x="517" y="1165" on="1"/>
      </contour>
      <contour>
        <pt x="982" y="650" on="1"/>
        <pt x="982" y="784" on="0"/>
        <pt x="862" y="993" on="0"/>
        <pt x="650" y="1110" on="0"/>
        <pt x="517" y="1110" on="1"/>
        <pt x="224" y="1110" on="1"/>
        <pt x="224" y="54" on="1"/>
        <pt x="516" y="54" on="1"/>
        <pt x="649" y="54" on="0"/>
        <pt x="862" y="172" on="0"/>
        <pt x="982" y="382" on="0"/>
        <pt x="982" y="516" on="1"/>
      </contour>
    </TTGlyph>
    <TTGlyph name="D.ss06" xMin="200" yMin="0" xMax="1244" yMax="1456">
      <contour>
        <pt x="770" y="1456" on="0"/>
        <pt x="1072" y="1279" on="0"/>
        <pt x="1244" y="961" on="0"/>
        <pt x="1244" y="757" on="1"/>
        <pt x="1244" y="699" on="1"/>
        <pt x="1244" y="495" on="0"/>
        <pt x="1072" y="177" on="0"/>
        <pt x="770" y="0" on="0"/>
        <pt x="583" y="0" on="1"/>
        <pt x="200" y="0" on="1"/>
        <pt x="200" y="1456" on="1"/>
        <pt x="583" y="1456" on="1"/>
      </contour>
      <contour>
        <pt x="1190" y="760" on="1"/>
        <pt x="1190" y="944" on="0"/>
        <pt x="1031" y="1237" on="0"/>
        <pt x="754" y="1402" on="0"/>
        <pt x="583" y="1402" on="1"/>
        <pt x="254" y="1402" on="1"/>
        <pt x="254" y="54" on="1"/>
        <pt x="583" y="54" on="1"/>
        <pt x="754" y="54" on="0"/>
        <pt x="1032" y="219" on="0"/>
        <pt x="1190" y="513" on="0"/>
        <pt x="1190" y="699" on="1"/>
      </contour>
    </TTGlyph>
    <TTGlyph name="E" xMin="200" yMin="0" xMax="1086" yMax="1456">
      <contour>
        <pt x="254" y="1402" on="1"/>
        <pt x="254" y="776" on="1"/>
        <pt x="984" y="776" on="1"/>
        <pt x="984" y="722" on="1"/>
        <pt x="254" y="722" on="1"/>
        <pt x="254" y="54" on="1"/>
        <pt x="1086" y="54" on="1"/>
        <pt x="1086" y="0" on="1"/>
        <pt x="200" y="0" on="1"/>
        <pt x="200" y="1456" on="1"/>
        <pt x="1086" y="1456" on="1"/>
        <pt x="1086" y="1402" on="1"/>
      </contour>
    </TTGlyph>
    <TTGlyph name="E.smcp" xMin="170" yMin="0" xMax="934" yMax="1165">
      <contour>
        <pt x="934" y="54" on="1"/>
        <pt x="934" y="0" on="1"/>
        <pt x="170" y="0" on="1"/>
        <pt x="170" y="1165" on="1"/>
        <pt x="933" y="1165" on="1"/>
        <pt x="933" y="1110" on="1"/>
        <pt x="224" y="1110" on="1"/>
        <pt x="224" y="633" on="1"/>
        <pt x="846" y="633" on="1"/>
        <pt x="846" y="579" on="1"/>
        <pt x="224" y="579" on="1"/>
        <pt x="224" y="54" on="1"/>
      </contour>
    </TTGlyph>
    <TTGlyph name="Eacute" xMin="200" yMin="0" xMax="1086" yMax="1855">
      <component glyphName=".ttfautohint" x="200" y="0" flags="0x0"/>
      <component glyphName="E" x="0" y="0" flags="0x0"/>
      <component glyphName="acutecomb" x="1147" y="319" flags="0x4"/>
    </TTGlyph>
    <TTGlyph name="Eacute.smcp" xMin="170" yMin="0" xMax="934" yMax="1563">
      <component glyphName=".ttfautohint" x="170" y="0" flags="0x0"/>
      <component glyphName="E.smcp" x="0" y="0" flags="0x0"/>
      <component glyphName="acutecomb" x="1060" y="27" flags="0x4"/>
    </TTGlyph>
    <TTGlyph name="Ecircumflex" xMin="200" yMin="0" xMax="1086" yMax="1836">
      <component glyphName=".ttfautohint" x="200" y="0" flags="0x0"/>
      <component glyphName="E" x="0" y="0" flags="0x0"/>
      <component glyphName="circumflex" x="217" y="319" flags="0x4"/>
    </TTGlyph>
    <TTGlyph name="Ecircumflex.smcp" xMin="170" yMin="0" xMax="934" yMax="1544">
      <component glyphName=".ttfautohint" x="170" y="0" flags="0x0"/>
      <component glyphName="E.smcp" x="0" y="0" flags="0x0"/>
      <component glyphName="circumflex" x="130" y="27" flags="0x4"/>
    </TTGlyph>
    <TTGlyph name="Edieresis" xMin="200" yMin="0" xMax="1086" yMax="1796">
      <component glyphName=".ttfautohint" x="200" y="0" flags="0x0"/>
      <component glyphName="E" x="0" y="0" flags="0x0"/>
      <component glyphName="dieresis" x="169" y="319" flags="0x4"/>
    </TTGlyph>
    <TTGlyph name="Edieresis.smcp" xMin="170" yMin="0" xMax="934" yMax="1504">
      <component glyphName=".ttfautohint" x="170" y="0" flags="0x0"/>
      <component glyphName="E.smcp" x="0" y="0" flags="0x0"/>
      <component glyphName="dieresis" x="82" y="27" flags="0x4"/>
    </TTGlyph>
    <TTGlyph name="Egrave" xMin="200" yMin="0" xMax="1086" yMax="1855">
      <component glyphName=".ttfautohint" x="200" y="0" flags="0x0"/>
      <component glyphName="E" x="0" y="0" flags="0x0"/>
      <component glyphName="gravecomb" x="1163" y="319" flags="0x4"/>
    </TTGlyph>
    <TTGlyph name="Egrave.smcp" xMin="170" yMin="0" xMax="934" yMax="1563">
      <component glyphName=".ttfautohint" x="170" y="0" flags="0x0"/>
      <component glyphName="E.smcp" x="0" y="0" flags="0x0"/>
      <component glyphName="gravecomb" x="1076" y="27" flags="0x4"/>
    </TTGlyph>
    <TTGlyph name="Eth" xMin="60" yMin="0" xMax="1204" yMax="1456">
      <component glyphName=".ttfautohint" x="60" y="0" flags="0x0"/>
      <component glyphName="D" x="0" y="0" flags="0x0"/>
      <component glyphName="crossbar" x="-48" y="-8" flags="0x4"/>
    </TTGlyph>
    <TTGlyph name="Eth.smcp" xMin="-23" yMin="0" xMax="1036" yMax="1165">
      <component glyphName=".ttfautohint" x="0" y="0" flags="0x0"/>
      <component glyphName="D.smcp" x="0" y="0" flags="0x0"/>
      <component glyphName="crossbar" x="-131" y="-156" flags="0x4"/>
    </TTGlyph>
    <TTGlyph name="Euro" xMin="72" yMin="-21" xMax="1032" yMax="1476">
      <contour>
        <pt x="662" y="1422" on="0"/>
        <pt x="447" y="1311" on="0"/>
        <pt x="331" y="1088" on="0"/>
        <pt x="331" y="924" on="1"/>
        <pt x="331" y="886" on="1"/>
        <pt x="786" y="886" on="1"/>
        <pt x="786" y="830" on="1"/>
        <pt x="331" y="830" on="1"/>
        <pt x="331" y="639" on="1"/>
        <pt x="786" y="639" on="1"/>
        <pt x="786" y="584" on="1"/>
        <pt x="331" y="584" on="1"/>
        <pt x="331" y="534" on="1"/>
        <pt x="331" y="373" on="0"/>
        <pt x="449" y="148" on="0"/>
        <pt x="665" y="33" on="0"/>
        <pt x="812" y="33" on="1"/>
        <pt x="928" y="33" on="0"/>
        <pt x="1032" y="67" on="1"/>
        <pt x="1032" y="10" on="1"/>
        <pt x="927" y="-21" on="0"/>
        <pt x="812" y="-21" on="1"/>
        <pt x="653" y="-21" on="0"/>
        <pt x="411" y="106" on="0"/>
        <pt x="277" y="356" on="0"/>
        <pt x="277" y="534" on="1"/>
        <pt x="277" y="584" on="1"/>
        <pt x="72" y="584" on="1"/>
        <pt x="72" y="639" on="1"/>
        <pt x="277" y="639" on="1"/>
        <pt x="277" y="830" on="1"/>
        <pt x="72" y="830" on="1"/>
        <pt x="72" y="886" on="1"/>
        <pt x="277" y="886" on="1"/>
        <pt x="277" y="922" on="1"/>
        <pt x="277" y="1101" on="0"/>
        <pt x="410" y="1350" on="0"/>
        <pt x="651" y="1476" on="0"/>
        <pt x="810" y="1476" on="1"/>
        <pt x="908" y="1476" on="0"/>
        <pt x="1032" y="1445" on="1"/>
        <pt x="1032" y="1387" on="1"/>
        <pt x="920" y="1422" on="0"/>
        <pt x="810" y="1422" on="1"/>
      </contour>
    </TTGlyph>
    <TTGlyph name="Euro.smcp" xMin="40" yMin="-21" xMax="859" yMax="1181">
      <contour>
        <pt x="471" y="1127" on="0"/>
        <pt x="290" y="909" on="0"/>
        <pt x="279" y="705" on="1"/>
        <pt x="733" y="705" on="1"/>
        <pt x="733" y="651" on="1"/>
        <pt x="278" y="651" on="1"/>
        <pt x="278" y="649" on="1"/>
        <pt x="278" y="514" on="1"/>
        <pt x="278" y="495" on="1"/>
        <pt x="733" y="495" on="1"/>
        <pt x="733" y="441" on="1"/>
        <pt x="281" y="441" on="1"/>
        <pt x="295" y="248" on="0"/>
        <pt x="478" y="33" on="0"/>
        <pt x="649" y="33" on="1"/>
        <pt x="755" y="33" on="0"/>
        <pt x="859" y="67" on="1"/>
        <pt x="859" y="10" on="1"/>
        <pt x="754" y="-21" on="0"/>
        <pt x="649" y="-21" on="1"/>
        <pt x="459" y="-21" on="0"/>
        <pt x="242" y="223" on="0"/>
        <pt x="227" y="441" on="1"/>
        <pt x="40" y="441" on="1"/>
        <pt x="40" y="495" on="1"/>
        <pt x="224" y="495" on="1"/>
        <pt x="224" y="514" on="1"/>
        <pt x="224" y="647" on="1"/>
        <pt x="224" y="651" on="1"/>
        <pt x="40" y="651" on="1"/>
        <pt x="40" y="705" on="1"/>
        <pt x="226" y="705" on="1"/>
        <pt x="238" y="930" on="0"/>
        <pt x="454" y="1181" on="0"/>
        <pt x="647" y="1181" on="1"/>
        <pt x="701" y="1181" on="0"/>
        <pt x="795" y="1166" on="0"/>
        <pt x="859" y="1150" on="1"/>
        <pt x="859" y="1092" on="1"/>
        <pt x="747" y="1127" on="0"/>
        <pt x="647" y="1127" on="1"/>
      </contour>
    </TTGlyph>
    <TTGlyph name="F" xMin="200" yMin="0" xMax="1102" yMax="1456">
      <contour>
        <pt x="254" y="1402" on="1"/>
        <pt x="254" y="772" on="1"/>
        <pt x="1000" y="772" on="1"/>
        <pt x="1000" y="716" on="1"/>
        <pt x="254" y="716" on="1"/>
        <pt x="254" y="0" on="1"/>
        <pt x="200" y="0" on="1"/>
        <pt x="200" y="1456" on="1"/>
        <pt x="1102" y="1456" on="1"/>
        <pt x="1102" y="1402" on="1"/>
      </contour>
    </TTGlyph>
    <TTGlyph name="F.smcp" xMin="170" yMin="0" xMax="945" yMax="1165">
      <contour>
        <pt x="224" y="1110" on="1"/>
        <pt x="224" y="620" on="1"/>
        <pt x="857" y="620" on="1"/>
        <pt x="857" y="565" on="1"/>
        <pt x="224" y="565" on="1"/>
        <pt x="224" y="0" on="1"/>
        <pt x="170" y="0" on="1"/>
        <pt x="170" y="1165" on="1"/>
        <pt x="945" y="1165" on="1"/>
        <pt x="945" y="1110" on="1"/>
      </contour>
    </TTGlyph>
    <TTGlyph name="G" xMin="168" yMin="-20" xMax="1226" yMax="1476">
      <contour>
        <pt x="1199" y="118" on="0"/>
        <pt x="1068" y="37" on="0"/>
        <pt x="861" y="-20" on="0"/>
        <pt x="729" y="-20" on="1"/>
        <pt x="565" y="-20" on="0"/>
        <pt x="310" y="141" on="0"/>
        <pt x="168" y="432" on="0"/>
        <pt x="168" y="620" on="1"/>
        <pt x="168" y="858" on="1"/>
        <pt x="168" y="1039" on="0"/>
        <pt x="306" y="1320" on="0"/>
        <pt x="553" y="1476" on="0"/>
        <pt x="712" y="1476" on="1"/>
        <pt x="865" y="1476" on="0"/>
        <pt x="1086" y="1368" on="0"/>
        <pt x="1210" y="1181" on="0"/>
        <pt x="1224" y="1062" on="1"/>
        <pt x="1170" y="1062" on="1"/>
        <pt x="1145" y="1221" on="0"/>
        <pt x="924" y="1422" on="0"/>
        <pt x="712" y="1422" on="1"/>
        <pt x="566" y="1422" on="0"/>
        <pt x="343" y="1279" on="0"/>
        <pt x="222" y="1023" on="0"/>
        <pt x="222" y="860" on="1"/>
        <pt x="222" y="620" on="1"/>
        <pt x="222" y="449" on="0"/>
        <pt x="347" y="183" on="0"/>
        <pt x="577" y="34" on="0"/>
        <pt x="729" y="34" on="1"/>
        <pt x="840" y="34" on="0"/>
        <pt x="1025" y="80" on="0"/>
        <pt x="1147" y="148" on="0"/>
        <pt x="1172" y="181" on="1"/>
        <pt x="1172" y="605" on="1"/>
        <pt x="727" y="605" on="1"/>
        <pt x="727" y="660" on="1"/>
        <pt x="1226" y="660" on="1"/>
        <pt x="1226" y="156" on="1"/>
      </contour>
    </TTGlyph>
    <TTGlyph name="G.smcp" xMin="142" yMin="-16" xMax="1055" yMax="1181">
      <contour>
        <pt x="1031" y="97" on="0"/>
        <pt x="920" y="31" on="0"/>
        <pt x="741" y="-16" on="0"/>
        <pt x="627" y="-16" on="1"/>
        <pt x="485" y="-16" on="0"/>
        <pt x="264" y="113" on="0"/>
        <pt x="142" y="348" on="0"/>
        <pt x="142" y="502" on="1"/>
        <pt x="142" y="678" on="1"/>
        <pt x="142" y="827" on="0"/>
        <pt x="260" y="1055" on="0"/>
        <pt x="473" y="1181" on="0"/>
        <pt x="611" y="1181" on="1"/>
        <pt x="743" y="1181" on="0"/>
        <pt x="933" y="1094" on="0"/>
        <pt x="1041" y="943" on="0"/>
        <pt x="1053" y="846" on="1"/>
        <pt x="999" y="846" on="1"/>
        <pt x="978" y="970" on="0"/>
        <pt x="791" y="1126" on="0"/>
        <pt x="611" y="1126" on="1"/>
        <pt x="486" y="1126" on="0"/>
        <pt x="298" y="1013" on="0"/>
        <pt x="195" y="810" on="0"/>
        <pt x="195" y="680" on="1"/>
        <pt x="195" y="502" on="1"/>
        <pt x="195" y="365" on="0"/>
        <pt x="302" y="154" on="0"/>
        <pt x="498" y="37" on="0"/>
        <pt x="627" y="37" on="1"/>
        <pt x="722" y="37" on="0"/>
        <pt x="877" y="73" on="0"/>
        <pt x="979" y="126" on="0"/>
        <pt x="1001" y="151" on="1"/>
        <pt x="1001" y="480" on="1"/>
        <pt x="624" y="480" on="1"/>
        <pt x="624" y="534" on="1"/>
        <pt x="1055" y="534" on="1"/>
        <pt x="1055" y="129" on="1"/>
      </contour>
    </TTGlyph>
    <TTGlyph name="G.ss06" xMin="130" yMin="-21" xMax="1248" yMax="1476">
      <contour>
        <pt x="1222" y="118" on="0"/>
        <pt x="1097" y="36" on="0"/>
        <pt x="897" y="-21" on="0"/>
        <pt x="771" y="-21" on="1"/>
        <pt x="585" y="-21" on="0"/>
        <pt x="293" y="175" on="0"/>
        <pt x="130" y="513" on="0"/>
        <pt x="130" y="720" on="1"/>
        <pt x="130" y="758" on="1"/>
        <pt x="130" y="958" on="0"/>
        <pt x="279" y="1286" on="0"/>
        <pt x="545" y="1476" on="0"/>
        <pt x="714" y="1476" on="1"/>
        <pt x="872" y="1476" on="0"/>
        <pt x="1102" y="1368" on="0"/>
        <pt x="1232" y="1181" on="0"/>
        <pt x="1246" y="1062" on="1"/>
        <pt x="1192" y="1062" on="1"/>
        <pt x="1166" y="1221" on="0"/>
        <pt x="935" y="1422" on="0"/>
        <pt x="714" y="1422" on="1"/>
        <pt x="558" y="1422" on="0"/>
        <pt x="316" y="1245" on="0"/>
        <pt x="184" y="942" on="0"/>
        <pt x="184" y="760" on="1"/>
        <pt x="184" y="720" on="1"/>
        <pt x="184" y="530" on="0"/>
        <pt x="330" y="216" on="0"/>
        <pt x="597" y="33" on="0"/>
        <pt x="771" y="33" on="1"/>
        <pt x="877" y="33" on="0"/>
        <pt x="1053" y="80" on="0"/>
        <pt x="1170" y="148" on="0"/>
        <pt x="1194" y="181" on="1"/>
        <pt x="1194" y="605" on="1"/>
        <pt x="749" y="605" on="1"/>
        <pt x="749" y="660" on="1"/>
        <pt x="1248" y="660" on="1"/>
        <pt x="1248" y="156" on="1"/>
      </contour>
    </TTGlyph>
    <TTGlyph name="H" xMin="200" yMin="0" xMax="1238" yMax="1456">
      <contour>
        <pt x="1238" y="1456" on="1"/>
        <pt x="1238" y="0" on="1"/>
        <pt x="1184" y="0" on="1"/>
        <pt x="1184" y="722" on="1"/>
        <pt x="254" y="722" on="1"/>
        <pt x="254" y="0" on="1"/>
        <pt x="200" y="0" on="1"/>
        <pt x="200" y="1456" on="1"/>
        <pt x="254" y="1456" on="1"/>
        <pt x="254" y="776" on="1"/>
        <pt x="1184" y="776" on="1"/>
        <pt x="1184" y="1456" on="1"/>
      </contour>
    </TTGlyph>
    <TTGlyph name="H.smcp" xMin="170" yMin="0" xMax="1067" yMax="1165">
      <contour>
        <pt x="1067" y="1165" on="1"/>
        <pt x="1067" y="0" on="1"/>
        <pt x="1013" y="0" on="1"/>
        <pt x="1013" y="550" on="1"/>
        <pt x="224" y="550" on="1"/>
        <pt x="224" y="0" on="1"/>
        <pt x="170" y="0" on="1"/>
        <pt x="170" y="1165" on="1"/>
        <pt x="224" y="1165" on="1"/>
        <pt x="224" y="604" on="1"/>
        <pt x="1013" y="604" on="1"/>
        <pt x="1013" y="1165" on="1"/>
      </contour>
    </TTGlyph>
    <TTGlyph name="I" xMin="240" yMin="0" xMax="294" yMax="1456">
      <contour>
        <pt x="240" y="0" on="1"/>
        <pt x="240" y="1456" on="1"/>
        <pt x="294" y="1456" on="1"/>
        <pt x="294" y="0" on="1"/>
      </contour>
    </TTGlyph>
    <TTGlyph name="I.smcp" xMin="203" yMin="0" xMax="257" yMax="1165">
      <contour>
        <pt x="203" y="0" on="1"/>
        <pt x="203" y="1165" on="1"/>
        <pt x="257" y="1165" on="1"/>
        <pt x="257" y="0" on="1"/>
      </contour>
    </TTGlyph>
    <TTGlyph name="Iacute" xMin="222" yMin="0" xMax="477" yMax="1855">
      <component glyphName=".ttfautohint" x="222" y="0" flags="0x0"/>
      <component glyphName="I" x="0" y="0" flags="0x0"/>
      <component glyphName="acutecomb" x="796" y="319" flags="0x4"/>
    </TTGlyph>
    <TTGlyph name="Iacute.smcp" xMin="184" yMin="0" xMax="439" yMax="1563">
      <component glyphName=".ttfautohint" x="184" y="0" flags="0x0"/>
      <component glyphName="I.smcp" x="0" y="0" flags="0x0"/>
      <component glyphName="acutecomb" x="758" y="27" flags="0x4"/>
    </TTGlyph>
    <TTGlyph name="Icircumflex" xMin="18" yMin="0" xMax="522" yMax="1836">
      <component glyphName=".ttfautohint" x="18" y="0" flags="0x0"/>
      <component glyphName="I" x="0" y="0" flags="0x0"/>
      <component glyphName="circumflex" x="-134" y="319" flags="0x4"/>
    </TTGlyph>
    <TTGlyph name="Icircumflex.smcp" xMin="-20" yMin="0" xMax="484" yMax="1544">
      <component glyphName=".ttfautohint" x="0" y="0" flags="0x0"/>
      <component glyphName="I.smcp" x="0" y="0" flags="0x0"/>
      <component glyphName="circumflex" x="-172" y="27" flags="0x4"/>
    </TTGlyph>
    <TTGlyph name="Idieresis" xMin="-8" yMin="0" xMax="548" yMax="1796">
      <component glyphName=".ttfautohint" x="0" y="0" flags="0x0"/>
      <component glyphName="I" x="0" y="0" flags="0x0"/>
      <component glyphName="dieresis" x="-182" y="319" flags="0x4"/>
    </TTGlyph>
    <TTGlyph name="Idieresis.smcp" xMin="-46" yMin="0" xMax="510" yMax="1504">
      <component glyphName=".ttfautohint" x="0" y="0" flags="0x0"/>
      <component glyphName="I.smcp" x="0" y="0" flags="0x0"/>
      <component glyphName="dieresis" x="-220" y="27" flags="0x4"/>
    </TTGlyph>
    <TTGlyph name="Igrave" xMin="68" yMin="0" xMax="322" yMax="1855">
      <component glyphName=".ttfautohint" x="68" y="0" flags="0x0"/>
      <component glyphName="I" x="0" y="0" flags="0x0"/>
      <component glyphName="gravecomb" x="812" y="319" flags="0x4"/>
    </TTGlyph>
    <TTGlyph name="Igrave.smcp" xMin="30" yMin="0" xMax="284" yMax="1563">
      <component glyphName=".ttfautohint" x="30" y="0" flags="0x0"/>
      <component glyphName="I.smcp" x="0" y="0" flags="0x0"/>
      <component glyphName="gravecomb" x="774" y="27" flags="0x4"/>
    </TTGlyph>
    <TTGlyph name="J" xMin="90" yMin="-20" xMax="930" yMax="1456">
      <contour>
        <pt x="930" y="1456" on="1"/>
        <pt x="930" y="442" on="1"/>
        <pt x="930" y="297" on="0"/>
        <pt x="821" y="88" on="0"/>
        <pt x="630" y="-20" on="0"/>
        <pt x="510" y="-20" on="1"/>
        <pt x="312" y="-20" on="0"/>
        <pt x="90" y="192" on="0"/>
        <pt x="90" y="401" on="1"/>
        <pt x="144" y="401" on="1"/>
        <pt x="144" y="223" on="0"/>
        <pt x="329" y="34" on="0"/>
        <pt x="510" y="34" on="1"/>
        <pt x="612" y="34" on="0"/>
        <pt x="778" y="128" on="0"/>
        <pt x="876" y="312" on="0"/>
        <pt x="876" y="442" on="1"/>
        <pt x="876" y="1456" on="1"/>
      </contour>
    </TTGlyph>
    <TTGlyph name="J.smcp" xMin="75" yMin="-16" xMax="802" yMax="1165">
      <contour>
        <pt x="802" y="1165" on="1"/>
        <pt x="802" y="335" on="1"/>
        <pt x="802" y="228" on="0"/>
        <pt x="711" y="69" on="0"/>
        <pt x="551" y="-16" on="0"/>
        <pt x="448" y="-16" on="1"/>
        <pt x="276" y="-16" on="0"/>
        <pt x="75" y="155" on="0"/>
        <pt x="75" y="321" on="1"/>
        <pt x="129" y="321" on="1"/>
        <pt x="129" y="184" on="0"/>
        <pt x="294" y="37" on="0"/>
        <pt x="448" y="37" on="1"/>
        <pt x="533" y="37" on="0"/>
        <pt x="669" y="109" on="0"/>
        <pt x="747" y="245" on="0"/>
        <pt x="747" y="335" on="1"/>
        <pt x="747" y="1165" on="1"/>
      </contour>
    </TTGlyph>
    <TTGlyph name="K" xMin="200" yMin="0" xMax="1226" yMax="1456">
      <contour>
        <pt x="487" y="766" on="1"/>
        <pt x="254" y="551" on="1"/>
        <pt x="254" y="0" on="1"/>
        <pt x="200" y="0" on="1"/>
        <pt x="200" y="1456" on="1"/>
        <pt x="254" y="1456" on="1"/>
        <pt x="254" y="615" on="1"/>
        <pt x="492" y="847" on="1"/>
        <pt x="1098" y="1456" on="1"/>
        <pt x="1176" y="1456" on="1"/>
        <pt x="528" y="804" on="1"/>
        <pt x="1226" y="0" on="1"/>
        <pt x="1156" y="0" on="1"/>
      </contour>
    </TTGlyph>
    <TTGlyph name="K.alt" xMin="200" yMin="0" xMax="1227" yMax="1456">
      <contour>
        <pt x="477" y="711" on="1"/>
        <pt x="254" y="711" on="1"/>
        <pt x="254" y="0" on="1"/>
        <pt x="200" y="0" on="1"/>
        <pt x="200" y="1456" on="1"/>
        <pt x="254" y="1456" on="1"/>
        <pt x="254" y="764" on="1"/>
        <pt x="492" y="764" on="1"/>
        <pt x="1110" y="1456" on="1"/>
        <pt x="1181" y="1456" on="1"/>
        <pt x="537" y="730" on="1"/>
        <pt x="1227" y="0" on="1"/>
        <pt x="1156" y="0" on="1"/>
      </contour>
    </TTGlyph>
    <TTGlyph name="K.alt2" xMin="200" yMin="0" xMax="1147" yMax="1456">
      <contour>
        <pt x="267" y="711" on="1"/>
        <pt x="254" y="711" on="1"/>
        <pt x="254" y="0" on="1"/>
        <pt x="200" y="0" on="1"/>
        <pt x="200" y="1456" on="1"/>
        <pt x="254" y="1456" on="1"/>
        <pt x="254" y="747" on="1"/>
        <pt x="266" y="747" on="1"/>
        <pt x="1020" y="1456" on="1"/>
        <pt x="1101" y="1456" on="1"/>
        <pt x="328" y="731" on="1"/>
        <pt x="1147" y="0" on="1"/>
        <pt x="1066" y="0" on="1"/>
      </contour>
    </TTGlyph>
    <TTGlyph name="K.smcp" xMin="170" yMin="0" xMax="1060" yMax="1165">
      <contour>
        <pt x="419" y="607" on="1"/>
        <pt x="224" y="434" on="1"/>
        <pt x="224" y="0" on="1"/>
        <pt x="170" y="0" on="1"/>
        <pt x="170" y="1165" on="1"/>
        <pt x="224" y="1165" on="1"/>
        <pt x="224" y="500" on="1"/>
        <pt x="424" y="685" on="1"/>
        <pt x="934" y="1165" on="1"/>
        <pt x="1010" y="1165" on="1"/>
        <pt x="462" y="646" on="1"/>
        <pt x="1060" y="0" on="1"/>
        <pt x="988" y="0" on="1"/>
      </contour>
    </TTGlyph>
    <TTGlyph name="L" xMin="200" yMin="0" xMax="1002" yMax="1456">
      <contour>
        <pt x="1002" y="54" on="1"/>
        <pt x="1002" y="0" on="1"/>
        <pt x="200" y="0" on="1"/>
        <pt x="200" y="1456" on="1"/>
        <pt x="255" y="1456" on="1"/>
        <pt x="255" y="54" on="1"/>
      </contour>
    </TTGlyph>
    <TTGlyph name="L.smcp" xMin="170" yMin="0" xMax="864" yMax="1165">
      <contour>
        <pt x="864" y="54" on="1"/>
        <pt x="864" y="0" on="1"/>
        <pt x="170" y="0" on="1"/>
        <pt x="170" y="1165" on="1"/>
        <pt x="224" y="1165" on="1"/>
        <pt x="224" y="54" on="1"/>
      </contour>
    </TTGlyph>
    <TTGlyph name="M" xMin="200" yMin="0" xMax="1556" yMax="1456">
      <contour>
        <pt x="1556" y="0" on="1"/>
        <pt x="1502" y="0" on="1"/>
        <pt x="1502" y="1376" on="1"/>
        <pt x="898" y="0" on="1"/>
        <pt x="855" y="0" on="1"/>
        <pt x="254" y="1369" on="1"/>
        <pt x="254" y="0" on="1"/>
        <pt x="200" y="0" on="1"/>
        <pt x="200" y="1456" on="1"/>
        <pt x="277" y="1456" on="1"/>
        <pt x="876" y="79" on="1"/>
        <pt x="1477" y="1456" on="1"/>
        <pt x="1556" y="1456" on="1"/>
      </contour>
    </TTGlyph>
    <TTGlyph name="M.smcp" xMin="170" yMin="0" xMax="1341" yMax="1165">
      <contour>
        <pt x="1341" y="0" on="1"/>
        <pt x="1287" y="0" on="1"/>
        <pt x="1287" y="549" on="1"/>
        <pt x="1288" y="1090" on="1"/>
        <pt x="776" y="0" on="1"/>
        <pt x="733" y="0" on="1"/>
        <pt x="223" y="1086" on="1"/>
        <pt x="224" y="549" on="1"/>
        <pt x="224" y="0" on="1"/>
        <pt x="170" y="0" on="1"/>
        <pt x="170" y="1165" on="1"/>
        <pt x="245" y="1165" on="1"/>
        <pt x="754" y="82" on="1"/>
        <pt x="1264" y="1165" on="1"/>
        <pt x="1341" y="1165" on="1"/>
      </contour>
    </TTGlyph>
    <TTGlyph name="N" xMin="200" yMin="0" xMax="1249" yMax="1456">
      <contour>
        <pt x="1195" y="0" on="1"/>
        <pt x="255" y="1364" on="1"/>
        <pt x="255" y="0" on="1"/>
        <pt x="200" y="0" on="1"/>
        <pt x="200" y="1456" on="1"/>
        <pt x="255" y="1456" on="1"/>
        <pt x="1195" y="95" on="1"/>
        <pt x="1195" y="1456" on="1"/>
        <pt x="1249" y="1456" on="1"/>
        <pt x="1249" y="0" on="1"/>
      </contour>
    </TTGlyph>
    <TTGlyph name="N.smcp" xMin="170" yMin="0" xMax="1076" yMax="1165">
      <contour>
        <pt x="1022" y="0" on="1"/>
        <pt x="224" y="1075" on="1"/>
        <pt x="224" y="0" on="1"/>
        <pt x="170" y="0" on="1"/>
        <pt x="170" y="1165" on="1"/>
        <pt x="224" y="1165" on="1"/>
        <pt x="1022" y="93" on="1"/>
        <pt x="1022" y="1165" on="1"/>
        <pt x="1076" y="1165" on="1"/>
        <pt x="1076" y="0" on="1"/>
      </contour>
    </TTGlyph>
    <TTGlyph name="Ntilde" xMin="200" yMin="0" xMax="1249" yMax="1806">
      <component glyphName=".ttfautohint" x="200" y="0" flags="0x0"/>
      <component glyphName="N" x="0" y="0" flags="0x0"/>
      <component glyphName="tilde" x="325" y="334" flags="0x4"/>
    </TTGlyph>
    <TTGlyph name="Ntilde.smcp" xMin="170" yMin="0" xMax="1076" yMax="1514">
      <component glyphName=".ttfautohint" x="170" y="0" flags="0x0"/>
      <component glyphName="N.smcp" x="0" y="0" flags="0x0"/>
      <component glyphName="tilde" x="223" y="42" flags="0x4"/>
    </TTGlyph>
    <TTGlyph name="O" xMin="133" yMin="-20" xMax="1231" yMax="1476">
      <contour>
        <pt x="1231" y="430" on="0"/>
        <pt x="1096" y="140" on="0"/>
        <pt x="848" y="-20" on="0"/>
        <pt x="683" y="-20" on="1"/>
        <pt x="518" y="-20" on="0"/>
        <pt x="269" y="140" on="0"/>
        <pt x="133" y="430" on="0"/>
        <pt x="133" y="619" on="1"/>
        <pt x="133" y="837" on="1"/>
        <pt x="133" y="1026" on="0"/>
        <pt x="268" y="1316" on="0"/>
        <pt x="516" y="1476" on="0"/>
        <pt x="681" y="1476" on="1"/>
        <pt x="846" y="1476" on="0"/>
        <pt x="1096" y="1316" on="0"/>
        <pt x="1231" y="1026" on="0"/>
        <pt x="1231" y="837" on="1"/>
        <pt x="1231" y="619" on="1"/>
      </contour>
      <contour>
        <pt x="1177" y="1010" on="0"/>
        <pt x="1059" y="1274" on="0"/>
        <pt x="835" y="1422" on="0"/>
        <pt x="681" y="1422" on="1"/>
        <pt x="528" y="1422" on="0"/>
        <pt x="305" y="1274" on="0"/>
        <pt x="188" y="1010" on="0"/>
        <pt x="188" y="839" on="1"/>
        <pt x="188" y="619" on="1"/>
        <pt x="188" y="447" on="0"/>
        <pt x="306" y="182" on="0"/>
        <pt x="530" y="34" on="0"/>
        <pt x="683" y="34" on="1"/>
        <pt x="837" y="34" on="0"/>
        <pt x="1060" y="182" on="0"/>
        <pt x="1177" y="447" on="0"/>
        <pt x="1177" y="619" on="1"/>
        <pt x="1177" y="839" on="1"/>
      </contour>
    </TTGlyph>
    <TTGlyph name="O.smcp" xMin="114" yMin="-16" xMax="1061" yMax="1181">
      <contour>
        <pt x="1061" y="348" on="0"/>
        <pt x="945" y="113" on="0"/>
        <pt x="731" y="-16" on="0"/>
        <pt x="588" y="-16" on="1"/>
        <pt x="446" y="-16" on="0"/>
        <pt x="231" y="113" on="0"/>
        <pt x="114" y="348" on="0"/>
        <pt x="114" y="502" on="1"/>
        <pt x="114" y="662" on="1"/>
        <pt x="114" y="816" on="0"/>
        <pt x="230" y="1052" on="0"/>
        <pt x="444" y="1181" on="0"/>
        <pt x="587" y="1181" on="1"/>
        <pt x="729" y="1181" on="0"/>
        <pt x="944" y="1052" on="0"/>
        <pt x="1061" y="816" on="0"/>
        <pt x="1061" y="662" on="1"/>
        <pt x="1061" y="502" on="1"/>
      </contour>
      <contour>
        <pt x="1008" y="801" on="0"/>
        <pt x="908" y="1010" on="0"/>
        <pt x="718" y="1126" on="0"/>
        <pt x="587" y="1126" on="1"/>
        <pt x="457" y="1126" on="0"/>
        <pt x="268" y="1010" on="0"/>
        <pt x="168" y="801" on="0"/>
        <pt x="168" y="664" on="1"/>
        <pt x="168" y="502" on="1"/>
        <pt x="168" y="364" on="0"/>
        <pt x="268" y="154" on="0"/>
        <pt x="458" y="38" on="0"/>
        <pt x="588" y="38" on="1"/>
        <pt x="719" y="38" on="0"/>
        <pt x="909" y="154" on="0"/>
        <pt x="1008" y="364" on="0"/>
        <pt x="1008" y="502" on="1"/>
        <pt x="1008" y="664" on="1"/>
      </contour>
    </TTGlyph>
    <TTGlyph name="O.ss06" xMin="130" yMin="-21" xMax="1288" yMax="1477">
      <contour>
        <pt x="1288" y="494" on="0"/>
        <pt x="1139" y="165" on="0"/>
        <pt x="875" y="-21" on="0"/>
        <pt x="710" y="-21" on="1"/>
        <pt x="545" y="-21" on="0"/>
        <pt x="280" y="165" on="0"/>
        <pt x="130" y="494" on="0"/>
        <pt x="130" y="699" on="1"/>
        <pt x="130" y="757" on="1"/>
        <pt x="130" y="962" on="0"/>
        <pt x="279" y="1291" on="0"/>
        <pt x="543" y="1477" on="0"/>
        <pt x="708" y="1477" on="1"/>
        <pt x="873" y="1477" on="0"/>
        <pt x="1138" y="1291" on="0"/>
        <pt x="1288" y="962" on="0"/>
        <pt x="1288" y="757" on="1"/>
        <pt x="1288" y="699" on="1"/>
      </contour>
      <contour>
        <pt x="1234" y="946" on="0"/>
        <pt x="1101" y="1249" on="0"/>
        <pt x="862" y="1423" on="0"/>
        <pt x="708" y="1423" on="1"/>
        <pt x="555" y="1423" on="0"/>
        <pt x="317" y="1249" on="0"/>
        <pt x="185" y="946" on="0"/>
        <pt x="185" y="759" on="1"/>
        <pt x="185" y="699" on="1"/>
        <pt x="185" y="511" on="0"/>
        <pt x="318" y="207" on="0"/>
        <pt x="557" y="33" on="0"/>
        <pt x="710" y="33" on="1"/>
        <pt x="864" y="33" on="0"/>
        <pt x="1102" y="207" on="0"/>
        <pt x="1234" y="511" on="0"/>
        <pt x="1234" y="699" on="1"/>
        <pt x="1234" y="759" on="1"/>
      </contour>
    </TTGlyph>
    <TTGlyph name="OE" xMin="112" yMin="-21" xMax="1801" yMax="1476">
      <contour>
        <pt x="969" y="1402" on="1"/>
        <pt x="969" y="776" on="1"/>
        <pt x="1699" y="776" on="1"/>
        <pt x="1699" y="722" on="1"/>
        <pt x="969" y="722" on="1"/>
        <pt x="969" y="54" on="1"/>
        <pt x="1801" y="54" on="1"/>
        <pt x="1801" y="0" on="1"/>
        <pt x="961" y="0" on="1"/>
        <pt x="858" y="-10" on="0"/>
        <pt x="709" y="-21" on="0"/>
        <pt x="631" y="-21" on="1"/>
        <pt x="479" y="-21" on="0"/>
        <pt x="243" y="130" on="0"/>
        <pt x="112" y="401" on="0"/>
        <pt x="112" y="576" on="1"/>
        <pt x="112" y="880" on="1"/>
        <pt x="112" y="1055" on="0"/>
        <pt x="242" y="1325" on="0"/>
        <pt x="477" y="1476" on="0"/>
        <pt x="629" y="1476" on="1"/>
        <pt x="777" y="1476" on="0"/>
        <pt x="961" y="1456" on="1"/>
        <pt x="1801" y="1456" on="1"/>
        <pt x="1801" y="1402" on="1"/>
      </contour>
      <contour>
        <pt x="166" y="419" on="0"/>
        <pt x="281" y="172" on="0"/>
        <pt x="492" y="33" on="0"/>
        <pt x="631" y="33" on="1"/>
        <pt x="796" y="33" on="0"/>
        <pt x="915" y="47" on="1"/>
        <pt x="915" y="1409" on="1"/>
        <pt x="812" y="1422" on="0"/>
        <pt x="629" y="1422" on="1"/>
        <pt x="490" y="1422" on="0"/>
        <pt x="280" y="1287" on="0"/>
        <pt x="166" y="1042" on="0"/>
        <pt x="166" y="882" on="1"/>
        <pt x="166" y="576" on="1"/>
      </contour>
    </TTGlyph>
    <TTGlyph name="Oacute" xMin="133" yMin="-20" xMax="1231" yMax="1876">
      <component glyphName=".ttfautohint" x="133" y="0" flags="0x0"/>
      <component glyphName="O" x="0" y="0" flags="0x0"/>
      <component glyphName="acutecomb" x="1204" y="340" flags="0x4"/>
    </TTGlyph>
    <TTGlyph name="Oacute.smcp" xMin="114" yMin="-16" xMax="1061" yMax="1563">
      <component glyphName=".ttfautohint" x="114" y="0" flags="0x0"/>
      <component glyphName="O.smcp" x="0" y="0" flags="0x0"/>
      <component glyphName="acutecomb" x="1111" y="27" flags="0x4"/>
    </TTGlyph>
    <TTGlyph name="Ocircumflex" xMin="133" yMin="-20" xMax="1231" yMax="1857">
      <component glyphName=".ttfautohint" x="133" y="0" flags="0x0"/>
      <component glyphName="O" x="0" y="0" flags="0x0"/>
      <component glyphName="circumflex" x="274" y="340" flags="0x4"/>
    </TTGlyph>
    <TTGlyph name="Ocircumflex.smcp" xMin="114" yMin="-16" xMax="1061" yMax="1544">
      <component glyphName=".ttfautohint" x="114" y="0" flags="0x0"/>
      <component glyphName="O.smcp" x="0" y="0" flags="0x0"/>
      <component glyphName="circumflex" x="181" y="27" flags="0x4"/>
    </TTGlyph>
    <TTGlyph name="Odieresis" xMin="133" yMin="-20" xMax="1231" yMax="1817">
      <component glyphName=".ttfautohint" x="133" y="0" flags="0x0"/>
      <component glyphName="O" x="0" y="0" flags="0x0"/>
      <component glyphName="dieresis" x="226" y="340" flags="0x4"/>
    </TTGlyph>
    <TTGlyph name="Odieresis.smcp" xMin="114" yMin="-16" xMax="1061" yMax="1504">
      <component glyphName=".ttfautohint" x="114" y="0" flags="0x0"/>
      <component glyphName="O.smcp" x="0" y="0" flags="0x0"/>
      <component glyphName="dieresis" x="133" y="27" flags="0x4"/>
    </TTGlyph>
    <TTGlyph name="Ograve" xMin="133" yMin="-20" xMax="1231" yMax="1876">
      <component glyphName=".ttfautohint" x="133" y="0" flags="0x0"/>
      <component glyphName="O" x="0" y="0" flags="0x0"/>
      <component glyphName="gravecomb" x="1220" y="340" flags="0x4"/>
    </TTGlyph>
    <TTGlyph name="Ograve.smcp" xMin="114" yMin="-16" xMax="1061" yMax="1563">
      <component glyphName=".ttfautohint" x="114" y="0" flags="0x0"/>
      <component glyphName="O.smcp" x="0" y="0" flags="0x0"/>
      <component glyphName="gravecomb" x="1127" y="27" flags="0x4"/>
    </TTGlyph>
    <TTGlyph name="Oslash" xMin="133" yMin="-75" xMax="1240" yMax="1495">
      <contour>
        <pt x="1101" y="1275" on="1"/>
        <pt x="1164" y="1192" on="0"/>
        <pt x="1231" y="968" on="0"/>
        <pt x="1231" y="837" on="1"/>
        <pt x="1231" y="619" on="1"/>
        <pt x="1231" y="430" on="0"/>
        <pt x="1096" y="140" on="0"/>
        <pt x="848" y="-20" on="0"/>
        <pt x="683" y="-20" on="1"/>
        <pt x="487" y="-20" on="0"/>
        <pt x="349" y="92" on="1"/>
        <pt x="243" y="-75" on="1"/>
        <pt x="177" y="-75" on="1"/>
        <pt x="307" y="130" on="1"/>
        <pt x="223" y="215" on="0"/>
        <pt x="133" y="466" on="0"/>
        <pt x="133" y="619" on="1"/>
        <pt x="133" y="837" on="1"/>
        <pt x="133" y="1026" on="0"/>
        <pt x="268" y="1316" on="0"/>
        <pt x="516" y="1476" on="0"/>
        <pt x="681" y="1476" on="1"/>
        <pt x="797" y="1476" on="0"/>
        <pt x="991" y="1395" on="0"/>
        <pt x="1063" y="1320" on="1"/>
        <pt x="1174" y="1495" on="1"/>
        <pt x="1240" y="1495" on="1"/>
      </contour>
      <contour>
        <pt x="188" y="481" on="0"/>
        <pt x="264" y="255" on="0"/>
        <pt x="337" y="177" on="1"/>
        <pt x="1034" y="1274" on="1"/>
        <pt x="969" y="1345" on="0"/>
        <pt x="791" y="1422" on="0"/>
        <pt x="681" y="1422" on="1"/>
        <pt x="528" y="1422" on="0"/>
        <pt x="305" y="1274" on="0"/>
        <pt x="188" y="1010" on="0"/>
        <pt x="188" y="839" on="1"/>
        <pt x="188" y="619" on="1"/>
      </contour>
      <contour>
        <pt x="1177" y="954" on="0"/>
        <pt x="1123" y="1152" on="0"/>
        <pt x="1070" y="1227" on="1"/>
        <pt x="378" y="138" on="1"/>
        <pt x="502" y="34" on="0"/>
        <pt x="683" y="34" on="1"/>
        <pt x="837" y="34" on="0"/>
        <pt x="1060" y="182" on="0"/>
        <pt x="1177" y="447" on="0"/>
        <pt x="1177" y="619" on="1"/>
        <pt x="1177" y="839" on="1"/>
      </contour>
    </TTGlyph>
    <TTGlyph name="Oslash.smcp" xMin="114" yMin="-75" xMax="1061" yMax="1215">
      <contour>
        <pt x="997" y="965" on="0"/>
        <pt x="1061" y="776" on="0"/>
        <pt x="1061" y="662" on="1"/>
        <pt x="1061" y="502" on="1"/>
        <pt x="1061" y="348" on="0"/>
        <pt x="945" y="113" on="0"/>
        <pt x="731" y="-16" on="0"/>
        <pt x="588" y="-16" on="1"/>
        <pt x="503" y="-16" on="0"/>
        <pt x="356" y="31" on="0"/>
        <pt x="298" y="76" on="1"/>
        <pt x="198" y="-75" on="1"/>
        <pt x="142" y="-75" on="1"/>
        <pt x="263" y="106" on="1"/>
        <pt x="191" y="175" on="0"/>
        <pt x="114" y="378" on="0"/>
        <pt x="114" y="502" on="1"/>
        <pt x="114" y="662" on="1"/>
        <pt x="114" y="816" on="0"/>
        <pt x="230" y="1052" on="0"/>
        <pt x="444" y="1181" on="0"/>
        <pt x="587" y="1181" on="1"/>
        <pt x="682" y="1181" on="0"/>
        <pt x="841" y="1123" on="0"/>
        <pt x="903" y="1067" on="1"/>
        <pt x="1001" y="1215" on="1"/>
        <pt x="1057" y="1215" on="1"/>
        <pt x="936" y="1033" on="1"/>
      </contour>
      <contour>
        <pt x="168" y="392" on="0"/>
        <pt x="232" y="214" on="0"/>
        <pt x="293" y="152" on="1"/>
        <pt x="873" y="1023" on="1"/>
        <pt x="762" y="1126" on="0"/>
        <pt x="587" y="1126" on="1"/>
        <pt x="457" y="1126" on="0"/>
        <pt x="268" y="1010" on="0"/>
        <pt x="168" y="801" on="0"/>
        <pt x="168" y="664" on="1"/>
        <pt x="168" y="502" on="1"/>
      </contour>
      <contour>
        <pt x="1008" y="664" on="1"/>
        <pt x="1008" y="762" on="0"/>
        <pt x="956" y="927" on="0"/>
        <pt x="906" y="988" on="1"/>
        <pt x="328" y="120" on="1"/>
        <pt x="435" y="38" on="0"/>
        <pt x="588" y="38" on="1"/>
        <pt x="719" y="38" on="0"/>
        <pt x="909" y="154" on="0"/>
        <pt x="1008" y="364" on="0"/>
        <pt x="1008" y="502" on="1"/>
      </contour>
    </TTGlyph>
    <TTGlyph name="Otilde" xMin="133" yMin="-20" xMax="1231" yMax="1827">
      <component glyphName=".ttfautohint" x="133" y="0" flags="0x0"/>
      <component glyphName="O" x="0" y="0" flags="0x0"/>
      <component glyphName="tilde" x="275" y="355" flags="0x4"/>
    </TTGlyph>
    <TTGlyph name="Otilde.smcp" xMin="114" yMin="-16" xMax="1061" yMax="1514">
      <component glyphName=".ttfautohint" x="114" y="0" flags="0x0"/>
      <component glyphName="O.smcp" x="0" y="0" flags="0x0"/>
      <component glyphName="tilde" x="182" y="42" flags="0x4"/>
    </TTGlyph>
    <TTGlyph name="P" xMin="200" yMin="0" xMax="1125" yMax="1456">
      <contour>
        <pt x="807" y="1456" on="0"/>
        <pt x="1018" y="1351" on="0"/>
        <pt x="1125" y="1160" on="0"/>
        <pt x="1125" y="1031" on="1"/>
        <pt x="1125" y="902" on="0"/>
        <pt x="1019" y="715" on="0"/>
        <pt x="808" y="615" on="0"/>
        <pt x="655" y="615" on="1"/>
        <pt x="254" y="615" on="1"/>
        <pt x="254" y="0" on="1"/>
        <pt x="200" y="0" on="1"/>
        <pt x="200" y="1456" on="1"/>
        <pt x="655" y="1456" on="1"/>
      </contour>
      <contour>
        <pt x="796" y="669" on="0"/>
        <pt x="983" y="764" on="0"/>
        <pt x="1071" y="926" on="0"/>
        <pt x="1071" y="1029" on="1"/>
        <pt x="1071" y="1136" on="0"/>
        <pt x="983" y="1304" on="0"/>
        <pt x="797" y="1402" on="0"/>
        <pt x="655" y="1402" on="1"/>
        <pt x="254" y="1402" on="1"/>
        <pt x="254" y="669" on="1"/>
        <pt x="655" y="669" on="1"/>
      </contour>
    </TTGlyph>
    <TTGlyph name="P.smcp" xMin="170" yMin="0" xMax="973" yMax="1165">
      <contour>
        <pt x="697" y="1165" on="0"/>
        <pt x="880" y="1080" on="0"/>
        <pt x="973" y="925" on="0"/>
        <pt x="973" y="822" on="1"/>
        <pt x="973" y="664" on="0"/>
        <pt x="764" y="487" on="0"/>
        <pt x="566" y="487" on="1"/>
        <pt x="224" y="487" on="1"/>
        <pt x="224" y="0" on="1"/>
        <pt x="170" y="0" on="1"/>
        <pt x="170" y="1165" on="1"/>
        <pt x="566" y="1165" on="1"/>
      </contour>
      <contour>
        <pt x="686" y="542" on="0"/>
        <pt x="844" y="615" on="0"/>
        <pt x="918" y="740" on="0"/>
        <pt x="918" y="821" on="1"/>
        <pt x="918" y="904" on="0"/>
        <pt x="844" y="1034" on="0"/>
        <pt x="686" y="1110" on="0"/>
        <pt x="566" y="1110" on="1"/>
        <pt x="224" y="1110" on="1"/>
        <pt x="224" y="542" on="1"/>
        <pt x="566" y="542" on="1"/>
      </contour>
    </TTGlyph>
    <TTGlyph name="Q" xMin="133" yMin="-263" xMax="1231" yMax="1476">
      <contour>
        <pt x="1231" y="411" on="0"/>
        <pt x="1069" y="105" on="0"/>
        <pt x="924" y="33" on="1"/>
        <pt x="1191" y="-228" on="1"/>
        <pt x="1152" y="-263" on="1"/>
        <pt x="869" y="10" on="1"/>
        <pt x="784" y="-20" on="0"/>
        <pt x="683" y="-20" on="1"/>
        <pt x="518" y="-20" on="0"/>
        <pt x="269" y="140" on="0"/>
        <pt x="133" y="430" on="0"/>
        <pt x="133" y="619" on="1"/>
        <pt x="133" y="837" on="1"/>
        <pt x="133" y="1026" on="0"/>
        <pt x="268" y="1316" on="0"/>
        <pt x="516" y="1476" on="0"/>
        <pt x="681" y="1476" on="1"/>
        <pt x="846" y="1476" on="0"/>
        <pt x="1096" y="1316" on="0"/>
        <pt x="1231" y="1026" on="0"/>
        <pt x="1231" y="837" on="1"/>
        <pt x="1231" y="619" on="1"/>
      </contour>
      <contour>
        <pt x="837" y="34" on="0"/>
        <pt x="1060" y="182" on="0"/>
        <pt x="1177" y="447" on="0"/>
        <pt x="1177" y="619" on="1"/>
        <pt x="1177" y="839" on="1"/>
        <pt x="1177" y="1010" on="0"/>
        <pt x="1059" y="1274" on="0"/>
        <pt x="835" y="1422" on="0"/>
        <pt x="681" y="1422" on="1"/>
        <pt x="528" y="1422" on="0"/>
        <pt x="305" y="1274" on="0"/>
        <pt x="188" y="1010" on="0"/>
        <pt x="188" y="839" on="1"/>
        <pt x="188" y="619" on="1"/>
        <pt x="188" y="447" on="0"/>
        <pt x="306" y="182" on="0"/>
        <pt x="530" y="34" on="0"/>
        <pt x="683" y="34" on="1"/>
      </contour>
    </TTGlyph>
    <TTGlyph name="Q.smcp" xMin="113" yMin="-208" xMax="1061" yMax="1181">
      <contour>
        <pt x="1061" y="335" on="0"/>
        <pt x="926" y="89" on="0"/>
        <pt x="804" y="30" on="1"/>
        <pt x="1029" y="-171" on="1"/>
        <pt x="991" y="-208" on="1"/>
        <pt x="746" y="8" on="1"/>
        <pt x="674" y="-16" on="0"/>
        <pt x="587" y="-16" on="1"/>
        <pt x="445" y="-16" on="0"/>
        <pt x="230" y="113" on="0"/>
        <pt x="113" y="348" on="0"/>
        <pt x="113" y="502" on="1"/>
        <pt x="113" y="662" on="1"/>
        <pt x="113" y="816" on="0"/>
        <pt x="229" y="1052" on="0"/>
        <pt x="444" y="1181" on="0"/>
        <pt x="586" y="1181" on="1"/>
        <pt x="729" y="1181" on="0"/>
        <pt x="944" y="1052" on="0"/>
        <pt x="1061" y="816" on="0"/>
        <pt x="1061" y="662" on="1"/>
        <pt x="1061" y="502" on="1"/>
      </contour>
      <contour>
        <pt x="718" y="38" on="0"/>
        <pt x="908" y="154" on="0"/>
        <pt x="1007" y="364" on="0"/>
        <pt x="1007" y="502" on="1"/>
        <pt x="1007" y="664" on="1"/>
        <pt x="1007" y="801" on="0"/>
        <pt x="907" y="1010" on="0"/>
        <pt x="717" y="1126" on="0"/>
        <pt x="586" y="1126" on="1"/>
        <pt x="456" y="1126" on="0"/>
        <pt x="268" y="1010" on="0"/>
        <pt x="168" y="801" on="0"/>
        <pt x="168" y="664" on="1"/>
        <pt x="168" y="502" on="1"/>
        <pt x="168" y="364" on="0"/>
        <pt x="268" y="154" on="0"/>
        <pt x="457" y="38" on="0"/>
        <pt x="587" y="38" on="1"/>
      </contour>
    </TTGlyph>
    <TTGlyph name="Q.ss06" xMin="130" yMin="-243" xMax="1288" yMax="1477">
      <contour>
        <pt x="1288" y="553" on="0"/>
        <pt x="1210" y="298" on="0"/>
        <pt x="1068" y="106" on="0"/>
        <pt x="971" y="49" on="1"/>
        <pt x="1270" y="-208" on="1"/>
        <pt x="1231" y="-243" on="1"/>
        <pt x="918" y="22" on="1"/>
        <pt x="820" y="-21" on="0"/>
        <pt x="710" y="-21" on="1"/>
        <pt x="545" y="-21" on="0"/>
        <pt x="280" y="165" on="0"/>
        <pt x="130" y="494" on="0"/>
        <pt x="130" y="699" on="1"/>
        <pt x="130" y="747" on="1"/>
        <pt x="130" y="953" on="0"/>
        <pt x="280" y="1286" on="0"/>
        <pt x="544" y="1477" on="0"/>
        <pt x="708" y="1477" on="1"/>
        <pt x="873" y="1477" on="0"/>
        <pt x="1138" y="1286" on="0"/>
        <pt x="1288" y="953" on="0"/>
        <pt x="1288" y="747" on="1"/>
        <pt x="1288" y="699" on="1"/>
      </contour>
      <contour>
        <pt x="864" y="33" on="0"/>
        <pt x="1102" y="207" on="0"/>
        <pt x="1234" y="510" on="0"/>
        <pt x="1234" y="699" on="1"/>
        <pt x="1234" y="749" on="1"/>
        <pt x="1234" y="937" on="0"/>
        <pt x="1101" y="1245" on="0"/>
        <pt x="862" y="1423" on="0"/>
        <pt x="708" y="1423" on="1"/>
        <pt x="555" y="1423" on="0"/>
        <pt x="317" y="1245" on="0"/>
        <pt x="185" y="937" on="0"/>
        <pt x="185" y="749" on="1"/>
        <pt x="185" y="699" on="1"/>
        <pt x="185" y="511" on="0"/>
        <pt x="318" y="207" on="0"/>
        <pt x="557" y="33" on="0"/>
        <pt x="710" y="33" on="1"/>
      </contour>
    </TTGlyph>
    <TTGlyph name="R" xMin="195" yMin="0" xMax="1198" yMax="1456">
      <contour>
        <pt x="1198" y="14" on="1"/>
        <pt x="1198" y="0" on="1"/>
        <pt x="1141" y="0" on="1"/>
        <pt x="754" y="623" on="1"/>
        <pt x="249" y="623" on="1"/>
        <pt x="249" y="0" on="1"/>
        <pt x="195" y="0" on="1"/>
        <pt x="195" y="1456" on="1"/>
        <pt x="659" y="1456" on="1"/>
        <pt x="799" y="1456" on="0"/>
        <pt x="1015" y="1358" on="0"/>
        <pt x="1137" y="1168" on="0"/>
        <pt x="1137" y="1036" on="1"/>
        <pt x="1137" y="935" on="0"/>
        <pt x="1050" y="765" on="0"/>
        <pt x="901" y="654" on="0"/>
        <pt x="809" y="637" on="1"/>
      </contour>
      <contour>
        <pt x="708" y="677" on="1"/>
        <pt x="827" y="677" on="0"/>
        <pt x="997" y="778" on="0"/>
        <pt x="1083" y="942" on="0"/>
        <pt x="1083" y="1036" on="1"/>
        <pt x="1083" y="1149" on="0"/>
        <pt x="979" y="1314" on="0"/>
        <pt x="788" y="1402" on="0"/>
        <pt x="659" y="1402" on="1"/>
        <pt x="249" y="1402" on="1"/>
        <pt x="249" y="677" on="1"/>
      </contour>
    </TTGlyph>
    <TTGlyph name="R.alt" xMin="195" yMin="-1" xMax="1202" yMax="1455">
      <contour>
        <pt x="1131" y="90" on="0"/>
        <pt x="1202" y="24" on="1"/>
        <pt x="1202" y="-1" on="1"/>
        <pt x="1149" y="-1" on="1"/>
        <pt x="1114" y="40" on="0"/>
        <pt x="1077" y="161" on="0"/>
        <pt x="1077" y="236" on="1"/>
        <pt x="1077" y="369" on="1"/>
        <pt x="1077" y="518" on="0"/>
        <pt x="880" y="683" on="0"/>
        <pt x="692" y="683" on="1"/>
        <pt x="249" y="683" on="1"/>
        <pt x="249" y="-1" on="1"/>
        <pt x="195" y="-1" on="1"/>
        <pt x="195" y="1455" on="1"/>
        <pt x="659" y="1455" on="1"/>
        <pt x="890" y="1455" on="0"/>
        <pt x="1137" y="1257" on="0"/>
        <pt x="1137" y="1065" on="1"/>
        <pt x="1137" y="986" on="0"/>
        <pt x="1068" y="839" on="0"/>
        <pt x="936" y="731" on="0"/>
        <pt x="844" y="711" on="1"/>
        <pt x="1000" y="685" on="0"/>
        <pt x="1131" y="510" on="0"/>
        <pt x="1131" y="371" on="1"/>
        <pt x="1131" y="234" on="1"/>
      </contour>
      <contour>
        <pt x="802" y="737" on="0"/>
        <pt x="996" y="828" on="0"/>
        <pt x="1083" y="976" on="0"/>
        <pt x="1083" y="1065" on="1"/>
        <pt x="1083" y="1229" on="0"/>
        <pt x="870" y="1401" on="0"/>
        <pt x="659" y="1401" on="1"/>
        <pt x="249" y="1401" on="1"/>
        <pt x="249" y="737" on="1"/>
        <pt x="649" y="737" on="1"/>
      </contour>
    </TTGlyph>
    <TTGlyph name="R.smcp" xMin="166" yMin="0" xMax="1031" yMax="1165">
      <contour>
        <pt x="1031" y="10" on="1"/>
        <pt x="1031" y="0" on="1"/>
        <pt x="974" y="0" on="1"/>
        <pt x="647" y="487" on="1"/>
        <pt x="220" y="487" on="1"/>
        <pt x="220" y="0" on="1"/>
        <pt x="166" y="0" on="1"/>
        <pt x="166" y="1165" on="1"/>
        <pt x="566" y="1165" on="1"/>
        <pt x="687" y="1165" on="0"/>
        <pt x="874" y="1082" on="0"/>
        <pt x="979" y="925" on="0"/>
        <pt x="979" y="818" on="1"/>
        <pt x="979" y="739" on="0"/>
        <pt x="906" y="605" on="0"/>
        <pt x="780" y="515" on="0"/>
        <pt x="701" y="500" on="1"/>
      </contour>
      <contour>
        <pt x="605" y="541" on="1"/>
        <pt x="707" y="541" on="0"/>
        <pt x="851" y="618" on="0"/>
        <pt x="924" y="745" on="0"/>
        <pt x="924" y="818" on="1"/>
        <pt x="924" y="906" on="0"/>
        <pt x="837" y="1038" on="0"/>
        <pt x="675" y="1110" on="0"/>
        <pt x="566" y="1110" on="1"/>
        <pt x="220" y="1110" on="1"/>
        <pt x="220" y="541" on="1"/>
      </contour>
    </TTGlyph>
    <TTGlyph name="S" xMin="96" yMin="-20" xMax="1127" yMax="1476">
      <contour>
        <pt x="458" y="763" on="0"/>
        <pt x="255" y="859" on="0"/>
        <pt x="143" y="1007" on="0"/>
        <pt x="143" y="1120" on="1"/>
        <pt x="143" y="1228" on="0"/>
        <pt x="268" y="1390" on="0"/>
        <pt x="488" y="1476" on="0"/>
        <pt x="626" y="1476" on="1"/>
        <pt x="766" y="1476" on="0"/>
        <pt x="987" y="1368" on="0"/>
        <pt x="1111" y="1173" on="0"/>
        <pt x="1111" y="1046" on="1"/>
        <pt x="1057" y="1046" on="1"/>
        <pt x="1057" y="1153" on="0"/>
        <pt x="949" y="1324" on="0"/>
        <pt x="753" y="1422" on="0"/>
        <pt x="626" y="1422" on="1"/>
        <pt x="493" y="1422" on="0"/>
        <pt x="299" y="1340" on="0"/>
        <pt x="197" y="1203" on="0"/>
        <pt x="197" y="1122" on="1"/>
        <pt x="197" y="1040" on="0"/>
        <pt x="275" y="917" on="0"/>
        <pt x="468" y="814" on="0"/>
        <pt x="638" y="770" on="1"/>
        <pt x="797" y="729" on="0"/>
        <pt x="1007" y="627" on="0"/>
        <pt x="1127" y="468" on="0"/>
        <pt x="1127" y="351" on="1"/>
        <pt x="1127" y="236" on="0"/>
        <pt x="996" y="68" on="0"/>
        <pt x="771" y="-20" on="0"/>
        <pt x="633" y="-20" on="1"/>
        <pt x="496" y="-20" on="0"/>
        <pt x="253" y="65" on="0"/>
        <pt x="96" y="258" on="0"/>
        <pt x="96" y="411" on="1"/>
        <pt x="150" y="411" on="1"/>
        <pt x="150" y="275" on="0"/>
        <pt x="296" y="106" on="0"/>
        <pt x="515" y="34" on="0"/>
        <pt x="633" y="34" on="1"/>
        <pt x="760" y="34" on="0"/>
        <pt x="960" y="114" on="0"/>
        <pt x="1072" y="257" on="0"/>
        <pt x="1072" y="349" on="1"/>
        <pt x="1072" y="442" on="0"/>
        <pt x="985" y="572" on="0"/>
        <pt x="791" y="672" on="0"/>
        <pt x="623" y="718" on="1"/>
      </contour>
    </TTGlyph>
    <TTGlyph name="S.smcp" xMin="82" yMin="-16" xMax="969" yMax="1181">
      <contour>
        <pt x="395" y="601" on="0"/>
        <pt x="218" y="680" on="0"/>
        <pt x="122" y="801" on="0"/>
        <pt x="122" y="891" on="1"/>
        <pt x="122" y="979" on="0"/>
        <pt x="230" y="1110" on="0"/>
        <pt x="418" y="1181" on="0"/>
        <pt x="537" y="1181" on="1"/>
        <pt x="659" y="1181" on="0"/>
        <pt x="849" y="1093" on="0"/>
        <pt x="956" y="935" on="0"/>
        <pt x="956" y="835" on="1"/>
        <pt x="902" y="835" on="1"/>
        <pt x="902" y="918" on="0"/>
        <pt x="812" y="1051" on="0"/>
        <pt x="646" y="1126" on="0"/>
        <pt x="537" y="1126" on="1"/>
        <pt x="425" y="1126" on="0"/>
        <pt x="261" y="1063" on="0"/>
        <pt x="175" y="956" on="0"/>
        <pt x="175" y="893" on="1"/>
        <pt x="175" y="830" on="0"/>
        <pt x="242" y="734" on="0"/>
        <pt x="406" y="654" on="0"/>
        <pt x="550" y="620" on="1"/>
        <pt x="685" y="587" on="0"/>
        <pt x="867" y="504" on="0"/>
        <pt x="969" y="375" on="0"/>
        <pt x="969" y="282" on="1"/>
        <pt x="969" y="190" on="0"/>
        <pt x="856" y="55" on="0"/>
        <pt x="663" y="-16" on="0"/>
        <pt x="544" y="-16" on="1"/>
        <pt x="427" y="-16" on="0"/>
        <pt x="217" y="53" on="0"/>
        <pt x="82" y="208" on="0"/>
        <pt x="82" y="329" on="1"/>
        <pt x="135" y="329" on="1"/>
        <pt x="135" y="225" on="0"/>
        <pt x="258" y="94" on="0"/>
        <pt x="444" y="37" on="0"/>
        <pt x="544" y="37" on="1"/>
        <pt x="651" y="37" on="0"/>
        <pt x="820" y="99" on="0"/>
        <pt x="914" y="209" on="0"/>
        <pt x="914" y="281" on="1"/>
        <pt x="914" y="353" on="0"/>
        <pt x="841" y="454" on="0"/>
        <pt x="676" y="532" on="0"/>
        <pt x="535" y="566" on="1"/>
      </contour>
    </TTGlyph>
    <TTGlyph name="T" xMin="55" yMin="0" xMax="1169" yMax="1456">
      <contour>
        <pt x="1169" y="1402" on="1"/>
        <pt x="639" y="1402" on="1"/>
        <pt x="639" y="0" on="1"/>
        <pt x="585" y="0" on="1"/>
        <pt x="585" y="1402" on="1"/>
        <pt x="55" y="1402" on="1"/>
        <pt x="55" y="1456" on="1"/>
        <pt x="1169" y="1456" on="1"/>
      </contour>
    </TTGlyph>
    <TTGlyph name="T.smcp" xMin="46" yMin="0" xMax="1005" yMax="1165">
      <contour>
        <pt x="1005" y="1110" on="1"/>
        <pt x="553" y="1110" on="1"/>
        <pt x="553" y="0" on="1"/>
        <pt x="499" y="0" on="1"/>
        <pt x="499" y="1110" on="1"/>
        <pt x="46" y="1110" on="1"/>
        <pt x="46" y="1165" on="1"/>
        <pt x="1005" y="1165" on="1"/>
      </contour>
    </TTGlyph>
    <TTGlyph name="Thorn" xMin="200" yMin="0" xMax="1075" yMax="1456">
      <contour>
        <pt x="767" y="1143" on="0"/>
        <pt x="970" y="1039" on="0"/>
        <pt x="1075" y="855" on="0"/>
        <pt x="1075" y="738" on="1"/>
        <pt x="1075" y="620" on="0"/>
        <pt x="970" y="437" on="0"/>
        <pt x="767" y="334" on="0"/>
        <pt x="625" y="334" on="1"/>
        <pt x="254" y="334" on="1"/>
        <pt x="254" y="0" on="1"/>
        <pt x="200" y="0" on="1"/>
        <pt x="200" y="1456" on="1"/>
        <pt x="254" y="1456" on="1"/>
        <pt x="254" y="1143" on="1"/>
        <pt x="625" y="1143" on="1"/>
      </contour>
      <contour>
        <pt x="758" y="388" on="0"/>
        <pt x="936" y="489" on="0"/>
        <pt x="1021" y="648" on="0"/>
        <pt x="1021" y="736" on="1"/>
        <pt x="1021" y="828" on="0"/>
        <pt x="937" y="989" on="0"/>
        <pt x="758" y="1089" on="0"/>
        <pt x="625" y="1089" on="1"/>
        <pt x="254" y="1089" on="1"/>
        <pt x="254" y="388" on="1"/>
        <pt x="625" y="388" on="1"/>
      </contour>
    </TTGlyph>
    <TTGlyph name="Thorn.smcp" xMin="170" yMin="0" xMax="873" yMax="1165">
      <contour>
        <pt x="597" y="938" on="0"/>
        <pt x="780" y="853" on="0"/>
        <pt x="873" y="698" on="0"/>
        <pt x="873" y="595" on="1"/>
        <pt x="873" y="437" on="0"/>
        <pt x="664" y="260" on="0"/>
        <pt x="466" y="260" on="1"/>
        <pt x="224" y="260" on="1"/>
        <pt x="224" y="0" on="1"/>
        <pt x="170" y="0" on="1"/>
        <pt x="170" y="1165" on="1"/>
        <pt x="224" y="1165" on="1"/>
        <pt x="224" y="938" on="1"/>
        <pt x="466" y="938" on="1"/>
      </contour>
      <contour>
        <pt x="586" y="315" on="0"/>
        <pt x="744" y="388" on="0"/>
        <pt x="818" y="513" on="0"/>
        <pt x="818" y="594" on="1"/>
        <pt x="818" y="677" on="0"/>
        <pt x="744" y="807" on="0"/>
        <pt x="586" y="883" on="0"/>
        <pt x="466" y="883" on="1"/>
        <pt x="224" y="883" on="1"/>
        <pt x="224" y="315" on="1"/>
        <pt x="466" y="315" on="1"/>
      </contour>
    </TTGlyph>
    <TTGlyph name="U" xMin="185" yMin="-20" xMax="1180" yMax="1456">
      <contour>
        <pt x="1180" y="469" on="1"/>
        <pt x="1180" y="310" on="0"/>
        <pt x="1052" y="90" on="0"/>
        <pt x="828" y="-20" on="0"/>
        <pt x="683" y="-20" on="1"/>
        <pt x="538" y="-20" on="0"/>
        <pt x="313" y="90" on="0"/>
        <pt x="185" y="310" on="0"/>
        <pt x="185" y="469" on="1"/>
        <pt x="185" y="1456" on="1"/>
        <pt x="239" y="1456" on="1"/>
        <pt x="239" y="469" on="1"/>
        <pt x="239" y="332" on="0"/>
        <pt x="354" y="136" on="0"/>
        <pt x="556" y="34" on="0"/>
        <pt x="683" y="34" on="1"/>
        <pt x="810" y="34" on="0"/>
        <pt x="1011" y="136" on="0"/>
        <pt x="1126" y="332" on="0"/>
        <pt x="1126" y="469" on="1"/>
        <pt x="1126" y="1456" on="1"/>
        <pt x="1180" y="1456" on="1"/>
      </contour>
    </TTGlyph>
    <TTGlyph name="U.smcp" xMin="157" yMin="-16" xMax="1015" yMax="1165">
      <contour>
        <pt x="1015" y="375" on="1"/>
        <pt x="1015" y="248" on="0"/>
        <pt x="904" y="72" on="0"/>
        <pt x="710" y="-16" on="0"/>
        <pt x="586" y="-16" on="1"/>
        <pt x="461" y="-16" on="0"/>
        <pt x="267" y="72" on="0"/>
        <pt x="157" y="248" on="0"/>
        <pt x="157" y="375" on="1"/>
        <pt x="157" y="1165" on="1"/>
        <pt x="210" y="1165" on="1"/>
        <pt x="210" y="375" on="1"/>
        <pt x="210" y="268" on="0"/>
        <pt x="307" y="116" on="0"/>
        <pt x="478" y="37" on="0"/>
        <pt x="586" y="37" on="1"/>
        <pt x="694" y="37" on="0"/>
        <pt x="864" y="116" on="0"/>
        <pt x="961" y="268" on="0"/>
        <pt x="961" y="375" on="1"/>
        <pt x="961" y="1165" on="1"/>
        <pt x="1015" y="1165" on="1"/>
      </contour>
    </TTGlyph>
    <TTGlyph name="Uacute" xMin="185" yMin="-20" xMax="1180" yMax="1855">
      <component glyphName=".ttfautohint" x="185" y="0" flags="0x0"/>
      <component glyphName="U" x="0" y="0" flags="0x0"/>
      <component glyphName="acutecomb" x="1225" y="319" flags="0x4"/>
    </TTGlyph>
    <TTGlyph name="Uacute.smcp" xMin="157" yMin="-16" xMax="1015" yMax="1563">
      <component glyphName=".ttfautohint" x="157" y="0" flags="0x0"/>
      <component glyphName="U.smcp" x="0" y="0" flags="0x0"/>
      <component glyphName="acutecomb" x="1126" y="27" flags="0x4"/>
    </TTGlyph>
    <TTGlyph name="Ucircumflex" xMin="185" yMin="-20" xMax="1180" yMax="1836">
      <component glyphName=".ttfautohint" x="185" y="0" flags="0x0"/>
      <component glyphName="U" x="0" y="0" flags="0x0"/>
      <component glyphName="circumflex" x="295" y="319" flags="0x4"/>
    </TTGlyph>
    <TTGlyph name="Ucircumflex.smcp" xMin="157" yMin="-16" xMax="1015" yMax="1544">
      <component glyphName=".ttfautohint" x="157" y="0" flags="0x0"/>
      <component glyphName="U.smcp" x="0" y="0" flags="0x0"/>
      <component glyphName="circumflex" x="196" y="27" flags="0x4"/>
    </TTGlyph>
    <TTGlyph name="Udieresis" xMin="185" yMin="-20" xMax="1180" yMax="1796">
      <component glyphName=".ttfautohint" x="185" y="0" flags="0x0"/>
      <component glyphName="U" x="0" y="0" flags="0x0"/>
      <component glyphName="dieresis" x="247" y="319" flags="0x4"/>
    </TTGlyph>
    <TTGlyph name="Udieresis.smcp" xMin="157" yMin="-16" xMax="1015" yMax="1504">
      <component glyphName=".ttfautohint" x="157" y="0" flags="0x0"/>
      <component glyphName="U.smcp" x="0" y="0" flags="0x0"/>
      <component glyphName="dieresis" x="148" y="27" flags="0x4"/>
    </TTGlyph>
    <TTGlyph name="Ugrave" xMin="185" yMin="-20" xMax="1180" yMax="1855">
      <component glyphName=".ttfautohint" x="185" y="0" flags="0x0"/>
      <component glyphName="U" x="0" y="0" flags="0x0"/>
      <component glyphName="gravecomb" x="1241" y="319" flags="0x4"/>
    </TTGlyph>
    <TTGlyph name="Ugrave.smcp" xMin="157" yMin="-16" xMax="1015" yMax="1563">
      <component glyphName=".ttfautohint" x="157" y="0" flags="0x0"/>
      <component glyphName="U.smcp" x="0" y="0" flags="0x0"/>
      <component glyphName="gravecomb" x="1142" y="27" flags="0x4"/>
    </TTGlyph>
    <TTGlyph name="V" xMin="35" yMin="0" xMax="1189" yMax="1456">
      <contour>
        <pt x="1189" y="1456" on="1"/>
        <pt x="645" y="0" on="1"/>
        <pt x="579" y="0" on="1"/>
        <pt x="35" y="1456" on="1"/>
        <pt x="94" y="1456" on="1"/>
        <pt x="583" y="142" on="1"/>
        <pt x="612" y="54" on="1"/>
        <pt x="641" y="142" on="1"/>
        <pt x="1130" y="1456" on="1"/>
      </contour>
    </TTGlyph>
    <TTGlyph name="V.smcp" xMin="29" yMin="0" xMax="1027" yMax="1165">
      <contour>
        <pt x="1027" y="1165" on="1"/>
        <pt x="559" y="0" on="1"/>
        <pt x="497" y="0" on="1"/>
        <pt x="29" y="1165" on="1"/>
        <pt x="89" y="1165" on="1"/>
        <pt x="503" y="137" on="1"/>
        <pt x="528" y="57" on="1"/>
        <pt x="554" y="137" on="1"/>
        <pt x="968" y="1165" on="1"/>
      </contour>
    </TTGlyph>
    <TTGlyph name="W" xMin="61" yMin="0" xMax="1793" yMax="1456">
      <contour>
        <pt x="1793" y="1456" on="1"/>
        <pt x="1401" y="0" on="1"/>
        <pt x="1340" y="0" on="1"/>
        <pt x="979" y="1214" on="1"/>
        <pt x="929" y="1368" on="1"/>
        <pt x="879" y="1214" on="1"/>
        <pt x="515" y="0" on="1"/>
        <pt x="454" y="0" on="1"/>
        <pt x="61" y="1456" on="1"/>
        <pt x="121" y="1456" on="1"/>
        <pt x="423" y="330" on="1"/>
        <pt x="489" y="91" on="1"/>
        <pt x="555" y="330" on="1"/>
        <pt x="899" y="1456" on="1"/>
        <pt x="959" y="1456" on="1"/>
        <pt x="1301" y="330" on="1"/>
        <pt x="1366" y="90" on="1"/>
        <pt x="1434" y="330" on="1"/>
        <pt x="1734" y="1456" on="1"/>
      </contour>
    </TTGlyph>
    <TTGlyph name="W.smcp" xMin="52" yMin="0" xMax="1540" yMax="1165">
      <contour>
        <pt x="1540" y="1165" on="1"/>
        <pt x="1206" y="0" on="1"/>
        <pt x="1147" y="0" on="1"/>
        <pt x="798" y="1082" on="1"/>
        <pt x="757" y="952" on="1"/>
        <pt x="446" y="0" on="1"/>
        <pt x="388" y="0" on="1"/>
        <pt x="52" y="1165" on="1"/>
        <pt x="111" y="1165" on="1"/>
        <pt x="366" y="282" on="1"/>
        <pt x="421" y="84" on="1"/>
        <pt x="476" y="278" on="1"/>
        <pt x="770" y="1165" on="1"/>
        <pt x="827" y="1165" on="1"/>
        <pt x="1117" y="278" on="1"/>
        <pt x="1173" y="82" on="1"/>
        <pt x="1229" y="282" on="1"/>
        <pt x="1483" y="1165" on="1"/>
      </contour>
    </TTGlyph>
    <TTGlyph name="X" xMin="54" yMin="0" xMax="1168" yMax="1456">
      <contour>
        <pt x="1081" y="1456" on="1"/>
        <pt x="1149" y="1456" on="1"/>
        <pt x="645" y="743" on="1"/>
        <pt x="1168" y="0" on="1"/>
        <pt x="1101" y="0" on="1"/>
        <pt x="611" y="701" on="1"/>
        <pt x="119" y="0" on="1"/>
        <pt x="54" y="0" on="1"/>
        <pt x="577" y="743" on="1"/>
        <pt x="73" y="1456" on="1"/>
        <pt x="141" y="1456" on="1"/>
        <pt x="611" y="785" on="1"/>
      </contour>
    </TTGlyph>
    <TTGlyph name="X.smcp" xMin="46" yMin="0" xMax="1009" yMax="1165">
      <contour>
        <pt x="924" y="1165" on="1"/>
        <pt x="992" y="1165" on="1"/>
        <pt x="561" y="593" on="1"/>
        <pt x="1009" y="0" on="1"/>
        <pt x="943" y="0" on="1"/>
        <pt x="526" y="547" on="1"/>
        <pt x="111" y="0" on="1"/>
        <pt x="46" y="0" on="1"/>
        <pt x="494" y="593" on="1"/>
        <pt x="62" y="1165" on="1"/>
        <pt x="129" y="1165" on="1"/>
        <pt x="526" y="638" on="1"/>
      </contour>
    </TTGlyph>
    <TTGlyph name="Y" xMin="33" yMin="0" xMax="1185" yMax="1456">
      <contour>
        <pt x="1119" y="1456" on="1"/>
        <pt x="1185" y="1456" on="1"/>
        <pt x="636" y="553" on="1"/>
        <pt x="636" y="0" on="1"/>
        <pt x="582" y="0" on="1"/>
        <pt x="582" y="553" on="1"/>
        <pt x="33" y="1456" on="1"/>
        <pt x="105" y="1456" on="1"/>
        <pt x="609" y="602" on="1"/>
      </contour>
    </TTGlyph>
    <TTGlyph name="Y.smcp" xMin="30" yMin="0" xMax="1020" yMax="1165">
      <contour>
        <pt x="552" y="438" on="1"/>
        <pt x="552" y="0" on="1"/>
        <pt x="497" y="0" on="1"/>
        <pt x="497" y="439" on="1"/>
        <pt x="30" y="1165" on="1"/>
        <pt x="95" y="1165" on="1"/>
        <pt x="507" y="509" on="1"/>
        <pt x="524" y="477" on="1"/>
        <pt x="542" y="510" on="1"/>
        <pt x="955" y="1165" on="1"/>
        <pt x="1020" y="1165" on="1"/>
      </contour>
    </TTGlyph>
    <TTGlyph name="Yacute" xMin="33" yMin="0" xMax="1185" yMax="1844">
      <component glyphName=".ttfautohint" x="33" y="0" flags="0x0"/>
      <component glyphName="Y" x="0" y="0" flags="0x0"/>
      <component glyphName="acutecomb" x="1136" y="308" flags="0x4"/>
    </TTGlyph>
    <TTGlyph name="Yacute.smcp" xMin="30" yMin="0" xMax="1020" yMax="1563">
      <component glyphName=".ttfautohint" x="30" y="0" flags="0x0"/>
      <component glyphName="Y.smcp" x="0" y="0" flags="0x0"/>
      <component glyphName="acutecomb" x="1051" y="27" flags="0x4"/>
    </TTGlyph>
    <TTGlyph name="Z" xMin="94" yMin="0" xMax="1130" yMax="1456">
      <contour>
        <pt x="1130" y="54" on="1"/>
        <pt x="1130" y="0" on="1"/>
        <pt x="94" y="0" on="1"/>
        <pt x="94" y="44" on="1"/>
        <pt x="1023" y="1403" on="1"/>
        <pt x="134" y="1403" on="1"/>
        <pt x="134" y="1456" on="1"/>
        <pt x="1098" y="1456" on="1"/>
        <pt x="1098" y="1418" on="1"/>
        <pt x="168" y="54" on="1"/>
      </contour>
    </TTGlyph>
    <TTGlyph name="Z.smcp" xMin="80" yMin="0" xMax="972" yMax="1165">
      <contour>
        <pt x="972" y="54" on="1"/>
        <pt x="972" y="0" on="1"/>
        <pt x="80" y="0" on="1"/>
        <pt x="80" y="46" on="1"/>
        <pt x="866" y="1111" on="1"/>
        <pt x="113" y="1111" on="1"/>
        <pt x="113" y="1165" on="1"/>
        <pt x="944" y="1165" on="1"/>
        <pt x="944" y="1123" on="1"/>
        <pt x="156" y="54" on="1"/>
      </contour>
    </TTGlyph>
    <TTGlyph name="a" xMin="92" yMin="-20" xMax="933" yMax="1102">
      <contour>
        <pt x="905" y="157" on="0"/>
        <pt x="920" y="41" on="0"/>
        <pt x="933" y="9" on="1"/>
        <pt x="933" y="0" on="1"/>
        <pt x="871" y="0" on="1"/>
        <pt x="851" y="73" on="0"/>
        <pt x="851" y="198" on="1"/>
        <pt x="792" y="102" on="0"/>
        <pt x="576" y="-20" on="0"/>
        <pt x="425" y="-20" on="1"/>
        <pt x="326" y="-20" on="0"/>
        <pt x="174" y="55" on="0"/>
        <pt x="92" y="188" on="0"/>
        <pt x="92" y="274" on="1"/>
        <pt x="92" y="371" on="0"/>
        <pt x="212" y="520" on="0"/>
        <pt x="438" y="604" on="0"/>
        <pt x="592" y="604" on="1"/>
        <pt x="851" y="604" on="1"/>
        <pt x="851" y="762" on="1"/>
        <pt x="851" y="898" on="0"/>
        <pt x="679" y="1048" on="0"/>
        <pt x="521" y="1048" on="1"/>
        <pt x="424" y="1048" on="0"/>
        <pt x="266" y="979" on="0"/>
        <pt x="175" y="858" on="0"/>
        <pt x="175" y="784" on="1"/>
        <pt x="121" y="786" on="1"/>
        <pt x="121" y="870" on="0"/>
        <pt x="225" y="1015" on="0"/>
        <pt x="408" y="1102" on="0"/>
        <pt x="521" y="1102" on="1"/>
        <pt x="635" y="1102" on="0"/>
        <pt x="808" y="1025" on="0"/>
        <pt x="905" y="871" on="0"/>
        <pt x="905" y="760" on="1"/>
        <pt x="905" y="218" on="1"/>
      </contour>
      <contour>
        <pt x="578" y="33" on="0"/>
        <pt x="796" y="170" on="0"/>
        <pt x="851" y="292" on="1"/>
        <pt x="851" y="549" on="1"/>
        <pt x="595" y="549" on="1"/>
        <pt x="458" y="549" on="0"/>
        <pt x="255" y="478" on="0"/>
        <pt x="146" y="352" on="0"/>
        <pt x="146" y="270" on="1"/>
        <pt x="146" y="205" on="0"/>
        <pt x="217" y="96" on="0"/>
        <pt x="345" y="33" on="0"/>
        <pt x="425" y="33" on="1"/>
      </contour>
    </TTGlyph>
    <TTGlyph name="aacute" xMin="92" yMin="-20" xMax="933" yMax="1535">
      <component glyphName=".ttfautohint" x="92" y="0" flags="0x0"/>
      <component glyphName="a" x="0" y="0" flags="0x0"/>
      <component glyphName="acutecomb" x="1105" y="-1" flags="0x4"/>
    </TTGlyph>
    <TTGlyph name="acircumflex" xMin="92" yMin="-20" xMax="933" yMax="1516">
      <component glyphName=".ttfautohint" x="92" y="0" flags="0x0"/>
      <component glyphName="a" x="0" y="0" flags="0x0"/>
      <component glyphName="circumflex" x="175" y="-1" flags="0x4"/>
    </TTGlyph>
    <TTGlyph name="acute" xMin="126" yMin="1270" xMax="381" yMax="1536">
      <contour>
        <pt x="381" y="1536" on="1"/>
        <pt x="186" y="1270" on="1"/>
        <pt x="126" y="1270" on="1"/>
        <pt x="315" y="1536" on="1"/>
      </contour>
    </TTGlyph>
    <TTGlyph name="acutecomb" xMin="-574" yMin="1270" xMax="-319" yMax="1536">
      <contour>
        <pt x="-319" y="1536" on="1"/>
        <pt x="-514" y="1270" on="1"/>
        <pt x="-574" y="1270" on="1"/>
        <pt x="-385" y="1536" on="1"/>
      </contour>
    </TTGlyph>
    <TTGlyph name="adieresis" xMin="92" yMin="-20" xMax="933" yMax="1476">
      <component glyphName=".ttfautohint" x="92" y="0" flags="0x0"/>
      <component glyphName="a" x="0" y="0" flags="0x0"/>
      <component glyphName="dieresis" x="127" y="-1" flags="0x4"/>
    </TTGlyph>
    <TTGlyph name="ae" xMin="93" yMin="-20" xMax="1657" yMax="1102">
      <contour>
        <pt x="870" y="564" on="1"/>
        <pt x="870" y="500" on="1"/>
        <pt x="870" y="366" on="0"/>
        <pt x="955" y="156" on="0"/>
        <pt x="1133" y="34" on="0"/>
        <pt x="1268" y="34" on="1"/>
        <pt x="1371" y="34" on="0"/>
        <pt x="1540" y="103" on="0"/>
        <pt x="1600" y="164" on="1"/>
        <pt x="1630" y="122" on="1"/>
        <pt x="1566" y="57" on="0"/>
        <pt x="1399" y="-20" on="0"/>
        <pt x="1268" y="-20" on="1"/>
        <pt x="1125" y="-20" on="0"/>
        <pt x="921" y="112" on="0"/>
        <pt x="868" y="230" on="1"/>
        <pt x="868" y="218" on="1"/>
        <pt x="869" y="218" on="1"/>
        <pt x="842" y="159" on="0"/>
        <pt x="730" y="51" on="0"/>
        <pt x="557" y="-20" on="0"/>
        <pt x="448" y="-20" on="1"/>
        <pt x="336" y="-20" on="0"/>
        <pt x="176" y="55" on="0"/>
        <pt x="93" y="192" on="0"/>
        <pt x="93" y="284" on="1"/>
        <pt x="93" y="388" on="0"/>
        <pt x="192" y="544" on="0"/>
        <pt x="385" y="630" on="0"/>
        <pt x="523" y="630" on="1"/>
        <pt x="813" y="630" on="1"/>
        <pt x="813" y="720" on="1"/>
        <pt x="813" y="879" on="0"/>
        <pt x="667" y="1048" on="0"/>
        <pt x="521" y="1048" on="1"/>
        <pt x="413" y="1048" on="0"/>
        <pt x="256" y="976" on="0"/>
        <pt x="174" y="851" on="0"/>
        <pt x="174" y="771" on="1"/>
        <pt x="121" y="778" on="1"/>
        <pt x="121" y="871" on="0"/>
        <pt x="219" y="1019" on="0"/>
        <pt x="401" y="1102" on="0"/>
        <pt x="521" y="1102" on="1"/>
        <pt x="660" y="1102" on="0"/>
        <pt x="838" y="956" on="0"/>
        <pt x="861" y="815" on="1"/>
        <pt x="914" y="948" on="0"/>
        <pt x="1122" y="1102" on="0"/>
        <pt x="1253" y="1102" on="1"/>
        <pt x="1378" y="1102" on="0"/>
        <pt x="1560" y="995" on="0"/>
        <pt x="1657" y="796" on="0"/>
        <pt x="1657" y="660" on="1"/>
        <pt x="1657" y="577" on="1"/>
        <pt x="870" y="577" on="1"/>
      </contour>
      <contour>
        <pt x="1147" y="1048" on="0"/>
        <pt x="983" y="940" on="0"/>
        <pt x="885" y="751" on="0"/>
        <pt x="873" y="632" on="1"/>
        <pt x="1603" y="632" on="1"/>
        <pt x="1603" y="664" on="1"/>
        <pt x="1603" y="774" on="0"/>
        <pt x="1523" y="948" on="0"/>
        <pt x="1365" y="1048" on="0"/>
        <pt x="1253" y="1048" on="1"/>
      </contour>
      <contour>
        <pt x="536" y="32" on="0"/>
        <pt x="695" y="96" on="0"/>
        <pt x="800" y="188" on="0"/>
        <pt x="813" y="226" on="1"/>
        <pt x="813" y="575" on="1"/>
        <pt x="525" y="575" on="1"/>
        <pt x="401" y="575" on="0"/>
        <pt x="231" y="496" on="0"/>
        <pt x="148" y="362" on="0"/>
        <pt x="148" y="280" on="1"/>
        <pt x="148" y="163" on="0"/>
        <pt x="304" y="32" on="0"/>
        <pt x="447" y="32" on="1"/>
      </contour>
    </TTGlyph>
    <TTGlyph name="agrave" xMin="92" yMin="-20" xMax="933" yMax="1535">
      <component glyphName=".ttfautohint" x="92" y="0" flags="0x0"/>
      <component glyphName="a" x="0" y="0" flags="0x0"/>
      <component glyphName="gravecomb" x="1121" y="-1" flags="0x4"/>
    </TTGlyph>
    <TTGlyph name="alpha" xMin="122" yMin="-21" xMax="1149" yMax="1102">
      <contour>
        <pt x="1149" y="-7" on="1"/>
        <pt x="1121" y="-21" on="0"/>
        <pt x="1076" y="-21" on="1"/>
        <pt x="989" y="-21" on="0"/>
        <pt x="902" y="91" on="0"/>
        <pt x="897" y="217" on="1"/>
        <pt x="845" y="108" on="0"/>
        <pt x="658" y="-21" on="0"/>
        <pt x="528" y="-21" on="1"/>
        <pt x="402" y="-21" on="0"/>
        <pt x="219" y="112" on="0"/>
        <pt x="122" y="356" on="0"/>
        <pt x="122" y="521" on="1"/>
        <pt x="122" y="542" on="1"/>
        <pt x="122" y="712" on="0"/>
        <pt x="219" y="965" on="0"/>
        <pt x="403" y="1102" on="0"/>
        <pt x="530" y="1102" on="1"/>
        <pt x="660" y="1102" on="0"/>
        <pt x="843" y="961" on="0"/>
        <pt x="896" y="837" on="1"/>
        <pt x="896" y="854" on="1"/>
        <pt x="902" y="1082" on="1"/>
        <pt x="950" y="1082" on="1"/>
        <pt x="950" y="255" on="1"/>
        <pt x="950" y="133" on="0"/>
        <pt x="1014" y="32" on="0"/>
        <pt x="1073" y="32" on="1"/>
        <pt x="1095" y="32" on="0"/>
        <pt x="1134" y="41" on="0"/>
        <pt x="1138" y="42" on="1"/>
      </contour>
      <contour>
        <pt x="676" y="33" on="0"/>
        <pt x="860" y="203" on="0"/>
        <pt x="896" y="343" on="1"/>
        <pt x="896" y="695" on="1"/>
        <pt x="874" y="783" on="0"/>
        <pt x="783" y="942" on="0"/>
        <pt x="633" y="1048" on="0"/>
        <pt x="529" y="1048" on="1"/>
        <pt x="414" y="1048" on="0"/>
        <pt x="256" y="917" on="0"/>
        <pt x="178" y="689" on="0"/>
        <pt x="178" y="542" on="1"/>
        <pt x="178" y="521" on="1"/>
        <pt x="178" y="374" on="0"/>
        <pt x="255" y="155" on="0"/>
        <pt x="412" y="33" on="0"/>
        <pt x="527" y="33" on="1"/>
      </contour>
    </TTGlyph>
    <TTGlyph name="alpha.alt" xMin="122" yMin="-21" xMax="1041" yMax="1102">
      <contour>
        <pt x="981" y="0" on="1"/>
        <pt x="918" y="399" on="1"/>
        <pt x="900" y="289" on="0"/>
        <pt x="796" y="97" on="0"/>
        <pt x="632" y="-21" on="0"/>
        <pt x="528" y="-21" on="1"/>
        <pt x="402" y="-21" on="0"/>
        <pt x="219" y="112" on="0"/>
        <pt x="122" y="356" on="0"/>
        <pt x="122" y="521" on="1"/>
        <pt x="122" y="542" on="1"/>
        <pt x="122" y="712" on="0"/>
        <pt x="219" y="965" on="0"/>
        <pt x="403" y="1102" on="0"/>
        <pt x="530" y="1102" on="1"/>
        <pt x="630" y="1102" on="0"/>
        <pt x="788" y="988" on="0"/>
        <pt x="892" y="797" on="0"/>
        <pt x="916" y="678" on="1"/>
        <pt x="974" y="1082" on="1"/>
        <pt x="1034" y="1082" on="1"/>
        <pt x="946" y="540" on="1"/>
        <pt x="1041" y="0" on="1"/>
      </contour>
      <contour>
        <pt x="886" y="589" on="1"/>
        <pt x="870" y="696" on="0"/>
        <pt x="787" y="904" on="0"/>
        <pt x="637" y="1048" on="0"/>
        <pt x="529" y="1048" on="1"/>
        <pt x="414" y="1048" on="0"/>
        <pt x="256" y="917" on="0"/>
        <pt x="178" y="689" on="0"/>
        <pt x="178" y="542" on="1"/>
        <pt x="178" y="521" on="1"/>
        <pt x="178" y="374" on="0"/>
        <pt x="255" y="155" on="0"/>
        <pt x="412" y="33" on="0"/>
        <pt x="527" y="33" on="1"/>
        <pt x="620" y="33" on="0"/>
        <pt x="770" y="145" on="0"/>
        <pt x="869" y="343" on="0"/>
        <pt x="886" y="469" on="1"/>
      </contour>
    </TTGlyph>
    <TTGlyph name="ampersand" xMin="115" yMin="-20" xMax="1196" yMax="1477">
      <contour>
        <pt x="1129" y="0" on="1"/>
        <pt x="973" y="177" on="1"/>
        <pt x="781" y="-20" on="0"/>
        <pt x="549" y="-20" on="1"/>
        <pt x="416" y="-20" on="0"/>
        <pt x="220" y="71" on="0"/>
        <pt x="115" y="239" on="0"/>
        <pt x="115" y="352" on="1"/>
        <pt x="115" y="466" on="0"/>
        <pt x="250" y="660" on="0"/>
        <pt x="371" y="762" on="1"/>
        <pt x="422" y="803" on="1"/>
        <pt x="338" y="907" on="0"/>
        <pt x="257" y="1077" on="0"/>
        <pt x="257" y="1167" on="1"/>
        <pt x="257" y="1258" on="0"/>
        <pt x="331" y="1398" on="0"/>
        <pt x="470" y="1477" on="0"/>
        <pt x="562" y="1477" on="1"/>
        <pt x="648" y="1477" on="0"/>
        <pt x="773" y="1407" on="0"/>
        <pt x="838" y="1287" on="0"/>
        <pt x="838" y="1213" on="1"/>
        <pt x="838" y="1074" on="0"/>
        <pt x="646" y="918" on="1"/>
        <pt x="495" y="797" on="1"/>
        <pt x="969" y="258" on="1"/>
        <pt x="1024" y="335" on="0"/>
        <pt x="1084" y="524" on="0"/>
        <pt x="1084" y="632" on="1"/>
        <pt x="1139" y="632" on="1"/>
        <pt x="1139" y="393" on="0"/>
        <pt x="1006" y="216" on="1"/>
        <pt x="1196" y="0" on="1"/>
      </contour>
      <contour>
        <pt x="312" y="1012" on="0"/>
        <pt x="462" y="834" on="1"/>
        <pt x="621" y="960" on="1"/>
        <pt x="693" y="1017" on="0"/>
        <pt x="782" y="1145" on="0"/>
        <pt x="782" y="1213" on="1"/>
        <pt x="782" y="1269" on="0"/>
        <pt x="731" y="1365" on="0"/>
        <pt x="631" y="1423" on="0"/>
        <pt x="562" y="1423" on="1"/>
        <pt x="483" y="1423" on="0"/>
        <pt x="370" y="1355" on="0"/>
        <pt x="312" y="1239" on="0"/>
        <pt x="312" y="1169" on="1"/>
      </contour>
      <contour>
        <pt x="659" y="34" on="0"/>
        <pt x="862" y="130" on="0"/>
        <pt x="937" y="217" on="1"/>
        <pt x="488" y="725" on="1"/>
        <pt x="486" y="727" on="0"/>
        <pt x="454" y="765" on="1"/>
        <pt x="402" y="723" on="1"/>
        <pt x="266" y="605" on="0"/>
        <pt x="169" y="430" on="0"/>
        <pt x="169" y="352" on="1"/>
        <pt x="169" y="266" on="0"/>
        <pt x="254" y="122" on="0"/>
        <pt x="425" y="34" on="0"/>
        <pt x="549" y="34" on="1"/>
      </contour>
    </TTGlyph>
    <TTGlyph name="ampersand.smcp" xMin="138" yMin="-20" xMax="1152" yMax="1181">
      <contour>
        <pt x="1079" y="0" on="1"/>
        <pt x="928" y="149" on="1"/>
        <pt x="850" y="68" on="0"/>
        <pt x="634" y="-20" on="0"/>
        <pt x="509" y="-20" on="1"/>
        <pt x="395" y="-20" on="0"/>
        <pt x="227" y="51" on="0"/>
        <pt x="138" y="183" on="0"/>
        <pt x="138" y="272" on="1"/>
        <pt x="138" y="364" on="0"/>
        <pt x="234" y="498" on="0"/>
        <pt x="333" y="571" on="1"/>
        <pt x="429" y="642" on="1"/>
        <pt x="335" y="736" on="0"/>
        <pt x="249" y="867" on="0"/>
        <pt x="249" y="938" on="1"/>
        <pt x="249" y="1010" on="0"/>
        <pt x="312" y="1120" on="0"/>
        <pt x="430" y="1181" on="0"/>
        <pt x="509" y="1181" on="1"/>
        <pt x="589" y="1181" on="0"/>
        <pt x="706" y="1121" on="0"/>
        <pt x="766" y="1018" on="0"/>
        <pt x="766" y="955" on="1"/>
        <pt x="766" y="888" on="0"/>
        <pt x="673" y="761" on="0"/>
        <pt x="614" y="717" on="1"/>
        <pt x="505" y="636" on="1"/>
        <pt x="926" y="222" on="1"/>
        <pt x="978" y="286" on="0"/>
        <pt x="1034" y="443" on="0"/>
        <pt x="1034" y="532" on="1"/>
        <pt x="1089" y="532" on="1"/>
        <pt x="1089" y="437" on="0"/>
        <pt x="1023" y="260" on="0"/>
        <pt x="963" y="186" on="1"/>
        <pt x="1152" y="0" on="1"/>
      </contour>
      <contour>
        <pt x="470" y="671" on="1"/>
        <pt x="589" y="759" on="1"/>
        <pt x="644" y="799" on="0"/>
        <pt x="710" y="900" on="0"/>
        <pt x="710" y="955" on="1"/>
        <pt x="710" y="1001" on="0"/>
        <pt x="663" y="1080" on="0"/>
        <pt x="572" y="1127" on="0"/>
        <pt x="509" y="1127" on="1"/>
        <pt x="445" y="1127" on="0"/>
        <pt x="352" y="1077" on="0"/>
        <pt x="304" y="991" on="0"/>
        <pt x="304" y="940" on="1"/>
        <pt x="304" y="883" on="0"/>
        <pt x="383" y="758" on="0"/>
        <pt x="464" y="677" on="1"/>
      </contour>
      <contour>
        <pt x="620" y="34" on="0"/>
        <pt x="819" y="113" on="0"/>
        <pt x="892" y="185" on="1"/>
        <pt x="479" y="592" on="1"/>
        <pt x="464" y="606" on="1"/>
        <pt x="368" y="535" on="1"/>
        <pt x="293" y="480" on="0"/>
        <pt x="216" y="389" on="0"/>
        <pt x="192" y="315" on="0"/>
        <pt x="192" y="272" on="1"/>
        <pt x="192" y="208" on="0"/>
        <pt x="263" y="100" on="0"/>
        <pt x="406" y="34" on="0"/>
        <pt x="509" y="34" on="1"/>
      </contour>
    </TTGlyph>
    <TTGlyph name="aring" xMin="92" yMin="-20" xMax="933" yMax="1555">
      <component glyphName=".ttfautohint" x="92" y="0" flags="0x0"/>
      <component glyphName="a" x="0" y="0" flags="0x0"/>
      <component glyphName="ring" x="294" y="-1" flags="0x4"/>
    </TTGlyph>
    <TTGlyph name="asciicircum" xMin="91" yMin="729" xMax="741" yMax="1456">
      <contour>
        <pt x="680" y="729" on="1"/>
        <pt x="416" y="1382" on="1"/>
        <pt x="150" y="729" on="1"/>
        <pt x="91" y="729" on="1"/>
        <pt x="390" y="1456" on="1"/>
        <pt x="442" y="1456" on="1"/>
        <pt x="741" y="729" on="1"/>
      </contour>
    </TTGlyph>
    <TTGlyph name="asciitilde" xMin="160" yMin="443" xMax="1246" yMax="774">
      <contour>
        <pt x="1246" y="668" on="0"/>
        <pt x="1185" y="527" on="0"/>
        <pt x="1064" y="443" on="0"/>
        <pt x="977" y="443" on="1"/>
        <pt x="919" y="443" on="0"/>
        <pt x="826" y="476" on="0"/>
        <pt x="741" y="538" on="0"/>
        <pt x="679" y="593" on="1"/>
        <pt x="599" y="665" on="0"/>
        <pt x="496" y="720" on="0"/>
        <pt x="428" y="720" on="1"/>
        <pt x="327" y="720" on="0"/>
        <pt x="215" y="588" on="0"/>
        <pt x="215" y="462" on="1"/>
        <pt x="160" y="462" on="1"/>
        <pt x="160" y="550" on="0"/>
        <pt x="218" y="691" on="0"/>
        <pt x="339" y="774" on="0"/>
        <pt x="428" y="774" on="1"/>
        <pt x="486" y="774" on="0"/>
        <pt x="581" y="739" on="0"/>
        <pt x="667" y="678" on="0"/>
        <pt x="728" y="624" on="1"/>
        <pt x="806" y="553" on="0"/>
        <pt x="913" y="496" on="0"/>
        <pt x="977" y="496" on="1"/>
        <pt x="1080" y="496" on="0"/>
        <pt x="1190" y="633" on="0"/>
        <pt x="1190" y="753" on="1"/>
        <pt x="1246" y="752" on="1"/>
      </contour>
    </TTGlyph>
    <TTGlyph name="asterisk" xMin="30" yMin="661" xMax="832" yMax="1456">
      <contour>
        <pt x="30" y="1141" on="1"/>
        <pt x="48" y="1195" on="1"/>
        <pt x="410" y="1062" on="1"/>
        <pt x="411" y="1456" on="1"/>
        <pt x="467" y="1456" on="1"/>
        <pt x="460" y="1061" on="1"/>
        <pt x="812" y="1204" on="1"/>
        <pt x="832" y="1151" on="1"/>
        <pt x="472" y="1014" on="1"/>
        <pt x="721" y="697" on="1"/>
        <pt x="674" y="664" on="1"/>
        <pt x="432" y="986" on="1"/>
        <pt x="204" y="661" on="1"/>
        <pt x="159" y="693" on="1"/>
        <pt x="393" y="1017" on="1"/>
      </contour>
    </TTGlyph>
    <TTGlyph name="at" xMin="128" yMin="-453" xMax="1769" yMax="1411">
      <contour>
        <pt x="1260" y="1411" on="0"/>
        <pt x="1602" y="1215" on="0"/>
        <pt x="1769" y="849" on="0"/>
        <pt x="1769" y="593" on="1"/>
        <pt x="1769" y="571" on="0"/>
        <pt x="1767" y="523" on="1"/>
        <pt x="1762" y="386" on="0"/>
        <pt x="1679" y="138" on="0"/>
        <pt x="1515" y="-20" on="0"/>
        <pt x="1397" y="-20" on="1"/>
        <pt x="1298" y="-20" on="0"/>
        <pt x="1173" y="102" on="0"/>
        <pt x="1162" y="210" on="1"/>
        <pt x="1052" y="-20" on="0"/>
        <pt x="829" y="-20" on="1"/>
        <pt x="749" y="-20" on="0"/>
        <pt x="634" y="71" on="0"/>
        <pt x="574" y="240" on="0"/>
        <pt x="574" y="354" on="1"/>
        <pt x="574" y="380" on="0"/>
        <pt x="578" y="436" on="1"/>
        <pt x="593" y="602" on="0"/>
        <pt x="714" y="852" on="0"/>
        <pt x="902" y="988" on="0"/>
        <pt x="1015" y="988" on="1"/>
        <pt x="1073" y="988" on="0"/>
        <pt x="1161" y="959" on="0"/>
        <pt x="1222" y="916" on="0"/>
        <pt x="1265" y="878" on="1"/>
        <pt x="1216" y="293" on="1"/>
        <pt x="1214" y="263" on="0"/>
        <pt x="1214" y="250" on="1"/>
        <pt x="1214" y="124" on="0"/>
        <pt x="1331" y="35" on="0"/>
        <pt x="1400" y="35" on="1"/>
        <pt x="1494" y="35" on="0"/>
        <pt x="1630" y="160" on="0"/>
        <pt x="1704" y="380" on="0"/>
        <pt x="1710" y="523" on="1"/>
        <pt x="1712" y="552" on="0"/>
        <pt x="1712" y="607" on="1"/>
        <pt x="1712" y="964" on="0"/>
        <pt x="1361" y="1354" on="0"/>
        <pt x="997" y="1354" on="1"/>
        <pt x="777" y="1354" on="0"/>
        <pt x="417" y="1139" on="0"/>
        <pt x="198" y="742" on="0"/>
        <pt x="184" y="478" on="1"/>
        <pt x="182" y="434" on="0"/>
        <pt x="182" y="414" on="1"/>
        <pt x="182" y="180" on="0"/>
        <pt x="354" y="-188" on="0"/>
        <pt x="683" y="-398" on="0"/>
        <pt x="910" y="-398" on="1"/>
        <pt x="998" y="-398" on="0"/>
        <pt x="1178" y="-354" on="0"/>
        <pt x="1240" y="-318" on="1"/>
        <pt x="1264" y="-364" on="1"/>
        <pt x="1203" y="-405" on="0"/>
        <pt x="999" y="-453" on="0"/>
        <pt x="906" y="-453" on="1"/>
        <pt x="664" y="-453" on="0"/>
        <pt x="314" y="-244" on="0"/>
        <pt x="128" y="147" on="0"/>
        <pt x="128" y="414" on="1"/>
        <pt x="128" y="456" on="0"/>
        <pt x="129" y="478" on="1"/>
        <pt x="141" y="761" on="0"/>
        <pt x="365" y="1183" on="0"/>
        <pt x="751" y="1411" on="0"/>
        <pt x="1001" y="1411" on="1"/>
      </contour>
      <contour>
        <pt x="935" y="34" on="0"/>
        <pt x="1107" y="166" on="0"/>
        <pt x="1165" y="344" on="1"/>
        <pt x="1208" y="851" on="1"/>
        <pt x="1137" y="933" on="0"/>
        <pt x="1012" y="933" on="1"/>
        <pt x="921" y="933" on="0"/>
        <pt x="762" y="825" on="0"/>
        <pt x="650" y="601" on="0"/>
        <pt x="632" y="436" on="1"/>
        <pt x="627" y="384" on="0"/>
        <pt x="627" y="347" on="1"/>
        <pt x="627" y="206" on="0"/>
        <pt x="729" y="34" on="0"/>
        <pt x="827" y="34" on="1"/>
      </contour>
    </TTGlyph>
    <TTGlyph name="atilde" xMin="92" yMin="-20" xMax="933" yMax="1486">
      <component glyphName=".ttfautohint" x="92" y="0" flags="0x0"/>
      <component glyphName="a" x="0" y="0" flags="0x0"/>
      <component glyphName="tilde" x="176" y="14" flags="0x4"/>
    </TTGlyph>
    <TTGlyph name="b" xMin="170" yMin="-20" xMax="999" yMax="1536">
      <contour>
        <pt x="718" y="1102" on="0"/>
        <pt x="902" y="970" on="0"/>
        <pt x="999" y="722" on="0"/>
        <pt x="999" y="552" on="1"/>
        <pt x="999" y="531" on="1"/>
        <pt x="999" y="366" on="0"/>
        <pt x="902" y="117" on="0"/>
        <pt x="719" y="-20" on="0"/>
        <pt x="593" y="-20" on="1"/>
        <pt x="466" y="-20" on="0"/>
        <pt x="278" y="84" on="0"/>
        <pt x="224" y="171" on="1"/>
        <pt x="224" y="0" on="1"/>
        <pt x="170" y="0" on="1"/>
        <pt x="170" y="1536" on="1"/>
        <pt x="224" y="1536" on="1"/>
        <pt x="224" y="886" on="1"/>
        <pt x="278" y="987" on="0"/>
        <pt x="464" y="1102" on="0"/>
        <pt x="591" y="1102" on="1"/>
      </contour>
      <contour>
        <pt x="943" y="552" on="1"/>
        <pt x="943" y="699" on="0"/>
        <pt x="865" y="922" on="0"/>
        <pt x="708" y="1048" on="0"/>
        <pt x="592" y="1048" on="1"/>
        <pt x="434" y="1048" on="0"/>
        <pt x="261" y="887" on="0"/>
        <pt x="224" y="770" on="1"/>
        <pt x="224" y="274" on="1"/>
        <pt x="264" y="165" on="0"/>
        <pt x="450" y="34" on="0"/>
        <pt x="594" y="34" on="1"/>
        <pt x="709" y="34" on="0"/>
        <pt x="866" y="160" on="0"/>
        <pt x="943" y="384" on="0"/>
        <pt x="943" y="531" on="1"/>
      </contour>
    </TTGlyph>
    <TTGlyph name="b.ss06" xMin="170" yMin="-21" xMax="1019" yMax="1536">
      <contour>
        <pt x="719" y="1102" on="0"/>
        <pt x="913" y="969" on="0"/>
        <pt x="1019" y="720" on="0"/>
        <pt x="1019" y="552" on="1"/>
        <pt x="1019" y="531" on="1"/>
        <pt x="1019" y="368" on="0"/>
        <pt x="913" y="117" on="0"/>
        <pt x="720" y="-21" on="0"/>
        <pt x="593" y="-21" on="1"/>
        <pt x="465" y="-21" on="0"/>
        <pt x="276" y="85" on="0"/>
        <pt x="222" y="173" on="1"/>
        <pt x="215" y="0" on="1"/>
        <pt x="170" y="0" on="1"/>
        <pt x="170" y="1536" on="1"/>
        <pt x="224" y="1536" on="1"/>
        <pt x="224" y="886" on="1"/>
        <pt x="278" y="987" on="0"/>
        <pt x="464" y="1102" on="0"/>
        <pt x="591" y="1102" on="1"/>
      </contour>
      <contour>
        <pt x="963" y="552" on="1"/>
        <pt x="963" y="697" on="0"/>
        <pt x="876" y="921" on="0"/>
        <pt x="708" y="1048" on="0"/>
        <pt x="592" y="1048" on="1"/>
        <pt x="434" y="1048" on="0"/>
        <pt x="261" y="887" on="0"/>
        <pt x="224" y="770" on="1"/>
        <pt x="224" y="274" on="1"/>
        <pt x="264" y="165" on="0"/>
        <pt x="450" y="33" on="0"/>
        <pt x="594" y="33" on="1"/>
        <pt x="709" y="33" on="0"/>
        <pt x="876" y="160" on="0"/>
        <pt x="963" y="386" on="0"/>
        <pt x="963" y="531" on="1"/>
      </contour>
    </TTGlyph>
    <TTGlyph name="backslash" xMin="57" yMin="-125" xMax="723" yMax="1456">
      <contour>
        <pt x="115" y="1456" on="1"/>
        <pt x="723" y="-125" on="1"/>
        <pt x="665" y="-125" on="1"/>
        <pt x="57" y="1456" on="1"/>
      </contour>
    </TTGlyph>
    <TTGlyph name="bar" xMin="181" yMin="-270" xMax="235" yMax="1456">
      <contour>
        <pt x="181" y="-270" on="1"/>
        <pt x="181" y="1456" on="1"/>
        <pt x="235" y="1456" on="1"/>
        <pt x="235" y="-270" on="1"/>
      </contour>
    </TTGlyph>
    <TTGlyph name="braceleft" xMin="73" yMin="-441" xMax="662" yMax="1597">
      <contour>
        <pt x="377" y="-134" on="0"/>
        <pt x="518" y="-347" on="0"/>
        <pt x="662" y="-395" on="1"/>
        <pt x="642" y="-441" on="1"/>
        <pt x="469" y="-386" on="0"/>
        <pt x="323" y="-151" on="0"/>
        <pt x="323" y="20" on="1"/>
        <pt x="323" y="265" on="1"/>
        <pt x="323" y="397" on="0"/>
        <pt x="201" y="543" on="0"/>
        <pt x="73" y="543" on="1"/>
        <pt x="73" y="609" on="1"/>
        <pt x="201" y="609" on="0"/>
        <pt x="323" y="754" on="0"/>
        <pt x="323" y="885" on="1"/>
        <pt x="323" y="1132" on="1"/>
        <pt x="323" y="1303" on="0"/>
        <pt x="470" y="1543" on="0"/>
        <pt x="642" y="1597" on="1"/>
        <pt x="657" y="1552" on="1"/>
        <pt x="514" y="1506" on="0"/>
        <pt x="377" y="1288" on="0"/>
        <pt x="377" y="1132" on="1"/>
        <pt x="377" y="885" on="1"/>
        <pt x="377" y="765" on="0"/>
        <pt x="274" y="601" on="0"/>
        <pt x="166" y="576" on="1"/>
        <pt x="274" y="551" on="0"/>
        <pt x="377" y="385" on="0"/>
        <pt x="377" y="265" on="1"/>
        <pt x="377" y="20" on="1"/>
      </contour>
    </TTGlyph>
    <TTGlyph name="braceright" xMin="0" yMin="-441" xMax="588" yMax="1597">
      <contour>
        <pt x="338" y="754" on="0"/>
        <pt x="460" y="609" on="0"/>
        <pt x="588" y="609" on="1"/>
        <pt x="588" y="543" on="1"/>
        <pt x="460" y="543" on="0"/>
        <pt x="338" y="397" on="0"/>
        <pt x="338" y="265" on="1"/>
        <pt x="338" y="20" on="1"/>
        <pt x="338" y="-151" on="0"/>
        <pt x="192" y="-387" on="0"/>
        <pt x="19" y="-441" on="1"/>
        <pt x="0" y="-395" on="1"/>
        <pt x="143" y="-346" on="0"/>
        <pt x="284" y="-134" on="0"/>
        <pt x="284" y="20" on="1"/>
        <pt x="284" y="265" on="1"/>
        <pt x="284" y="385" on="0"/>
        <pt x="388" y="551" on="0"/>
        <pt x="495" y="576" on="1"/>
        <pt x="388" y="601" on="0"/>
        <pt x="284" y="766" on="0"/>
        <pt x="284" y="885" on="1"/>
        <pt x="284" y="1132" on="1"/>
        <pt x="284" y="1288" on="0"/>
        <pt x="148" y="1506" on="0"/>
        <pt x="5" y="1552" on="1"/>
        <pt x="19" y="1597" on="1"/>
        <pt x="192" y="1543" on="0"/>
        <pt x="338" y="1304" on="0"/>
        <pt x="338" y="1132" on="1"/>
        <pt x="338" y="885" on="1"/>
      </contour>
    </TTGlyph>
    <TTGlyph name="bracketleft" xMin="181" yMin="-312" xMax="464" yMax="1664">
      <contour>
        <pt x="235" y="1610" on="1"/>
        <pt x="235" y="-258" on="1"/>
        <pt x="464" y="-258" on="1"/>
        <pt x="464" y="-312" on="1"/>
        <pt x="181" y="-312" on="1"/>
        <pt x="181" y="1664" on="1"/>
        <pt x="464" y="1664" on="1"/>
        <pt x="464" y="1610" on="1"/>
      </contour>
    </TTGlyph>
    <TTGlyph name="bracketright" xMin="-8" yMin="-312" xMax="275" yMax="1664">
      <contour>
        <pt x="275" y="1664" on="1"/>
        <pt x="275" y="-312" on="1"/>
        <pt x="-8" y="-312" on="1"/>
        <pt x="-8" y="-258" on="1"/>
        <pt x="220" y="-258" on="1"/>
        <pt x="220" y="1610" on="1"/>
        <pt x="-8" y="1610" on="1"/>
        <pt x="-8" y="1664" on="1"/>
      </contour>
    </TTGlyph>
    <TTGlyph name="brokenbar" xMin="172" yMin="-270" xMax="226" yMax="1456">
      <contour>
        <pt x="172" y="698" on="1"/>
        <pt x="172" y="1456" on="1"/>
        <pt x="226" y="1456" on="1"/>
        <pt x="226" y="698" on="1"/>
      </contour>
      <contour>
        <pt x="172" y="482" on="1"/>
        <pt x="226" y="482" on="1"/>
        <pt x="226" y="-270" on="1"/>
        <pt x="172" y="-270" on="1"/>
      </contour>
    </TTGlyph>
    <TTGlyph name="bullet" xMin="155" yMin="545" xMax="489" yMax="893">
      <contour>
        <pt x="155" y="803" on="0"/>
        <pt x="246" y="893" on="0"/>
        <pt x="321" y="893" on="1"/>
        <pt x="398" y="893" on="0"/>
        <pt x="489" y="803" on="0"/>
        <pt x="489" y="733" on="1"/>
        <pt x="489" y="703" on="1"/>
        <pt x="489" y="634" on="0"/>
        <pt x="398" y="545" on="0"/>
        <pt x="322" y="545" on="1"/>
        <pt x="246" y="545" on="0"/>
        <pt x="155" y="634" on="0"/>
        <pt x="155" y="703" on="1"/>
        <pt x="155" y="733" on="1"/>
      </contour>
    </TTGlyph>
    <TTGlyph name="c" xMin="97" yMin="-20" xMax="940" yMax="1102">
      <contour>
        <pt x="940" y="328" on="1"/>
        <pt x="935" y="221" on="0"/>
        <pt x="825" y="63" on="0"/>
        <pt x="646" y="-20" on="0"/>
        <pt x="539" y="-20" on="1"/>
        <pt x="401" y="-20" on="0"/>
        <pt x="202" y="116" on="0"/>
        <pt x="97" y="361" on="0"/>
        <pt x="97" y="520" on="1"/>
        <pt x="97" y="562" on="1"/>
        <pt x="97" y="721" on="0"/>
        <pt x="201" y="965" on="0"/>
        <pt x="400" y="1102" on="0"/>
        <pt x="537" y="1102" on="1"/>
        <pt x="644" y="1102" on="0"/>
        <pt x="824" y="1015" on="0"/>
        <pt x="935" y="845" on="0"/>
        <pt x="940" y="725" on="1"/>
        <pt x="886" y="725" on="1"/>
        <pt x="881" y="829" on="0"/>
        <pt x="784" y="974" on="0"/>
        <pt x="628" y="1048" on="0"/>
        <pt x="537" y="1048" on="1"/>
        <pt x="409" y="1048" on="0"/>
        <pt x="236" y="920" on="0"/>
        <pt x="151" y="701" on="0"/>
        <pt x="151" y="562" on="1"/>
        <pt x="151" y="520" on="1"/>
        <pt x="151" y="380" on="0"/>
        <pt x="236" y="161" on="0"/>
        <pt x="410" y="34" on="0"/>
        <pt x="539" y="34" on="1"/>
        <pt x="628" y="34" on="0"/>
        <pt x="781" y="97" on="0"/>
        <pt x="880" y="229" on="0"/>
        <pt x="886" y="328" on="1"/>
      </contour>
    </TTGlyph>
    <TTGlyph name="c.ss06" xMin="100" yMin="-21" xMax="963" yMax="1102">
      <contour>
        <pt x="963" y="328" on="1"/>
        <pt x="958" y="221" on="0"/>
        <pt x="848" y="63" on="0"/>
        <pt x="669" y="-21" on="0"/>
        <pt x="562" y="-21" on="1"/>
        <pt x="424" y="-21" on="0"/>
        <pt x="214" y="117" on="0"/>
        <pt x="100" y="362" on="0"/>
        <pt x="100" y="520" on="1"/>
        <pt x="100" y="562" on="1"/>
        <pt x="100" y="720" on="0"/>
        <pt x="214" y="965" on="0"/>
        <pt x="423" y="1102" on="0"/>
        <pt x="560" y="1102" on="1"/>
        <pt x="667" y="1102" on="0"/>
        <pt x="847" y="1015" on="0"/>
        <pt x="958" y="845" on="0"/>
        <pt x="963" y="725" on="1"/>
        <pt x="909" y="725" on="1"/>
        <pt x="904" y="829" on="0"/>
        <pt x="807" y="974" on="0"/>
        <pt x="651" y="1048" on="0"/>
        <pt x="560" y="1048" on="1"/>
        <pt x="432" y="1048" on="0"/>
        <pt x="248" y="920" on="0"/>
        <pt x="154" y="699" on="0"/>
        <pt x="154" y="562" on="1"/>
        <pt x="154" y="520" on="1"/>
        <pt x="154" y="382" on="0"/>
        <pt x="248" y="161" on="0"/>
        <pt x="433" y="33" on="0"/>
        <pt x="562" y="33" on="1"/>
        <pt x="651" y="33" on="0"/>
        <pt x="804" y="96" on="0"/>
        <pt x="903" y="229" on="0"/>
        <pt x="909" y="328" on="1"/>
      </contour>
    </TTGlyph>
    <TTGlyph name="ccedilla" xMin="97" yMin="-445" xMax="940" yMax="1102">
      <component glyphName=".ttfautohint" x="97" y="0" flags="0x0"/>
      <component glyphName="c" x="0" y="0" flags="0x0"/>
      <component glyphName="cedilla" x="368" y="-10" flags="0x4"/>
    </TTGlyph>
    <TTGlyph name="cedilla" xMin="81" yMin="-435" xMax="373" yMax="0">
      <contour>
        <pt x="196" y="-76" on="1"/>
        <pt x="274" y="-84" on="0"/>
        <pt x="373" y="-162" on="0"/>
        <pt x="373" y="-245" on="1"/>
        <pt x="373" y="-302" on="0"/>
        <pt x="304" y="-388" on="0"/>
        <pt x="175" y="-435" on="0"/>
        <pt x="88" y="-435" on="1"/>
        <pt x="81" y="-386" on="1"/>
        <pt x="138" y="-386" on="0"/>
        <pt x="247" y="-355" on="0"/>
        <pt x="318" y="-292" on="0"/>
        <pt x="318" y="-245" on="1"/>
        <pt x="318" y="-202" on="0"/>
        <pt x="276" y="-153" on="0"/>
        <pt x="196" y="-128" on="0"/>
        <pt x="129" y="-121" on="1"/>
        <pt x="154" y="0" on="1"/>
        <pt x="207" y="0" on="1"/>
      </contour>
    </TTGlyph>
    <TTGlyph name="cent" xMin="134" yMin="-245" xMax="977" yMax="1318">
      <contour>
        <pt x="665" y="34" on="0"/>
        <pt x="818" y="97" on="0"/>
        <pt x="917" y="229" on="0"/>
        <pt x="923" y="328" on="1"/>
        <pt x="977" y="328" on="1"/>
        <pt x="972" y="226" on="0"/>
        <pt x="870" y="73" on="0"/>
        <pt x="705" y="-13" on="0"/>
        <pt x="604" y="-19" on="1"/>
        <pt x="604" y="-245" on="1"/>
        <pt x="549" y="-245" on="1"/>
        <pt x="549" y="-19" on="1"/>
        <pt x="419" y="-12" on="0"/>
        <pt x="232" y="127" on="0"/>
        <pt x="134" y="366" on="0"/>
        <pt x="134" y="520" on="1"/>
        <pt x="134" y="562" on="1"/>
        <pt x="134" y="716" on="0"/>
        <pt x="232" y="955" on="0"/>
        <pt x="419" y="1095" on="0"/>
        <pt x="549" y="1101" on="1"/>
        <pt x="549" y="1318" on="1"/>
        <pt x="604" y="1318" on="1"/>
        <pt x="604" y="1101" on="1"/>
        <pt x="704" y="1095" on="0"/>
        <pt x="870" y="1005" on="0"/>
        <pt x="972" y="839" on="0"/>
        <pt x="977" y="725" on="1"/>
        <pt x="923" y="725" on="1"/>
        <pt x="918" y="829" on="0"/>
        <pt x="821" y="974" on="0"/>
        <pt x="665" y="1048" on="0"/>
        <pt x="574" y="1048" on="1"/>
        <pt x="446" y="1048" on="0"/>
        <pt x="273" y="920" on="0"/>
        <pt x="188" y="701" on="0"/>
        <pt x="188" y="562" on="1"/>
        <pt x="188" y="520" on="1"/>
        <pt x="188" y="380" on="0"/>
        <pt x="273" y="161" on="0"/>
        <pt x="447" y="34" on="0"/>
        <pt x="576" y="34" on="1"/>
      </contour>
    </TTGlyph>
    <TTGlyph name="circumflex" xMin="152" yMin="1264" xMax="656" yMax="1517">
      <contour>
        <pt x="656" y="1264" on="1"/>
        <pt x="588" y="1264" on="1"/>
        <pt x="401" y="1460" on="1"/>
        <pt x="216" y="1264" on="1"/>
        <pt x="152" y="1264" on="1"/>
        <pt x="152" y="1278" on="1"/>
        <pt x="382" y="1517" on="1"/>
        <pt x="422" y="1517" on="1"/>
        <pt x="656" y="1274" on="1"/>
      </contour>
    </TTGlyph>
    <TTGlyph name="colon" xMin="119" yMin="-6" xMax="235" yMax="1067">
      <component glyphName=".ttfautohint" x="119" y="0" flags="0x0"/>
      <component glyphName="period" x="-28" y="0" flags="0x0"/>
      <component glyphName="period" x="-23" y="962" flags="0x4"/>
    </TTGlyph>
    <TTGlyph name="comma" xMin="92" yMin="-255" xMax="235" yMax="159">
      <contour>
        <pt x="235" y="-142" on="0"/>
        <pt x="129" y="-255" on="1"/>
        <pt x="92" y="-223" on="1"/>
        <pt x="139" y="-162" on="0"/>
        <pt x="181" y="-50" on="0"/>
        <pt x="181" y="25" on="1"/>
        <pt x="181" y="159" on="1"/>
        <pt x="235" y="159" on="1"/>
        <pt x="235" y="27" on="1"/>
      </contour>
    </TTGlyph>
    <TTGlyph name="copyright" xMin="123" yMin="-21" xMax="1543" yMax="1476">
      <contour>
        <pt x="1027" y="1476" on="0"/>
        <pt x="1352" y="1279" on="0"/>
        <pt x="1543" y="937" on="0"/>
        <pt x="1543" y="729" on="1"/>
        <pt x="1543" y="521" on="0"/>
        <pt x="1352" y="178" on="0"/>
        <pt x="1026" y="-21" on="0"/>
        <pt x="833" y="-21" on="1"/>
        <pt x="640" y="-21" on="0"/>
        <pt x="314" y="178" on="0"/>
        <pt x="123" y="521" on="0"/>
        <pt x="123" y="729" on="1"/>
        <pt x="123" y="936" on="0"/>
        <pt x="314" y="1279" on="0"/>
        <pt x="640" y="1476" on="0"/>
        <pt x="833" y="1476" on="1"/>
      </contour>
      <contour>
        <pt x="1010" y="34" on="0"/>
        <pt x="1310" y="220" on="0"/>
        <pt x="1487" y="539" on="0"/>
        <pt x="1487" y="729" on="1"/>
        <pt x="1487" y="919" on="0"/>
        <pt x="1310" y="1237" on="0"/>
        <pt x="1010" y="1421" on="0"/>
        <pt x="833" y="1421" on="1"/>
        <pt x="656" y="1421" on="0"/>
        <pt x="356" y="1237" on="0"/>
        <pt x="179" y="919" on="0"/>
        <pt x="179" y="729" on="1"/>
        <pt x="179" y="539" on="0"/>
        <pt x="356" y="220" on="0"/>
        <pt x="656" y="34" on="0"/>
        <pt x="833" y="34" on="1"/>
      </contour>
      <contour>
        <pt x="1124" y="462" on="0"/>
        <pt x="965" y="302" on="0"/>
        <pt x="826" y="302" on="1"/>
        <pt x="732" y="302" on="0"/>
        <pt x="586" y="399" on="0"/>
        <pt x="506" y="575" on="0"/>
        <pt x="506" y="689" on="1"/>
        <pt x="506" y="768" on="1"/>
        <pt x="506" y="881" on="0"/>
        <pt x="586" y="1057" on="0"/>
        <pt x="732" y="1155" on="0"/>
        <pt x="826" y="1155" on="1"/>
        <pt x="965" y="1155" on="0"/>
        <pt x="1125" y="995" on="0"/>
        <pt x="1125" y="842" on="1"/>
        <pt x="1073" y="842" on="1"/>
        <pt x="1073" y="971" on="0"/>
        <pt x="946" y="1102" on="0"/>
        <pt x="826" y="1102" on="1"/>
        <pt x="744" y="1102" on="0"/>
        <pt x="624" y="1014" on="0"/>
        <pt x="561" y="863" on="0"/>
        <pt x="561" y="769" on="1"/>
        <pt x="561" y="689" on="1"/>
        <pt x="561" y="595" on="0"/>
        <pt x="624" y="444" on="0"/>
        <pt x="744" y="357" on="0"/>
        <pt x="826" y="357" on="1"/>
        <pt x="1072" y="357" on="0"/>
        <pt x="1072" y="616" on="1"/>
        <pt x="1124" y="616" on="1"/>
      </contour>
    </TTGlyph>
    <TTGlyph name="crossbar" xMin="108" yMin="721" xMax="695" yMax="775">
      <contour>
        <pt x="108" y="721" on="1"/>
        <pt x="108" y="775" on="1"/>
        <pt x="695" y="775" on="1"/>
        <pt x="695" y="721" on="1"/>
      </contour>
    </TTGlyph>
    <TTGlyph name="currency" xMin="114" yMin="-27" xMax="1380" yMax="1265">
      <contour>
        <pt x="1339" y="492" on="0"/>
        <pt x="1265" y="282" on="0"/>
        <pt x="1198" y="199" on="1"/>
        <pt x="1380" y="13" on="1"/>
        <pt x="1339" y="-27" on="1"/>
        <pt x="1160" y="156" on="1"/>
        <pt x="1079" y="72" on="0"/>
        <pt x="864" y="-20" on="0"/>
        <pt x="745" y="-20" on="1"/>
        <pt x="626" y="-20" on="0"/>
        <pt x="413" y="72" on="0"/>
        <pt x="331" y="154" on="1"/>
        <pt x="154" y="-26" on="1"/>
        <pt x="114" y="13" on="1"/>
        <pt x="293" y="196" on="1"/>
        <pt x="224" y="279" on="0"/>
        <pt x="149" y="490" on="0"/>
        <pt x="149" y="608" on="1"/>
        <pt x="149" y="730" on="0"/>
        <pt x="230" y="948" on="0"/>
        <pt x="303" y="1032" on="1"/>
        <pt x="114" y="1225" on="1"/>
        <pt x="154" y="1264" on="1"/>
        <pt x="342" y="1072" on="1"/>
        <pt x="422" y="1149" on="0"/>
        <pt x="630" y="1234" on="0"/>
        <pt x="745" y="1234" on="1"/>
        <pt x="860" y="1234" on="0"/>
        <pt x="1068" y="1149" on="0"/>
        <pt x="1148" y="1071" on="1"/>
        <pt x="1339" y="1265" on="1"/>
        <pt x="1380" y="1225" on="1"/>
        <pt x="1188" y="1029" on="1"/>
        <pt x="1260" y="945" on="0"/>
        <pt x="1339" y="729" on="0"/>
        <pt x="1339" y="608" on="1"/>
      </contour>
      <contour>
        <pt x="890" y="33" on="0"/>
        <pt x="1139" y="188" on="0"/>
        <pt x="1285" y="452" on="0"/>
        <pt x="1285" y="608" on="1"/>
        <pt x="1285" y="764" on="0"/>
        <pt x="1139" y="1027" on="0"/>
        <pt x="890" y="1181" on="0"/>
        <pt x="745" y="1181" on="1"/>
        <pt x="599" y="1181" on="0"/>
        <pt x="351" y="1027" on="0"/>
        <pt x="204" y="764" on="0"/>
        <pt x="204" y="608" on="1"/>
        <pt x="204" y="452" on="0"/>
        <pt x="351" y="188" on="0"/>
        <pt x="599" y="33" on="0"/>
        <pt x="745" y="33" on="1"/>
      </contour>
    </TTGlyph>
    <TTGlyph name="d" xMin="122" yMin="-20" xMax="951" yMax="1536">
      <contour>
        <pt x="951" y="1536" on="1"/>
        <pt x="951" y="0" on="1"/>
        <pt x="897" y="0" on="1"/>
        <pt x="897" y="174" on="1"/>
        <pt x="844" y="85" on="0"/>
        <pt x="656" y="-20" on="0"/>
        <pt x="528" y="-20" on="1"/>
        <pt x="402" y="-20" on="0"/>
        <pt x="219" y="117" on="0"/>
        <pt x="122" y="366" on="0"/>
        <pt x="122" y="531" on="1"/>
        <pt x="122" y="552" on="1"/>
        <pt x="122" y="722" on="0"/>
        <pt x="219" y="970" on="0"/>
        <pt x="403" y="1102" on="0"/>
        <pt x="530" y="1102" on="1"/>
        <pt x="659" y="1102" on="0"/>
        <pt x="844" y="986" on="0"/>
        <pt x="897" y="883" on="1"/>
        <pt x="897" y="1536" on="1"/>
      </contour>
      <contour>
        <pt x="669" y="34" on="0"/>
        <pt x="856" y="162" on="0"/>
        <pt x="897" y="269" on="1"/>
        <pt x="897" y="775" on="1"/>
        <pt x="859" y="891" on="0"/>
        <pt x="685" y="1048" on="0"/>
        <pt x="529" y="1048" on="1"/>
        <pt x="413" y="1048" on="0"/>
        <pt x="256" y="922" on="0"/>
        <pt x="178" y="699" on="0"/>
        <pt x="178" y="552" on="1"/>
        <pt x="178" y="531" on="1"/>
        <pt x="178" y="384" on="0"/>
        <pt x="255" y="160" on="0"/>
        <pt x="412" y="34" on="0"/>
        <pt x="527" y="34" on="1"/>
      </contour>
    </TTGlyph>
    <TTGlyph name="d.ss06" xMin="100" yMin="-21" xMax="949" yMax="1536">
      <contour>
        <pt x="949" y="1536" on="1"/>
        <pt x="949" y="0" on="1"/>
        <pt x="897" y="0" on="1"/>
        <pt x="895" y="174" on="1"/>
        <pt x="843" y="85" on="0"/>
        <pt x="654" y="-21" on="0"/>
        <pt x="526" y="-21" on="1"/>
        <pt x="399" y="-21" on="0"/>
        <pt x="206" y="117" on="0"/>
        <pt x="100" y="368" on="0"/>
        <pt x="100" y="531" on="1"/>
        <pt x="100" y="552" on="1"/>
        <pt x="100" y="720" on="0"/>
        <pt x="206" y="969" on="0"/>
        <pt x="400" y="1102" on="0"/>
        <pt x="528" y="1102" on="1"/>
        <pt x="657" y="1102" on="0"/>
        <pt x="842" y="986" on="0"/>
        <pt x="895" y="883" on="1"/>
        <pt x="895" y="1536" on="1"/>
      </contour>
      <contour>
        <pt x="667" y="33" on="0"/>
        <pt x="854" y="162" on="0"/>
        <pt x="895" y="269" on="1"/>
        <pt x="895" y="775" on="1"/>
        <pt x="857" y="891" on="0"/>
        <pt x="683" y="1048" on="0"/>
        <pt x="527" y="1048" on="1"/>
        <pt x="411" y="1048" on="0"/>
        <pt x="243" y="921" on="0"/>
        <pt x="156" y="697" on="0"/>
        <pt x="156" y="552" on="1"/>
        <pt x="156" y="531" on="1"/>
        <pt x="156" y="386" on="0"/>
        <pt x="243" y="160" on="0"/>
        <pt x="410" y="33" on="0"/>
        <pt x="525" y="33" on="1"/>
      </contour>
    </TTGlyph>
    <TTGlyph name="degree" xMin="156" yMin="999" xMax="624" yMax="1476">
      <contour>
        <pt x="454" y="1476" on="0"/>
        <pt x="561" y="1411" on="0"/>
        <pt x="624" y="1300" on="0"/>
        <pt x="624" y="1236" on="1"/>
        <pt x="624" y="1171" on="0"/>
        <pt x="561" y="1062" on="0"/>
        <pt x="455" y="999" on="0"/>
        <pt x="392" y="999" on="1"/>
        <pt x="328" y="999" on="0"/>
        <pt x="220" y="1062" on="0"/>
        <pt x="156" y="1171" on="0"/>
        <pt x="156" y="1236" on="1"/>
        <pt x="156" y="1300" on="0"/>
        <pt x="220" y="1411" on="0"/>
        <pt x="328" y="1476" on="0"/>
        <pt x="392" y="1476" on="1"/>
      </contour>
      <contour>
        <pt x="442" y="1055" on="0"/>
        <pt x="523" y="1102" on="0"/>
        <pt x="568" y="1184" on="0"/>
        <pt x="568" y="1236" on="1"/>
        <pt x="568" y="1289" on="0"/>
        <pt x="523" y="1373" on="0"/>
        <pt x="442" y="1421" on="0"/>
        <pt x="392" y="1421" on="1"/>
        <pt x="341" y="1421" on="0"/>
        <pt x="258" y="1373" on="0"/>
        <pt x="211" y="1289" on="0"/>
        <pt x="211" y="1236" on="1"/>
        <pt x="211" y="1184" on="0"/>
        <pt x="258" y="1102" on="0"/>
        <pt x="341" y="1055" on="0"/>
        <pt x="392" y="1055" on="1"/>
      </contour>
    </TTGlyph>
    <TTGlyph name="dieresis" xMin="174" yMin="1366" xMax="730" yMax="1477">
      <contour>
        <pt x="252" y="1477" on="0"/>
        <pt x="285" y="1444" on="0"/>
        <pt x="285" y="1421" on="1"/>
        <pt x="285" y="1398" on="0"/>
        <pt x="252" y="1366" on="0"/>
        <pt x="229" y="1366" on="1"/>
        <pt x="206" y="1366" on="0"/>
        <pt x="174" y="1398" on="0"/>
        <pt x="174" y="1421" on="1"/>
        <pt x="174" y="1444" on="0"/>
        <pt x="206" y="1477" on="0"/>
        <pt x="229" y="1477" on="1"/>
      </contour>
      <contour>
        <pt x="697" y="1477" on="0"/>
        <pt x="730" y="1444" on="0"/>
        <pt x="730" y="1421" on="1"/>
        <pt x="730" y="1398" on="0"/>
        <pt x="697" y="1366" on="0"/>
        <pt x="674" y="1366" on="1"/>
        <pt x="651" y="1366" on="0"/>
        <pt x="619" y="1398" on="0"/>
        <pt x="619" y="1421" on="1"/>
        <pt x="619" y="1444" on="0"/>
        <pt x="651" y="1477" on="0"/>
        <pt x="674" y="1477" on="1"/>
      </contour>
    </TTGlyph>
    <TTGlyph name="divide" xMin="73" yMin="246" xMax="1071" yMax="1135">
      <contour>
        <pt x="607" y="1135" on="0"/>
        <pt x="640" y="1102" on="0"/>
        <pt x="640" y="1079" on="1"/>
        <pt x="640" y="1056" on="0"/>
        <pt x="607" y="1024" on="0"/>
        <pt x="584" y="1024" on="1"/>
        <pt x="561" y="1024" on="0"/>
        <pt x="529" y="1056" on="0"/>
        <pt x="529" y="1079" on="1"/>
        <pt x="529" y="1102" on="0"/>
        <pt x="561" y="1135" on="0"/>
        <pt x="584" y="1135" on="1"/>
      </contour>
      <contour>
        <pt x="73" y="686" on="1"/>
        <pt x="73" y="738" on="1"/>
        <pt x="1071" y="738" on="1"/>
        <pt x="1071" y="686" on="1"/>
      </contour>
      <contour>
        <pt x="607" y="357" on="0"/>
        <pt x="640" y="324" on="0"/>
        <pt x="640" y="301" on="1"/>
        <pt x="640" y="278" on="0"/>
        <pt x="607" y="246" on="0"/>
        <pt x="584" y="246" on="1"/>
        <pt x="561" y="246" on="0"/>
        <pt x="529" y="278" on="0"/>
        <pt x="529" y="301" on="1"/>
        <pt x="529" y="324" on="0"/>
        <pt x="561" y="357" on="0"/>
        <pt x="584" y="357" on="1"/>
      </contour>
    </TTGlyph>
    <TTGlyph name="dollar" xMin="121" yMin="-208" xMax="1001" yMax="1663">
      <contour>
        <pt x="1001" y="239" on="0"/>
        <pt x="906" y="78" on="0"/>
        <pt x="734" y="-14" on="0"/>
        <pt x="620" y="-20" on="1"/>
        <pt x="620" y="-208" on="1"/>
        <pt x="565" y="-208" on="1"/>
        <pt x="565" y="-21" on="1"/>
        <pt x="445" y="-17" on="0"/>
        <pt x="245" y="71" on="0"/>
        <pt x="121" y="261" on="0"/>
        <pt x="121" y="409" on="1"/>
        <pt x="175" y="409" on="1"/>
        <pt x="175" y="273" on="0"/>
        <pt x="295" y="104" on="0"/>
        <pt x="481" y="32" on="0"/>
        <pt x="586" y="32" on="1"/>
        <pt x="695" y="32" on="0"/>
        <pt x="859" y="119" on="0"/>
        <pt x="947" y="262" on="0"/>
        <pt x="947" y="344" on="1"/>
        <pt x="947" y="433" on="0"/>
        <pt x="880" y="553" on="0"/>
        <pt x="721" y="650" on="0"/>
        <pt x="576" y="702" on="1"/>
        <pt x="434" y="750" on="0"/>
        <pt x="263" y="845" on="0"/>
        <pt x="168" y="995" on="0"/>
        <pt x="168" y="1110" on="1"/>
        <pt x="168" y="1216" on="0"/>
        <pt x="263" y="1379" on="0"/>
        <pt x="437" y="1472" on="0"/>
        <pt x="554" y="1477" on="1"/>
        <pt x="554" y="1663" on="1"/>
        <pt x="609" y="1663" on="1"/>
        <pt x="609" y="1476" on="1"/>
        <pt x="791" y="1468" on="0"/>
        <pt x="993" y="1245" on="0"/>
        <pt x="993" y="1047" on="1"/>
        <pt x="939" y="1047" on="1"/>
        <pt x="939" y="1156" on="0"/>
        <pt x="855" y="1327" on="0"/>
        <pt x="693" y="1424" on="0"/>
        <pt x="579" y="1424" on="1"/>
        <pt x="462" y="1424" on="0"/>
        <pt x="301" y="1337" on="0"/>
        <pt x="222" y="1194" on="0"/>
        <pt x="222" y="1112" on="1"/>
        <pt x="222" y="1024" on="0"/>
        <pt x="280" y="906" on="0"/>
        <pt x="440" y="805" on="0"/>
        <pt x="593" y="754" on="1"/>
        <pt x="733" y="706" on="0"/>
        <pt x="904" y="611" on="0"/>
        <pt x="1001" y="461" on="0"/>
        <pt x="1001" y="346" on="1"/>
      </contour>
    </TTGlyph>
    <TTGlyph name="dollar.smcp" xMin="82" yMin="-237" xMax="969" yMax="1395">
      <contour>
        <pt x="969" y="193" on="0"/>
        <pt x="863" y="60" on="0"/>
        <pt x="680" y="-12" on="0"/>
        <pt x="566" y="-16" on="1"/>
        <pt x="566" y="-237" on="1"/>
        <pt x="512" y="-237" on="1"/>
        <pt x="512" y="-15" on="1"/>
        <pt x="400" y="-11" on="0"/>
        <pt x="205" y="62" on="0"/>
        <pt x="82" y="214" on="0"/>
        <pt x="82" y="329" on="1"/>
        <pt x="135" y="329" on="1"/>
        <pt x="135" y="225" on="0"/>
        <pt x="258" y="94" on="0"/>
        <pt x="444" y="37" on="0"/>
        <pt x="544" y="37" on="1"/>
        <pt x="651" y="37" on="0"/>
        <pt x="820" y="99" on="0"/>
        <pt x="914" y="209" on="0"/>
        <pt x="914" y="281" on="1"/>
        <pt x="914" y="353" on="0"/>
        <pt x="841" y="454" on="0"/>
        <pt x="676" y="532" on="0"/>
        <pt x="535" y="566" on="1"/>
        <pt x="395" y="601" on="0"/>
        <pt x="218" y="680" on="0"/>
        <pt x="122" y="801" on="0"/>
        <pt x="122" y="891" on="1"/>
        <pt x="122" y="976" on="0"/>
        <pt x="223" y="1104" on="0"/>
        <pt x="400" y="1177" on="0"/>
        <pt x="512" y="1181" on="1"/>
        <pt x="512" y="1395" on="1"/>
        <pt x="566" y="1395" on="1"/>
        <pt x="566" y="1180" on="1"/>
        <pt x="680" y="1175" on="0"/>
        <pt x="857" y="1085" on="0"/>
        <pt x="956" y="931" on="0"/>
        <pt x="956" y="835" on="1"/>
        <pt x="902" y="835" on="1"/>
        <pt x="902" y="918" on="0"/>
        <pt x="812" y="1051" on="0"/>
        <pt x="646" y="1126" on="0"/>
        <pt x="537" y="1126" on="1"/>
        <pt x="425" y="1126" on="0"/>
        <pt x="261" y="1063" on="0"/>
        <pt x="175" y="956" on="0"/>
        <pt x="175" y="893" on="1"/>
        <pt x="175" y="830" on="0"/>
        <pt x="242" y="734" on="0"/>
        <pt x="406" y="654" on="0"/>
        <pt x="550" y="620" on="1"/>
        <pt x="685" y="587" on="0"/>
        <pt x="867" y="504" on="0"/>
        <pt x="969" y="375" on="0"/>
        <pt x="969" y="282" on="1"/>
      </contour>
    </TTGlyph>
    <TTGlyph name="dotlessi" xMin="181" yMin="0" xMax="235" yMax="1082">
      <contour>
        <pt x="181" y="0" on="1"/>
        <pt x="181" y="1082" on="1"/>
        <pt x="235" y="1082" on="1"/>
        <pt x="235" y="0" on="1"/>
      </contour>
    </TTGlyph>
    <TTGlyph name="e" xMin="87" yMin="-20" xMax="952" yMax="1102">
      <contour>
        <pt x="141" y="562" on="1"/>
        <pt x="141" y="518" on="1"/>
        <pt x="141" y="385" on="0"/>
        <pt x="252" y="162" on="0"/>
        <pt x="444" y="33" on="0"/>
        <pt x="561" y="33" on="1"/>
        <pt x="661" y="33" on="0"/>
        <pt x="818" y="100" on="0"/>
        <pt x="882" y="182" on="1"/>
        <pt x="920" y="155" on="1"/>
        <pt x="863" y="73" on="0"/>
        <pt x="685" y="-20" on="0"/>
        <pt x="561" y="-20" on="1"/>
        <pt x="430" y="-20" on="0"/>
        <pt x="213" y="119" on="0"/>
        <pt x="87" y="364" on="0"/>
        <pt x="87" y="518" on="1"/>
        <pt x="87" y="562" on="1"/>
        <pt x="87" y="717" on="0"/>
        <pt x="209" y="963" on="0"/>
        <pt x="417" y="1102" on="0"/>
        <pt x="541" y="1102" on="1"/>
        <pt x="660" y="1102" on="0"/>
        <pt x="847" y="986" on="0"/>
        <pt x="952" y="776" on="0"/>
        <pt x="952" y="640" on="1"/>
        <pt x="952" y="577" on="1"/>
        <pt x="141" y="577" on="1"/>
      </contour>
      <contour>
        <pt x="435" y="1048" on="0"/>
        <pt x="263" y="939" on="0"/>
        <pt x="158" y="749" on="0"/>
        <pt x="145" y="631" on="1"/>
        <pt x="898" y="631" on="1"/>
        <pt x="898" y="644" on="1"/>
        <pt x="898" y="753" on="0"/>
        <pt x="809" y="938" on="0"/>
        <pt x="646" y="1048" on="0"/>
        <pt x="541" y="1048" on="1"/>
      </contour>
    </TTGlyph>
    <TTGlyph name="e.ss07" xMin="87" yMin="-21" xMax="952" yMax="1102">
      <contour>
        <pt x="141" y="564" on="1"/>
        <pt x="141" y="500" on="1"/>
        <pt x="141" y="372" on="0"/>
        <pt x="252" y="158" on="0"/>
        <pt x="444" y="33" on="0"/>
        <pt x="561" y="33" on="1"/>
        <pt x="656" y="33" on="0"/>
        <pt x="809" y="95" on="0"/>
        <pt x="883" y="165" on="1"/>
        <pt x="912" y="123" on="1"/>
        <pt x="850" y="56" on="0"/>
        <pt x="680" y="-21" on="0"/>
        <pt x="561" y="-21" on="1"/>
        <pt x="431" y="-21" on="0"/>
        <pt x="213" y="114" on="0"/>
        <pt x="87" y="352" on="0"/>
        <pt x="87" y="500" on="1"/>
        <pt x="87" y="564" on="1"/>
        <pt x="87" y="718" on="0"/>
        <pt x="209" y="964" on="0"/>
        <pt x="417" y="1102" on="0"/>
        <pt x="541" y="1102" on="1"/>
        <pt x="661" y="1102" on="0"/>
        <pt x="847" y="995" on="0"/>
        <pt x="952" y="795" on="0"/>
        <pt x="952" y="660" on="1"/>
        <pt x="952" y="577" on="1"/>
        <pt x="141" y="577" on="1"/>
      </contour>
      <contour>
        <pt x="434" y="1048" on="0"/>
        <pt x="262" y="939" on="0"/>
        <pt x="157" y="749" on="0"/>
        <pt x="144" y="631" on="1"/>
        <pt x="898" y="631" on="1"/>
        <pt x="898" y="664" on="1"/>
        <pt x="898" y="772" on="0"/>
        <pt x="809" y="947" on="0"/>
        <pt x="647" y="1048" on="0"/>
        <pt x="541" y="1048" on="1"/>
      </contour>
    </TTGlyph>
    <TTGlyph name="eacute" xMin="87" yMin="-20" xMax="952" yMax="1534">
      <component glyphName=".ttfautohint" x="87" y="0" flags="0x0"/>
      <component glyphName="e" x="0" y="0" flags="0x0"/>
      <component glyphName="acutecomb" x="1095" y="-2" flags="0x4"/>
    </TTGlyph>
    <TTGlyph name="ecircumflex" xMin="87" yMin="-20" xMax="952" yMax="1515">
      <component glyphName=".ttfautohint" x="87" y="0" flags="0x0"/>
      <component glyphName="e" x="0" y="0" flags="0x0"/>
      <component glyphName="circumflex" x="165" y="-2" flags="0x4"/>
    </TTGlyph>
    <TTGlyph name="edieresis" xMin="87" yMin="-20" xMax="952" yMax="1475">
      <component glyphName=".ttfautohint" x="87" y="0" flags="0x0"/>
      <component glyphName="e" x="0" y="0" flags="0x0"/>
      <component glyphName="dieresis" x="117" y="-2" flags="0x4"/>
    </TTGlyph>
    <TTGlyph name="egrave" xMin="87" yMin="-20" xMax="952" yMax="1534">
      <component glyphName=".ttfautohint" x="87" y="0" flags="0x0"/>
      <component glyphName="e" x="0" y="0" flags="0x0"/>
      <component glyphName="gravecomb" x="1111" y="-2" flags="0x4"/>
    </TTGlyph>
    <TTGlyph name="eight" xMin="100" yMin="-20" xMax="1028" yMax="1476">
      <contour>
        <pt x="807" y="721" on="0"/>
        <pt x="949" y="617" on="0"/>
        <pt x="1028" y="468" on="0"/>
        <pt x="1028" y="379" on="1"/>
        <pt x="1028" y="251" on="0"/>
        <pt x="906" y="71" on="0"/>
        <pt x="696" y="-20" on="0"/>
        <pt x="565" y="-20" on="1"/>
        <pt x="431" y="-20" on="0"/>
        <pt x="221" y="71" on="0"/>
        <pt x="100" y="250" on="0"/>
        <pt x="100" y="379" on="1"/>
        <pt x="100" y="468" on="0"/>
        <pt x="178" y="616" on="0"/>
        <pt x="318" y="720" on="0"/>
        <pt x="409" y="745" on="1"/>
        <pt x="287" y="782" on="0"/>
        <pt x="141" y="964" on="0"/>
        <pt x="141" y="1086" on="1"/>
        <pt x="141" y="1209" on="0"/>
        <pt x="250" y="1385" on="0"/>
        <pt x="440" y="1476" on="0"/>
        <pt x="561" y="1476" on="1"/>
        <pt x="680" y="1476" on="0"/>
        <pt x="874" y="1385" on="0"/>
        <pt x="986" y="1209" on="0"/>
        <pt x="986" y="1086" on="1"/>
        <pt x="986" y="964" on="0"/>
        <pt x="837" y="783" on="0"/>
        <pt x="716" y="745" on="1"/>
      </contour>
      <contour>
        <pt x="195" y="995" on="0"/>
        <pt x="290" y="850" on="0"/>
        <pt x="457" y="772" on="0"/>
        <pt x="563" y="772" on="1"/>
        <pt x="666" y="772" on="0"/>
        <pt x="834" y="850" on="0"/>
        <pt x="932" y="995" on="0"/>
        <pt x="932" y="1091" on="1"/>
        <pt x="932" y="1186" on="0"/>
        <pt x="833" y="1337" on="0"/>
        <pt x="663" y="1422" on="0"/>
        <pt x="561" y="1422" on="1"/>
        <pt x="456" y="1422" on="0"/>
        <pt x="290" y="1342" on="0"/>
        <pt x="195" y="1192" on="0"/>
        <pt x="195" y="1091" on="1"/>
      </contour>
      <contour>
        <pt x="680" y="34" on="0"/>
        <pt x="866" y="114" on="0"/>
        <pt x="973" y="267" on="0"/>
        <pt x="973" y="374" on="1"/>
        <pt x="973" y="476" on="0"/>
        <pt x="864" y="633" on="0"/>
        <pt x="677" y="718" on="0"/>
        <pt x="563" y="718" on="1"/>
        <pt x="448" y="718" on="0"/>
        <pt x="261" y="633" on="0"/>
        <pt x="154" y="477" on="0"/>
        <pt x="154" y="374" on="1"/>
        <pt x="154" y="267" on="0"/>
        <pt x="261" y="113" on="0"/>
        <pt x="447" y="34" on="0"/>
        <pt x="565" y="34" on="1"/>
      </contour>
    </TTGlyph>
    <TTGlyph name="eight.frac" xMin="80" yMin="653" xMax="647" yMax="1464">
      <component glyphName=".ttfautohint" x="80" y="653" flags="0x0"/>
      <component glyphName="eight.sup" x="0" y="664" flags="0x4"/>
    </TTGlyph>
    <TTGlyph name="eight.smcp" xMin="88" yMin="-16" xMax="923" yMax="1181">
      <contour>
        <pt x="774" y="565" on="0"/>
        <pt x="923" y="409" on="0"/>
        <pt x="923" y="305" on="1"/>
        <pt x="923" y="202" on="0"/>
        <pt x="814" y="57" on="0"/>
        <pt x="625" y="-16" on="0"/>
        <pt x="507" y="-16" on="1"/>
        <pt x="386" y="-16" on="0"/>
        <pt x="197" y="57" on="0"/>
        <pt x="88" y="202" on="0"/>
        <pt x="88" y="305" on="1"/>
        <pt x="88" y="410" on="0"/>
        <pt x="237" y="565" on="0"/>
        <pt x="359" y="596" on="1"/>
        <pt x="253" y="627" on="0"/>
        <pt x="125" y="771" on="0"/>
        <pt x="125" y="867" on="1"/>
        <pt x="125" y="966" on="0"/>
        <pt x="224" y="1108" on="0"/>
        <pt x="397" y="1181" on="0"/>
        <pt x="505" y="1181" on="1"/>
        <pt x="613" y="1181" on="0"/>
        <pt x="786" y="1107" on="0"/>
        <pt x="886" y="966" on="0"/>
        <pt x="886" y="867" on="1"/>
        <pt x="886" y="771" on="0"/>
        <pt x="758" y="627" on="0"/>
        <pt x="652" y="596" on="1"/>
      </contour>
      <contour>
        <pt x="179" y="796" on="0"/>
        <pt x="264" y="683" on="0"/>
        <pt x="413" y="623" on="0"/>
        <pt x="507" y="623" on="1"/>
        <pt x="598" y="623" on="0"/>
        <pt x="746" y="684" on="0"/>
        <pt x="832" y="796" on="0"/>
        <pt x="832" y="870" on="1"/>
        <pt x="832" y="943" on="0"/>
        <pt x="745" y="1060" on="0"/>
        <pt x="595" y="1126" on="0"/>
        <pt x="505" y="1126" on="1"/>
        <pt x="412" y="1126" on="0"/>
        <pt x="263" y="1064" on="0"/>
        <pt x="179" y="948" on="0"/>
        <pt x="179" y="870" on="1"/>
      </contour>
      <contour>
        <pt x="609" y="37" on="0"/>
        <pt x="773" y="99" on="0"/>
        <pt x="868" y="219" on="0"/>
        <pt x="868" y="302" on="1"/>
        <pt x="868" y="381" on="0"/>
        <pt x="771" y="503" on="0"/>
        <pt x="606" y="569" on="0"/>
        <pt x="505" y="569" on="1"/>
        <pt x="403" y="569" on="0"/>
        <pt x="237" y="503" on="0"/>
        <pt x="142" y="381" on="0"/>
        <pt x="142" y="302" on="1"/>
        <pt x="142" y="219" on="0"/>
        <pt x="237" y="99" on="0"/>
        <pt x="402" y="37" on="0"/>
        <pt x="507" y="37" on="1"/>
      </contour>
    </TTGlyph>
    <TTGlyph name="eight.sup" xMin="80" yMin="-11" xMax="647" yMax="800">
      <contour>
        <pt x="551" y="382" on="0"/>
        <pt x="647" y="277" on="0"/>
        <pt x="647" y="208" on="1"/>
        <pt x="647" y="138" on="0"/>
        <pt x="573" y="39" on="0"/>
        <pt x="445" y="-11" on="0"/>
        <pt x="365" y="-11" on="1"/>
        <pt x="283" y="-11" on="0"/>
        <pt x="154" y="39" on="0"/>
        <pt x="80" y="138" on="0"/>
        <pt x="80" y="208" on="1"/>
        <pt x="80" y="278" on="0"/>
        <pt x="175" y="382" on="0"/>
        <pt x="255" y="405" on="1"/>
        <pt x="186" y="427" on="0"/>
        <pt x="105" y="523" on="0"/>
        <pt x="105" y="586" on="1"/>
        <pt x="105" y="653" on="0"/>
        <pt x="172" y="750" on="0"/>
        <pt x="289" y="800" on="0"/>
        <pt x="363" y="800" on="1"/>
        <pt x="437" y="800" on="0"/>
        <pt x="555" y="750" on="0"/>
        <pt x="623" y="653" on="0"/>
        <pt x="623" y="586" on="1"/>
        <pt x="623" y="523" on="0"/>
        <pt x="541" y="426" on="0"/>
        <pt x="472" y="404" on="1"/>
      </contour>
      <contour>
        <pt x="158" y="515" on="0"/>
        <pt x="274" y="428" on="0"/>
        <pt x="365" y="428" on="1"/>
        <pt x="423" y="428" on="0"/>
        <pt x="516" y="467" on="0"/>
        <pt x="570" y="539" on="0"/>
        <pt x="570" y="587" on="1"/>
        <pt x="570" y="634" on="0"/>
        <pt x="515" y="709" on="0"/>
        <pt x="421" y="751" on="0"/>
        <pt x="363" y="751" on="1"/>
        <pt x="273" y="751" on="0"/>
        <pt x="158" y="662" on="0"/>
        <pt x="158" y="587" on="1"/>
      </contour>
      <contour>
        <pt x="465" y="37" on="0"/>
        <pt x="593" y="127" on="0"/>
        <pt x="593" y="207" on="1"/>
        <pt x="593" y="258" on="0"/>
        <pt x="532" y="336" on="0"/>
        <pt x="428" y="379" on="0"/>
        <pt x="363" y="379" on="1"/>
        <pt x="298" y="379" on="0"/>
        <pt x="193" y="337" on="0"/>
        <pt x="134" y="258" on="0"/>
        <pt x="134" y="207" on="1"/>
        <pt x="134" y="127" on="0"/>
        <pt x="262" y="37" on="0"/>
        <pt x="365" y="37" on="1"/>
      </contour>
    </TTGlyph>
    <TTGlyph name="eight.tnum" xMin="96" yMin="-20" xMax="1024" yMax="1476">
      <component glyphName=".ttfautohint" x="96" y="0" flags="0x0"/>
      <component glyphName="eight" x="-4" y="0" flags="0x0"/>
    </TTGlyph>
    <TTGlyph name="ellipsis" xMin="185" yMin="-6" xMax="1049" yMax="105">
      <component glyphName=".ttfautohint" x="185" y="0" flags="0x0"/>
      <component glyphName="period" x="38" y="0" flags="0x0"/>
      <component glyphName="period" x="422" y="0" flags="0x0"/>
      <component glyphName="period" x="791" y="0" flags="0x0"/>
    </TTGlyph>
    <TTGlyph name="emdash" xMin="109" yMin="721" xMax="1445" yMax="775">
      <component glyphName=".ttfautohint" x="109" y="721" flags="0x0"/>
      <component glyphName="minus" x="-152" y="0" scalex="1.6" scaley="1.0" flags="0x0"/>
    </TTGlyph>
    <TTGlyph name="endash" xMin="156" yMin="721" xMax="1158" yMax="775">
      <component glyphName=".ttfautohint" x="156" y="721" flags="0x0"/>
      <component glyphName="minus" x="-40" y="0" scalex="1.2" scaley="1.0" flags="0x0"/>
    </TTGlyph>
    <TTGlyph name="equal" xMin="147" yMin="436" xMax="981" yMax="897">
      <contour>
        <pt x="147" y="843" on="1"/>
        <pt x="147" y="897" on="1"/>
        <pt x="981" y="897" on="1"/>
        <pt x="981" y="843" on="1"/>
      </contour>
      <contour>
        <pt x="147" y="436" on="1"/>
        <pt x="147" y="490" on="1"/>
        <pt x="981" y="490" on="1"/>
        <pt x="981" y="436" on="1"/>
      </contour>
    </TTGlyph>
    <TTGlyph name="eth" xMin="173" yMin="-20" xMax="1041" yMax="1577">
      <contour>
        <pt x="923" y="1183" on="0"/>
        <pt x="1041" y="842" on="0"/>
        <pt x="1041" y="615" on="1"/>
        <pt x="1041" y="535" on="1"/>
        <pt x="1041" y="373" on="0"/>
        <pt x="935" y="120" on="0"/>
        <pt x="748" y="-20" on="0"/>
        <pt x="629" y="-20" on="1"/>
        <pt x="498" y="-20" on="0"/>
        <pt x="290" y="109" on="0"/>
        <pt x="173" y="330" on="0"/>
        <pt x="173" y="465" on="1"/>
        <pt x="173" y="619" on="0"/>
        <pt x="275" y="838" on="0"/>
        <pt x="467" y="953" on="0"/>
        <pt x="601" y="953" on="1"/>
        <pt x="716" y="953" on="0"/>
        <pt x="919" y="862" on="0"/>
        <pt x="978" y="780" on="1"/>
        <pt x="959" y="942" on="0"/>
        <pt x="844" y="1187" on="0"/>
        <pt x="752" y="1280" on="1"/>
        <pt x="517" y="1149" on="1"/>
        <pt x="489" y="1197" on="1"/>
        <pt x="709" y="1320" on="1"/>
        <pt x="569" y="1441" on="0"/>
        <pt x="338" y="1527" on="1"/>
        <pt x="358" y="1577" on="1"/>
        <pt x="608" y="1486" on="0"/>
        <pt x="760" y="1348" on="1"/>
        <pt x="962" y="1461" on="1"/>
        <pt x="991" y="1413" on="1"/>
        <pt x="802" y="1308" on="1"/>
      </contour>
      <contour>
        <pt x="987" y="617" on="1"/>
        <pt x="987" y="654" on="0"/>
        <pt x="986" y="672" on="1"/>
        <pt x="961" y="731" on="0"/>
        <pt x="859" y="832" on="0"/>
        <pt x="702" y="895" on="0"/>
        <pt x="601" y="895" on="1"/>
        <pt x="475" y="895" on="0"/>
        <pt x="307" y="783" on="0"/>
        <pt x="228" y="589" on="0"/>
        <pt x="228" y="465" on="1"/>
        <pt x="228" y="355" on="0"/>
        <pt x="324" y="159" on="0"/>
        <pt x="508" y="38" on="0"/>
        <pt x="633" y="38" on="1"/>
        <pt x="740" y="38" on="0"/>
        <pt x="900" y="165" on="0"/>
        <pt x="987" y="391" on="0"/>
        <pt x="987" y="535" on="1"/>
      </contour>
    </TTGlyph>
    <TTGlyph name="exclam" xMin="147" yMin="-6" xMax="258" yMax="1456">
      <contour>
        <pt x="167" y="401" on="1"/>
        <pt x="167" y="1456" on="1"/>
        <pt x="221" y="1456" on="1"/>
        <pt x="221" y="401" on="1"/>
      </contour>
      <contour>
        <pt x="225" y="105" on="0"/>
        <pt x="258" y="72" on="0"/>
        <pt x="258" y="49" on="1"/>
        <pt x="258" y="26" on="0"/>
        <pt x="225" y="-6" on="0"/>
        <pt x="202" y="-6" on="1"/>
        <pt x="179" y="-6" on="0"/>
        <pt x="147" y="26" on="0"/>
        <pt x="147" y="49" on="1"/>
        <pt x="147" y="72" on="0"/>
        <pt x="179" y="105" on="0"/>
        <pt x="202" y="105" on="1"/>
      </contour>
    </TTGlyph>
    <TTGlyph name="exclamdown" xMin="142" yMin="-359" xMax="253" yMax="1103">
      <contour>
        <pt x="175" y="992" on="0"/>
        <pt x="142" y="1025" on="0"/>
        <pt x="142" y="1048" on="1"/>
        <pt x="142" y="1071" on="0"/>
        <pt x="175" y="1103" on="0"/>
        <pt x="198" y="1103" on="1"/>
        <pt x="221" y="1103" on="0"/>
        <pt x="253" y="1071" on="0"/>
        <pt x="253" y="1048" on="1"/>
        <pt x="253" y="1025" on="0"/>
        <pt x="221" y="992" on="0"/>
        <pt x="198" y="992" on="1"/>
      </contour>
      <contour>
        <pt x="233" y="696" on="1"/>
        <pt x="233" y="-359" on="1"/>
        <pt x="179" y="-359" on="1"/>
        <pt x="179" y="696" on="1"/>
      </contour>
    </TTGlyph>
    <TTGlyph name="f" xMin="66" yMin="0" xMax="665" yMax="1557">
      <contour>
        <pt x="431" y="1503" on="0"/>
        <pt x="308" y="1362" on="0"/>
        <pt x="308" y="1236" on="1"/>
        <pt x="308" y="1082" on="1"/>
        <pt x="594" y="1082" on="1"/>
        <pt x="594" y="1027" on="1"/>
        <pt x="308" y="1027" on="1"/>
        <pt x="308" y="0" on="1"/>
        <pt x="254" y="0" on="1"/>
        <pt x="254" y="1027" on="1"/>
        <pt x="66" y="1027" on="1"/>
        <pt x="66" y="1082" on="1"/>
        <pt x="254" y="1082" on="1"/>
        <pt x="254" y="1236" on="1"/>
        <pt x="254" y="1390" on="0"/>
        <pt x="404" y="1557" on="0"/>
        <pt x="537" y="1557" on="1"/>
        <pt x="610" y="1557" on="0"/>
        <pt x="665" y="1540" on="1"/>
        <pt x="657" y="1488" on="1"/>
        <pt x="626" y="1496" on="0"/>
        <pt x="576" y="1503" on="0"/>
        <pt x="538" y="1503" on="1"/>
      </contour>
    </TTGlyph>
    <TTGlyph name="f_f" xMin="66" yMin="0" xMax="1310" yMax="1557">
      <component glyphName=".ttfautohint" x="66" y="0" flags="0x0"/>
      <component glyphName="f" x="0" y="0" flags="0x0"/>
      <component glyphName="f" x="645" y="0" flags="0x0"/>
    </TTGlyph>
    <TTGlyph name="f_f_i" xMin="66" yMin="0" xMax="1460" yMax="1557">
      <contour>
        <pt x="884" y="1082" on="1"/>
        <pt x="1170" y="1082" on="1"/>
        <pt x="1170" y="1027" on="1"/>
        <pt x="884" y="1027" on="1"/>
        <pt x="884" y="0" on="1"/>
        <pt x="830" y="0" on="1"/>
        <pt x="830" y="1027" on="1"/>
        <pt x="308" y="1027" on="1"/>
        <pt x="308" y="0" on="1"/>
        <pt x="254" y="0" on="1"/>
        <pt x="254" y="1027" on="1"/>
        <pt x="66" y="1027" on="1"/>
        <pt x="66" y="1082" on="1"/>
        <pt x="254" y="1082" on="1"/>
        <pt x="254" y="1236" on="1"/>
        <pt x="254" y="1390" on="0"/>
        <pt x="404" y="1557" on="0"/>
        <pt x="537" y="1557" on="1"/>
        <pt x="610" y="1557" on="0"/>
        <pt x="665" y="1540" on="1"/>
        <pt x="657" y="1488" on="1"/>
        <pt x="626" y="1496" on="0"/>
        <pt x="576" y="1503" on="0"/>
        <pt x="538" y="1503" on="1"/>
        <pt x="431" y="1503" on="0"/>
        <pt x="308" y="1362" on="0"/>
        <pt x="308" y="1236" on="1"/>
        <pt x="308" y="1082" on="1"/>
        <pt x="830" y="1082" on="1"/>
        <pt x="830" y="1216" on="1"/>
        <pt x="830" y="1379" on="0"/>
        <pt x="1001" y="1557" on="0"/>
        <pt x="1153" y="1557" on="1"/>
        <pt x="1300" y="1557" on="0"/>
        <pt x="1421" y="1500" on="1"/>
        <pt x="1413" y="1448" on="1"/>
        <pt x="1348" y="1477" on="0"/>
        <pt x="1237" y="1503" on="0"/>
        <pt x="1154" y="1503" on="1"/>
        <pt x="1029" y="1503" on="0"/>
        <pt x="884" y="1351" on="0"/>
        <pt x="884" y="1216" on="1"/>
      </contour>
      <contour>
        <pt x="1460" y="1082" on="1"/>
        <pt x="1460" y="0" on="1"/>
        <pt x="1406" y="0" on="1"/>
        <pt x="1406" y="1082" on="1"/>
      </contour>
    </TTGlyph>
    <TTGlyph name="f_f_l" xMin="66" yMin="0" xMax="1460" yMax="1557">
      <contour>
        <pt x="1181" y="1557" on="0"/>
        <pt x="1364" y="1523" on="0"/>
        <pt x="1460" y="1496" on="1"/>
        <pt x="1460" y="0" on="1"/>
        <pt x="1406" y="0" on="1"/>
        <pt x="1406" y="1461" on="1"/>
        <pt x="1306" y="1483" on="0"/>
        <pt x="1180" y="1503" on="0"/>
        <pt x="1114" y="1503" on="1"/>
        <pt x="1007" y="1503" on="0"/>
        <pt x="884" y="1362" on="0"/>
        <pt x="884" y="1236" on="1"/>
        <pt x="884" y="1082" on="1"/>
        <pt x="1170" y="1082" on="1"/>
        <pt x="1170" y="1027" on="1"/>
        <pt x="884" y="1027" on="1"/>
        <pt x="884" y="0" on="1"/>
        <pt x="830" y="0" on="1"/>
        <pt x="830" y="1027" on="1"/>
        <pt x="308" y="1027" on="1"/>
        <pt x="308" y="0" on="1"/>
        <pt x="254" y="0" on="1"/>
        <pt x="254" y="1027" on="1"/>
        <pt x="66" y="1027" on="1"/>
        <pt x="66" y="1082" on="1"/>
        <pt x="254" y="1082" on="1"/>
        <pt x="254" y="1236" on="1"/>
        <pt x="254" y="1390" on="0"/>
        <pt x="404" y="1557" on="0"/>
        <pt x="537" y="1557" on="1"/>
        <pt x="610" y="1557" on="0"/>
        <pt x="665" y="1540" on="1"/>
        <pt x="657" y="1488" on="1"/>
        <pt x="626" y="1496" on="0"/>
        <pt x="576" y="1503" on="0"/>
        <pt x="538" y="1503" on="1"/>
        <pt x="431" y="1503" on="0"/>
        <pt x="308" y="1362" on="0"/>
        <pt x="308" y="1236" on="1"/>
        <pt x="308" y="1082" on="1"/>
        <pt x="830" y="1082" on="1"/>
        <pt x="830" y="1236" on="1"/>
        <pt x="830" y="1390" on="0"/>
        <pt x="980" y="1557" on="0"/>
        <pt x="1113" y="1557" on="1"/>
      </contour>
    </TTGlyph>
    <TTGlyph name="f_l" xMin="66" yMin="0" xMax="884" yMax="1557">
      <contour>
        <pt x="605" y="1557" on="0"/>
        <pt x="788" y="1523" on="0"/>
        <pt x="884" y="1496" on="1"/>
        <pt x="884" y="0" on="1"/>
        <pt x="830" y="0" on="1"/>
        <pt x="830" y="1461" on="1"/>
        <pt x="730" y="1483" on="0"/>
        <pt x="604" y="1503" on="0"/>
        <pt x="538" y="1503" on="1"/>
        <pt x="431" y="1503" on="0"/>
        <pt x="308" y="1362" on="0"/>
        <pt x="308" y="1236" on="1"/>
        <pt x="308" y="1082" on="1"/>
        <pt x="594" y="1082" on="1"/>
        <pt x="594" y="1027" on="1"/>
        <pt x="308" y="1027" on="1"/>
        <pt x="308" y="0" on="1"/>
        <pt x="254" y="0" on="1"/>
        <pt x="254" y="1027" on="1"/>
        <pt x="66" y="1027" on="1"/>
        <pt x="66" y="1082" on="1"/>
        <pt x="254" y="1082" on="1"/>
        <pt x="254" y="1236" on="1"/>
        <pt x="254" y="1390" on="0"/>
        <pt x="404" y="1557" on="0"/>
        <pt x="537" y="1557" on="1"/>
      </contour>
    </TTGlyph>
    <TTGlyph name="fi" xMin="66" yMin="0" xMax="884" yMax="1557">
      <contour>
        <pt x="308" y="1082" on="1"/>
        <pt x="594" y="1082" on="1"/>
        <pt x="594" y="1027" on="1"/>
        <pt x="308" y="1027" on="1"/>
        <pt x="308" y="0" on="1"/>
        <pt x="254" y="0" on="1"/>
        <pt x="254" y="1027" on="1"/>
        <pt x="66" y="1027" on="1"/>
        <pt x="66" y="1082" on="1"/>
        <pt x="254" y="1082" on="1"/>
        <pt x="254" y="1216" on="1"/>
        <pt x="254" y="1379" on="0"/>
        <pt x="425" y="1557" on="0"/>
        <pt x="577" y="1557" on="1"/>
        <pt x="724" y="1557" on="0"/>
        <pt x="845" y="1500" on="1"/>
        <pt x="837" y="1448" on="1"/>
        <pt x="772" y="1477" on="0"/>
        <pt x="661" y="1503" on="0"/>
        <pt x="578" y="1503" on="1"/>
        <pt x="453" y="1503" on="0"/>
        <pt x="308" y="1351" on="0"/>
        <pt x="308" y="1216" on="1"/>
      </contour>
      <contour>
        <pt x="884" y="1082" on="1"/>
        <pt x="884" y="0" on="1"/>
        <pt x="830" y="0" on="1"/>
        <pt x="830" y="1082" on="1"/>
      </contour>
    </TTGlyph>
    <TTGlyph name="five" xMin="182" yMin="-20" xMax="1024" yMax="1456">
      <contour>
        <pt x="299" y="1456" on="1"/>
        <pt x="1009" y="1456" on="1"/>
        <pt x="1009" y="1403" on="1"/>
        <pt x="348" y="1403" on="1"/>
        <pt x="289" y="819" on="1"/>
        <pt x="331" y="855" on="0"/>
        <pt x="501" y="916" on="0"/>
        <pt x="594" y="916" on="1"/>
        <pt x="720" y="916" on="0"/>
        <pt x="915" y="808" on="0"/>
        <pt x="1024" y="603" on="0"/>
        <pt x="1024" y="464" on="1"/>
        <pt x="1024" y="241" on="0"/>
        <pt x="824" y="-20" on="0"/>
        <pt x="614" y="-20" on="1"/>
        <pt x="497" y="-20" on="0"/>
        <pt x="310" y="69" on="0"/>
        <pt x="193" y="250" on="0"/>
        <pt x="182" y="383" on="1"/>
        <pt x="237" y="383" on="1"/>
        <pt x="253" y="213" on="0"/>
        <pt x="446" y="34" on="0"/>
        <pt x="614" y="34" on="1"/>
        <pt x="792" y="34" on="0"/>
        <pt x="969" y="250" on="0"/>
        <pt x="969" y="462" on="1"/>
        <pt x="969" y="577" on="0"/>
        <pt x="881" y="759" on="0"/>
        <pt x="712" y="862" on="0"/>
        <pt x="595" y="862" on="1"/>
        <pt x="485" y="862" on="0"/>
        <pt x="333" y="803" on="0"/>
        <pt x="272" y="746" on="1"/>
        <pt x="231" y="762" on="1"/>
      </contour>
    </TTGlyph>
    <TTGlyph name="five.frac" xMin="125" yMin="653" xMax="650" yMax="1453">
      <component glyphName=".ttfautohint" x="125" y="653" flags="0x0"/>
      <component glyphName="five.sup" x="0" y="664" flags="0x4"/>
    </TTGlyph>
    <TTGlyph name="five.smcp" xMin="162" yMin="-16" xMax="923" yMax="1165">
      <contour>
        <pt x="260" y="1165" on="1"/>
        <pt x="913" y="1165" on="1"/>
        <pt x="913" y="1109" on="1"/>
        <pt x="304" y="1109" on="1"/>
        <pt x="247" y="662" on="1"/>
        <pt x="287" y="690" on="0"/>
        <pt x="438" y="736" on="0"/>
        <pt x="526" y="736" on="1"/>
        <pt x="640" y="736" on="0"/>
        <pt x="820" y="648" on="0"/>
        <pt x="923" y="482" on="0"/>
        <pt x="923" y="371" on="1"/>
        <pt x="923" y="193" on="0"/>
        <pt x="733" y="-16" on="0"/>
        <pt x="535" y="-16" on="1"/>
        <pt x="445" y="-16" on="0"/>
        <pt x="281" y="56" on="0"/>
        <pt x="171" y="202" on="0"/>
        <pt x="162" y="306" on="1"/>
        <pt x="217" y="306" on="1"/>
        <pt x="226" y="221" on="0"/>
        <pt x="315" y="100" on="0"/>
        <pt x="453" y="37" on="0"/>
        <pt x="535" y="37" on="1"/>
        <pt x="707" y="37" on="0"/>
        <pt x="868" y="205" on="0"/>
        <pt x="868" y="370" on="1"/>
        <pt x="868" y="464" on="0"/>
        <pt x="788" y="604" on="0"/>
        <pt x="634" y="681" on="0"/>
        <pt x="526" y="681" on="1"/>
        <pt x="420" y="681" on="0"/>
        <pt x="290" y="637" on="0"/>
        <pt x="230" y="590" on="1"/>
        <pt x="189" y="606" on="1"/>
      </contour>
    </TTGlyph>
    <TTGlyph name="five.sup" xMin="125" yMin="-11" xMax="650" yMax="789">
      <contour>
        <pt x="192" y="789" on="1"/>
        <pt x="639" y="789" on="1"/>
        <pt x="639" y="738" on="1"/>
        <pt x="237" y="738" on="1"/>
        <pt x="200" y="455" on="1"/>
        <pt x="228" y="473" on="0"/>
        <pt x="324" y="501" on="0"/>
        <pt x="381" y="501" on="1"/>
        <pt x="459" y="501" on="0"/>
        <pt x="581" y="441" on="0"/>
        <pt x="650" y="327" on="0"/>
        <pt x="650" y="251" on="1"/>
        <pt x="650" y="132" on="0"/>
        <pt x="519" y="-11" on="0"/>
        <pt x="384" y="-11" on="1"/>
        <pt x="321" y="-11" on="0"/>
        <pt x="207" y="38" on="0"/>
        <pt x="131" y="137" on="0"/>
        <pt x="125" y="208" on="1"/>
        <pt x="179" y="208" on="1"/>
        <pt x="187" y="127" on="0"/>
        <pt x="302" y="37" on="0"/>
        <pt x="384" y="37" on="1"/>
        <pt x="597" y="37" on="0"/>
        <pt x="597" y="251" on="1"/>
        <pt x="597" y="343" on="0"/>
        <pt x="480" y="453" on="0"/>
        <pt x="376" y="453" on="1"/>
        <pt x="308" y="453" on="0"/>
        <pt x="226" y="424" on="0"/>
        <pt x="186" y="394" on="1"/>
        <pt x="145" y="407" on="1"/>
      </contour>
    </TTGlyph>
    <TTGlyph name="four" xMin="82" yMin="0" xMax="1094" yMax="1456">
      <contour>
        <pt x="1094" y="397" on="1"/>
        <pt x="842" y="397" on="1"/>
        <pt x="842" y="0" on="1"/>
        <pt x="788" y="0" on="1"/>
        <pt x="788" y="397" on="1"/>
        <pt x="82" y="397" on="1"/>
        <pt x="82" y="427" on="1"/>
        <pt x="777" y="1456" on="1"/>
        <pt x="842" y="1456" on="1"/>
        <pt x="842" y="451" on="1"/>
        <pt x="1094" y="451" on="1"/>
      </contour>
      <contour>
        <pt x="788" y="451" on="1"/>
        <pt x="788" y="1392" on="1"/>
        <pt x="704" y="1253" on="1"/>
        <pt x="166" y="451" on="1"/>
      </contour>
    </TTGlyph>
    <TTGlyph name="four.frac" xMin="65" yMin="664" xMax="689" yMax="1453">
      <component glyphName=".ttfautohint" x="65" y="664" flags="0x0"/>
      <component glyphName="four.sup" x="0" y="664" flags="0x4"/>
    </TTGlyph>
    <TTGlyph name="four.smcp" xMin="72" yMin="0" xMax="985" yMax="1165">
      <contour>
        <pt x="985" y="310" on="1"/>
        <pt x="760" y="310" on="1"/>
        <pt x="760" y="0" on="1"/>
        <pt x="706" y="0" on="1"/>
        <pt x="706" y="310" on="1"/>
        <pt x="72" y="310" on="1"/>
        <pt x="72" y="343" on="1"/>
        <pt x="696" y="1165" on="1"/>
        <pt x="760" y="1165" on="1"/>
        <pt x="760" y="365" on="1"/>
        <pt x="985" y="365" on="1"/>
      </contour>
      <contour>
        <pt x="706" y="365" on="1"/>
        <pt x="706" y="1105" on="1"/>
        <pt x="633" y="991" on="1"/>
        <pt x="153" y="365" on="1"/>
      </contour>
    </TTGlyph>
    <TTGlyph name="four.sup" xMin="65" yMin="0" xMax="689" yMax="789">
      <contour>
        <pt x="689" y="204" on="1"/>
        <pt x="542" y="204" on="1"/>
        <pt x="542" y="0" on="1"/>
        <pt x="489" y="0" on="1"/>
        <pt x="489" y="204" on="1"/>
        <pt x="66" y="204" on="1"/>
        <pt x="65" y="236" on="1"/>
        <pt x="482" y="789" on="1"/>
        <pt x="542" y="789" on="1"/>
        <pt x="542" y="253" on="1"/>
        <pt x="689" y="253" on="1"/>
      </contour>
      <contour>
        <pt x="489" y="253" on="1"/>
        <pt x="489" y="727" on="1"/>
        <pt x="445" y="656" on="1"/>
        <pt x="135" y="253" on="1"/>
      </contour>
    </TTGlyph>
    <TTGlyph name="fraction" xMin="65" yMin="131" xMax="821" yMax="1300">
      <contour>
        <pt x="65" y="162" on="1"/>
        <pt x="776" y="1300" on="1"/>
        <pt x="821" y="1269" on="1"/>
        <pt x="110" y="131" on="1"/>
      </contour>
    </TTGlyph>
    <TTGlyph name="g" xMin="121" yMin="-436" xMax="950" yMax="1102">
      <contour>
        <pt x="950" y="1082" on="1"/>
        <pt x="950" y="15" on="1"/>
        <pt x="950" y="-123" on="0"/>
        <pt x="852" y="-326" on="0"/>
        <pt x="667" y="-436" on="0"/>
        <pt x="541" y="-436" on="1"/>
        <pt x="427" y="-436" on="0"/>
        <pt x="249" y="-339" on="0"/>
        <pt x="187" y="-254" on="1"/>
        <pt x="225" y="-218" on="1"/>
        <pt x="290" y="-300" on="0"/>
        <pt x="441" y="-383" on="0"/>
        <pt x="539" y="-383" on="1"/>
        <pt x="712" y="-383" on="0"/>
        <pt x="895" y="-171" on="0"/>
        <pt x="895" y="15" on="1"/>
        <pt x="895" y="172" on="1"/>
        <pt x="842" y="84" on="0"/>
        <pt x="655" y="-20" on="0"/>
        <pt x="527" y="-20" on="1"/>
        <pt x="401" y="-20" on="0"/>
        <pt x="218" y="117" on="0"/>
        <pt x="121" y="366" on="0"/>
        <pt x="121" y="531" on="1"/>
        <pt x="121" y="552" on="1"/>
        <pt x="121" y="722" on="0"/>
        <pt x="218" y="970" on="0"/>
        <pt x="402" y="1102" on="0"/>
        <pt x="529" y="1102" on="1"/>
        <pt x="657" y="1102" on="0"/>
        <pt x="841" y="987" on="0"/>
        <pt x="895" y="885" on="1"/>
        <pt x="895" y="1082" on="1"/>
      </contour>
      <contour>
        <pt x="670" y="34" on="0"/>
        <pt x="856" y="166" on="0"/>
        <pt x="895" y="276" on="1"/>
        <pt x="895" y="767" on="1"/>
        <pt x="859" y="886" on="0"/>
        <pt x="687" y="1048" on="0"/>
        <pt x="528" y="1048" on="1"/>
        <pt x="412" y="1048" on="0"/>
        <pt x="254" y="922" on="0"/>
        <pt x="176" y="698" on="0"/>
        <pt x="176" y="552" on="1"/>
        <pt x="176" y="531" on="1"/>
        <pt x="176" y="384" on="0"/>
        <pt x="254" y="160" on="0"/>
        <pt x="411" y="34" on="0"/>
        <pt x="526" y="34" on="1"/>
      </contour>
    </TTGlyph>
    <TTGlyph name="g.alt" xMin="90" yMin="-438" xMax="989" yMax="1102">
      <contour>
        <pt x="726" y="178" on="0"/>
        <pt x="894" y="114" on="0"/>
        <pt x="989" y="-15" on="0"/>
        <pt x="989" y="-107" on="1"/>
        <pt x="989" y="-186" on="0"/>
        <pt x="870" y="-340" on="0"/>
        <pt x="645" y="-438" on="0"/>
        <pt x="494" y="-438" on="1"/>
        <pt x="365" y="-438" on="0"/>
        <pt x="183" y="-362" on="0"/>
        <pt x="90" y="-233" on="0"/>
        <pt x="90" y="-152" on="1"/>
        <pt x="90" y="-49" on="0"/>
        <pt x="223" y="105" on="0"/>
        <pt x="325" y="147" on="1"/>
        <pt x="248" y="188" on="0"/>
        <pt x="248" y="288" on="1"/>
        <pt x="248" y="385" on="0"/>
        <pt x="338" y="461" on="1"/>
        <pt x="250" y="503" on="0"/>
        <pt x="147" y="652" on="0"/>
        <pt x="147" y="740" on="1"/>
        <pt x="147" y="762" on="1"/>
        <pt x="147" y="859" on="0"/>
        <pt x="246" y="1014" on="0"/>
        <pt x="421" y="1102" on="0"/>
        <pt x="530" y="1102" on="1"/>
        <pt x="603" y="1102" on="0"/>
        <pt x="668" y="1082" on="1"/>
        <pt x="978" y="1082" on="1"/>
        <pt x="980" y="1028" on="1"/>
        <pt x="778" y="1028" on="1"/>
        <pt x="843" y="982" on="0"/>
        <pt x="914" y="844" on="0"/>
        <pt x="914" y="762" on="1"/>
        <pt x="914" y="740" on="1"/>
        <pt x="914" y="653" on="0"/>
        <pt x="815" y="506" on="0"/>
        <pt x="640" y="419" on="0"/>
        <pt x="532" y="419" on="1"/>
        <pt x="461" y="419" on="0"/>
        <pt x="396" y="439" on="1"/>
        <pt x="302" y="372" on="0"/>
        <pt x="302" y="288" on="1"/>
        <pt x="302" y="178" on="0"/>
        <pt x="429" y="178" on="1"/>
        <pt x="619" y="178" on="1"/>
      </contour>
      <contour>
        <pt x="201" y="666" on="0"/>
        <pt x="302" y="532" on="0"/>
        <pt x="389" y="499" on="1"/>
        <pt x="389" y="498" on="1"/>
        <pt x="455" y="473" on="0"/>
        <pt x="532" y="473" on="1"/>
        <pt x="628" y="473" on="0"/>
        <pt x="778" y="550" on="0"/>
        <pt x="860" y="673" on="0"/>
        <pt x="860" y="740" on="1"/>
        <pt x="860" y="762" on="1"/>
        <pt x="860" y="837" on="0"/>
        <pt x="777" y="969" on="0"/>
        <pt x="627" y="1048" on="0"/>
        <pt x="530" y="1048" on="1"/>
        <pt x="434" y="1048" on="0"/>
        <pt x="284" y="969" on="0"/>
        <pt x="201" y="837" on="0"/>
        <pt x="201" y="762" on="1"/>
        <pt x="201" y="740" on="1"/>
      </contour>
      <contour>
        <pt x="629" y="-384" on="0"/>
        <pt x="829" y="-301" on="0"/>
        <pt x="935" y="-172" on="0"/>
        <pt x="935" y="-107" on="1"/>
        <pt x="935" y="-4" on="0"/>
        <pt x="777" y="124" on="0"/>
        <pt x="619" y="124" on="1"/>
        <pt x="429" y="124" on="1"/>
        <pt x="422" y="124" on="1"/>
        <pt x="348" y="114" on="0"/>
        <pt x="220" y="32" on="0"/>
        <pt x="144" y="-87" on="0"/>
        <pt x="144" y="-152" on="1"/>
        <pt x="144" y="-218" on="0"/>
        <pt x="220" y="-323" on="0"/>
        <pt x="378" y="-384" on="0"/>
        <pt x="494" y="-384" on="1"/>
      </contour>
    </TTGlyph>
    <TTGlyph name="g.ss06" xMin="100" yMin="-436" xMax="949" yMax="1102">
      <contour>
        <pt x="949" y="1082" on="1"/>
        <pt x="949" y="15" on="1"/>
        <pt x="949" y="-123" on="0"/>
        <pt x="851" y="-326" on="0"/>
        <pt x="666" y="-436" on="0"/>
        <pt x="540" y="-436" on="1"/>
        <pt x="462" y="-436" on="0"/>
        <pt x="290" y="-400" on="0"/>
        <pt x="225" y="-367" on="1"/>
        <pt x="242" y="-320" on="1"/>
        <pt x="316" y="-353" on="0"/>
        <pt x="451" y="-383" on="0"/>
        <pt x="538" y="-383" on="1"/>
        <pt x="711" y="-383" on="0"/>
        <pt x="894" y="-171" on="0"/>
        <pt x="894" y="15" on="1"/>
        <pt x="894" y="172" on="1"/>
        <pt x="841" y="84" on="0"/>
        <pt x="654" y="-21" on="0"/>
        <pt x="526" y="-21" on="1"/>
        <pt x="399" y="-21" on="0"/>
        <pt x="206" y="117" on="0"/>
        <pt x="100" y="368" on="0"/>
        <pt x="100" y="531" on="1"/>
        <pt x="100" y="552" on="1"/>
        <pt x="100" y="720" on="0"/>
        <pt x="206" y="969" on="0"/>
        <pt x="400" y="1102" on="0"/>
        <pt x="528" y="1102" on="1"/>
        <pt x="657" y="1102" on="0"/>
        <pt x="842" y="985" on="0"/>
        <pt x="895" y="882" on="1"/>
        <pt x="903" y="1082" on="1"/>
      </contour>
      <contour>
        <pt x="669" y="33" on="0"/>
        <pt x="855" y="166" on="0"/>
        <pt x="894" y="276" on="1"/>
        <pt x="894" y="767" on="1"/>
        <pt x="858" y="886" on="0"/>
        <pt x="686" y="1048" on="0"/>
        <pt x="527" y="1048" on="1"/>
        <pt x="411" y="1048" on="0"/>
        <pt x="243" y="921" on="0"/>
        <pt x="155" y="697" on="0"/>
        <pt x="155" y="552" on="1"/>
        <pt x="155" y="531" on="1"/>
        <pt x="155" y="386" on="0"/>
        <pt x="242" y="160" on="0"/>
        <pt x="410" y="33" on="0"/>
        <pt x="525" y="33" on="1"/>
      </contour>
    </TTGlyph>
    <TTGlyph name="g.ss07" xMin="121" yMin="-436" xMax="950" yMax="1102">
      <contour>
        <pt x="950" y="1082" on="1"/>
        <pt x="950" y="15" on="1"/>
        <pt x="950" y="-123" on="0"/>
        <pt x="852" y="-326" on="0"/>
        <pt x="667" y="-436" on="0"/>
        <pt x="541" y="-436" on="1"/>
        <pt x="463" y="-436" on="0"/>
        <pt x="291" y="-404" on="0"/>
        <pt x="227" y="-374" on="1"/>
        <pt x="243" y="-320" on="1"/>
        <pt x="317" y="-353" on="0"/>
        <pt x="452" y="-383" on="0"/>
        <pt x="539" y="-383" on="1"/>
        <pt x="712" y="-383" on="0"/>
        <pt x="895" y="-171" on="0"/>
        <pt x="895" y="15" on="1"/>
        <pt x="895" y="172" on="1"/>
        <pt x="842" y="84" on="0"/>
        <pt x="655" y="-21" on="0"/>
        <pt x="527" y="-21" on="1"/>
        <pt x="401" y="-21" on="0"/>
        <pt x="218" y="112" on="0"/>
        <pt x="121" y="356" on="0"/>
        <pt x="121" y="521" on="1"/>
        <pt x="121" y="542" on="1"/>
        <pt x="121" y="712" on="0"/>
        <pt x="218" y="965" on="0"/>
        <pt x="402" y="1102" on="0"/>
        <pt x="529" y="1102" on="1"/>
        <pt x="658" y="1102" on="0"/>
        <pt x="843" y="985" on="0"/>
        <pt x="896" y="882" on="1"/>
        <pt x="904" y="1082" on="1"/>
      </contour>
      <contour>
        <pt x="670" y="33" on="0"/>
        <pt x="856" y="166" on="0"/>
        <pt x="895" y="276" on="1"/>
        <pt x="895" y="767" on="1"/>
        <pt x="859" y="886" on="0"/>
        <pt x="687" y="1048" on="0"/>
        <pt x="528" y="1048" on="1"/>
        <pt x="413" y="1048" on="0"/>
        <pt x="254" y="917" on="0"/>
        <pt x="176" y="689" on="0"/>
        <pt x="176" y="542" on="1"/>
        <pt x="176" y="521" on="1"/>
        <pt x="176" y="375" on="0"/>
        <pt x="254" y="155" on="0"/>
        <pt x="411" y="33" on="0"/>
        <pt x="526" y="33" on="1"/>
      </contour>
    </TTGlyph>
    <TTGlyph name="germandbls" xMin="164" yMin="-21" xMax="1062" yMax="1535">
      <contour>
        <pt x="164" y="0" on="1"/>
        <pt x="164" y="1143" on="1"/>
        <pt x="164" y="1333" on="0"/>
        <pt x="334" y="1535" on="0"/>
        <pt x="493" y="1535" on="1"/>
        <pt x="573" y="1535" on="0"/>
        <pt x="716" y="1465" on="0"/>
        <pt x="804" y="1338" on="0"/>
        <pt x="804" y="1257" on="1"/>
        <pt x="804" y="1195" on="0"/>
        <pt x="776" y="1109" on="0"/>
        <pt x="747" y="1054" on="1"/>
        <pt x="717" y="997" on="0"/>
        <pt x="685" y="900" on="0"/>
        <pt x="685" y="829" on="1"/>
        <pt x="685" y="784" on="0"/>
        <pt x="730" y="707" on="0"/>
        <pt x="797" y="646" on="0"/>
        <pt x="855" y="602" on="1"/>
        <pt x="922" y="550" on="0"/>
        <pt x="1005" y="472" on="0"/>
        <pt x="1062" y="365" on="0"/>
        <pt x="1062" y="297" on="1"/>
        <pt x="1062" y="201" on="0"/>
        <pt x="951" y="56" on="0"/>
        <pt x="780" y="-21" on="0"/>
        <pt x="695" y="-21" on="1"/>
        <pt x="608" y="-21" on="0"/>
        <pt x="424" y="32" on="0"/>
        <pt x="383" y="68" on="1"/>
        <pt x="408" y="117" on="1"/>
        <pt x="450" y="84" on="0"/>
        <pt x="611" y="32" on="0"/>
        <pt x="687" y="32" on="1"/>
        <pt x="779" y="32" on="0"/>
        <pt x="925" y="107" on="0"/>
        <pt x="1008" y="233" on="0"/>
        <pt x="1008" y="306" on="1"/>
        <pt x="1008" y="359" on="0"/>
        <pt x="958" y="445" on="0"/>
        <pt x="886" y="512" on="0"/>
        <pt x="824" y="559" on="1"/>
        <pt x="760" y="608" on="0"/>
        <pt x="684" y="678" on="0"/>
        <pt x="631" y="773" on="0"/>
        <pt x="631" y="831" on="1"/>
        <pt x="631" y="902" on="0"/>
        <pt x="661" y="999" on="0"/>
        <pt x="690" y="1061" on="1"/>
        <pt x="717" y="1116" on="0"/>
        <pt x="744" y="1201" on="0"/>
        <pt x="744" y="1259" on="1"/>
        <pt x="744" y="1320" on="0"/>
        <pt x="675" y="1422" on="0"/>
        <pt x="564" y="1481" on="0"/>
        <pt x="503" y="1481" on="1"/>
        <pt x="218" y="1481" on="0"/>
        <pt x="218" y="1143" on="1"/>
        <pt x="218" y="0" on="1"/>
      </contour>
    </TTGlyph>
    <TTGlyph name="grave" xMin="149" yMin="1270" xMax="403" yMax="1536">
      <contour>
        <pt x="344" y="1270" on="1"/>
        <pt x="149" y="1536" on="1"/>
        <pt x="215" y="1536" on="1"/>
        <pt x="403" y="1270" on="1"/>
      </contour>
    </TTGlyph>
    <TTGlyph name="gravecomb" xMin="-744" yMin="1270" xMax="-490" yMax="1536">
      <contour>
        <pt x="-549" y="1270" on="1"/>
        <pt x="-744" y="1536" on="1"/>
        <pt x="-678" y="1536" on="1"/>
        <pt x="-490" y="1270" on="1"/>
      </contour>
    </TTGlyph>
    <TTGlyph name="greater" xMin="114" yMin="265" xMax="950" yMax="1072">
      <contour>
        <pt x="950" y="694" on="1"/>
        <pt x="950" y="644" on="1"/>
        <pt x="114" y="265" on="1"/>
        <pt x="114" y="324" on="1"/>
        <pt x="873" y="668" on="1"/>
        <pt x="114" y="1013" on="1"/>
        <pt x="114" y="1072" on="1"/>
      </contour>
    </TTGlyph>
    <TTGlyph name="guillemotleft" xMin="145" yMin="145" xMax="797" yMax="904">
      <component glyphName=".ttfautohint" x="145" y="145" flags="0x0"/>
      <component glyphName="guilsinglleft" x="37" y="-36" flags="0x4"/>
      <component glyphName="guilsinglleft" x="324" y="-36" flags="0x4"/>
    </TTGlyph>
    <TTGlyph name="guillemotright" xMin="128" yMin="171" xMax="782" yMax="940">
      <component glyphName=".ttfautohint" x="128" y="171" flags="0x0"/>
      <component glyphName="guilsinglright" x="22" y="0" flags="0x0"/>
      <component glyphName="guilsinglright" x="312" y="0" flags="0x0"/>
    </TTGlyph>
    <TTGlyph name="guilsinglleft" xMin="108" yMin="181" xMax="473" yMax="940">
      <contour>
        <pt x="179" y="561" on="1"/>
        <pt x="473" y="181" on="1"/>
        <pt x="403" y="181" on="1"/>
        <pt x="108" y="551" on="1"/>
        <pt x="108" y="570" on="1"/>
        <pt x="403" y="940" on="1"/>
        <pt x="473" y="940" on="1"/>
      </contour>
    </TTGlyph>
    <TTGlyph name="guilsinglright" xMin="106" yMin="171" xMax="470" yMax="940">
      <contour>
        <pt x="470" y="560" on="1"/>
        <pt x="470" y="541" on="1"/>
        <pt x="176" y="171" on="1"/>
        <pt x="106" y="171" on="1"/>
        <pt x="400" y="551" on="1"/>
        <pt x="106" y="940" on="1"/>
        <pt x="176" y="940" on="1"/>
      </contour>
    </TTGlyph>
    <TTGlyph name="h" xMin="172" yMin="0" xMax="954" yMax="1536">
      <contour>
        <pt x="779" y="1102" on="0"/>
        <pt x="954" y="910" on="0"/>
        <pt x="954" y="700" on="1"/>
        <pt x="954" y="0" on="1"/>
        <pt x="900" y="0" on="1"/>
        <pt x="900" y="700" on="1"/>
        <pt x="900" y="894" on="0"/>
        <pt x="748" y="1049" on="0"/>
        <pt x="607" y="1049" on="1"/>
        <pt x="497" y="1049" on="0"/>
        <pt x="338" y="937" on="0"/>
        <pt x="245" y="775" on="0"/>
        <pt x="226" y="693" on="1"/>
        <pt x="226" y="0" on="1"/>
        <pt x="172" y="0" on="1"/>
        <pt x="172" y="1536" on="1"/>
        <pt x="226" y="1536" on="1"/>
        <pt x="226" y="831" on="1"/>
        <pt x="277" y="951" on="0"/>
        <pt x="479" y="1102" on="0"/>
        <pt x="610" y="1102" on="1"/>
      </contour>
    </TTGlyph>
    <TTGlyph name="hyphen" xMin="61" yMin="639" xMax="531" yMax="693">
      <contour>
        <pt x="61" y="639" on="1"/>
        <pt x="61" y="693" on="1"/>
        <pt x="531" y="693" on="1"/>
        <pt x="531" y="639" on="1"/>
      </contour>
    </TTGlyph>
    <TTGlyph name="i" xMin="157" yMin="0" xMax="268" yMax="1476">
      <contour>
        <pt x="235" y="1476" on="0"/>
        <pt x="268" y="1443" on="0"/>
        <pt x="268" y="1420" on="1"/>
        <pt x="268" y="1397" on="0"/>
        <pt x="235" y="1365" on="0"/>
        <pt x="212" y="1365" on="1"/>
        <pt x="189" y="1365" on="0"/>
        <pt x="157" y="1397" on="0"/>
        <pt x="157" y="1420" on="1"/>
        <pt x="157" y="1443" on="0"/>
        <pt x="189" y="1476" on="0"/>
        <pt x="212" y="1476" on="1"/>
      </contour>
      <contour>
        <pt x="185" y="0" on="1"/>
        <pt x="185" y="1082" on="1"/>
        <pt x="239" y="1082" on="1"/>
        <pt x="239" y="0" on="1"/>
      </contour>
    </TTGlyph>
    <TTGlyph name="iacute" xMin="163" yMin="0" xMax="418" yMax="1512">
      <component glyphName=".ttfautohint" x="163" y="0" flags="0x0"/>
      <component glyphName="dotlessi" x="0" y="0" flags="0x0"/>
      <component glyphName="acutecomb" x="737" y="-24" flags="0x4"/>
    </TTGlyph>
    <TTGlyph name="icircumflex" xMin="-41" yMin="0" xMax="463" yMax="1493">
      <component glyphName=".ttfautohint" x="0" y="0" flags="0x0"/>
      <component glyphName="dotlessi" x="0" y="0" flags="0x0"/>
      <component glyphName="circumflex" x="-193" y="-24" flags="0x4"/>
    </TTGlyph>
    <TTGlyph name="idieresis" xMin="-67" yMin="0" xMax="489" yMax="1453">
      <component glyphName=".ttfautohint" x="0" y="0" flags="0x0"/>
      <component glyphName="dotlessi" x="0" y="0" flags="0x0"/>
      <component glyphName="dieresis" x="-241" y="-24" flags="0x4"/>
    </TTGlyph>
    <TTGlyph name="igrave" xMin="9" yMin="0" xMax="263" yMax="1512">
      <component glyphName=".ttfautohint" x="9" y="0" flags="0x0"/>
      <component glyphName="dotlessi" x="0" y="0" flags="0x0"/>
      <component glyphName="gravecomb" x="753" y="-24" flags="0x4"/>
    </TTGlyph>
    <TTGlyph name="j" xMin="-143" yMin="-437" xMax="274" yMax="1476">
      <contour>
        <pt x="241" y="1476" on="0"/>
        <pt x="274" y="1443" on="0"/>
        <pt x="274" y="1420" on="1"/>
        <pt x="274" y="1397" on="0"/>
        <pt x="241" y="1365" on="0"/>
        <pt x="218" y="1365" on="1"/>
        <pt x="195" y="1365" on="0"/>
        <pt x="163" y="1397" on="0"/>
        <pt x="163" y="1420" on="1"/>
        <pt x="163" y="1443" on="0"/>
        <pt x="195" y="1476" on="0"/>
        <pt x="218" y="1476" on="1"/>
      </contour>
      <contour>
        <pt x="240" y="-129" on="1"/>
        <pt x="240" y="-277" on="0"/>
        <pt x="90" y="-437" on="0"/>
        <pt x="-45" y="-437" on="1"/>
        <pt x="-94" y="-437" on="0"/>
        <pt x="-143" y="-417" on="1"/>
        <pt x="-140" y="-365" on="1"/>
        <pt x="-93" y="-383" on="0"/>
        <pt x="-45" y="-383" on="1"/>
        <pt x="66" y="-383" on="0"/>
        <pt x="186" y="-250" on="0"/>
        <pt x="186" y="-129" on="1"/>
        <pt x="186" y="1082" on="1"/>
        <pt x="240" y="1082" on="1"/>
      </contour>
    </TTGlyph>
    <TTGlyph name="k" xMin="172" yMin="0" xMax="953" yMax="1536">
      <contour>
        <pt x="883" y="0" on="1"/>
        <pt x="385" y="585" on="1"/>
        <pt x="383" y="583" on="1"/>
        <pt x="226" y="449" on="1"/>
        <pt x="226" y="0" on="1"/>
        <pt x="172" y="0" on="1"/>
        <pt x="172" y="1536" on="1"/>
        <pt x="226" y="1536" on="1"/>
        <pt x="226" y="507" on="1"/>
        <pt x="353" y="627" on="1"/>
        <pt x="845" y="1082" on="1"/>
        <pt x="922" y="1082" on="1"/>
        <pt x="425" y="622" on="1"/>
        <pt x="953" y="0" on="1"/>
      </contour>
    </TTGlyph>
    <TTGlyph name="k.alt" xMin="172" yMin="0" xMax="953" yMax="1536">
      <contour>
        <pt x="374" y="553" on="1"/>
        <pt x="226" y="553" on="1"/>
        <pt x="226" y="0" on="1"/>
        <pt x="172" y="0" on="1"/>
        <pt x="172" y="1536" on="1"/>
        <pt x="226" y="1536" on="1"/>
        <pt x="226" y="607" on="1"/>
        <pt x="353" y="607" on="1"/>
        <pt x="845" y="1082" on="1"/>
        <pt x="916" y="1082" on="1"/>
        <pt x="414" y="589" on="1"/>
        <pt x="953" y="0" on="1"/>
        <pt x="883" y="0" on="1"/>
      </contour>
    </TTGlyph>
    <TTGlyph name="k.alt2" xMin="172" yMin="0" xMax="873" yMax="1560">
      <contour>
        <pt x="257" y="533" on="1"/>
        <pt x="226" y="533" on="1"/>
        <pt x="226" y="0" on="1"/>
        <pt x="172" y="0" on="1"/>
        <pt x="172" y="1560" on="1"/>
        <pt x="226" y="1560" on="1"/>
        <pt x="226" y="587" on="1"/>
        <pt x="246" y="587" on="1"/>
        <pt x="773" y="1082" on="1"/>
        <pt x="846" y="1082" on="1"/>
        <pt x="299" y="563" on="1"/>
        <pt x="873" y="0" on="1"/>
        <pt x="801" y="0" on="1"/>
      </contour>
    </TTGlyph>
    <TTGlyph name="l" xMin="185" yMin="0" xMax="239" yMax="1536">
      <contour>
        <pt x="185" y="0" on="1"/>
        <pt x="185" y="1536" on="1"/>
        <pt x="239" y="1536" on="1"/>
        <pt x="239" y="0" on="1"/>
      </contour>
    </TTGlyph>
    <TTGlyph name="less" xMin="82" yMin="262" xMax="919" yMax="1069">
      <contour>
        <pt x="919" y="1011" on="1"/>
        <pt x="155" y="666" on="1"/>
        <pt x="919" y="321" on="1"/>
        <pt x="919" y="262" on="1"/>
        <pt x="82" y="641" on="1"/>
        <pt x="82" y="691" on="1"/>
        <pt x="919" y="1069" on="1"/>
      </contour>
    </TTGlyph>
    <TTGlyph name="logicalnot" xMin="122" yMin="396" xMax="915" yMax="753">
      <contour>
        <pt x="915" y="753" on="1"/>
        <pt x="915" y="396" on="1"/>
        <pt x="861" y="396" on="1"/>
        <pt x="861" y="700" on="1"/>
        <pt x="122" y="700" on="1"/>
        <pt x="122" y="753" on="1"/>
      </contour>
    </TTGlyph>
    <TTGlyph name="longs" xMin="174" yMin="0" xMax="584" yMax="1557">
      <contour>
        <pt x="174" y="1236" on="1"/>
        <pt x="174" y="1390" on="0"/>
        <pt x="323" y="1557" on="0"/>
        <pt x="456" y="1557" on="1"/>
        <pt x="530" y="1557" on="0"/>
        <pt x="584" y="1540" on="1"/>
        <pt x="576" y="1488" on="1"/>
        <pt x="546" y="1496" on="0"/>
        <pt x="495" y="1503" on="0"/>
        <pt x="457" y="1503" on="1"/>
        <pt x="350" y="1503" on="0"/>
        <pt x="228" y="1362" on="0"/>
        <pt x="228" y="1236" on="1"/>
        <pt x="228" y="0" on="1"/>
        <pt x="174" y="0" on="1"/>
      </contour>
    </TTGlyph>
    <TTGlyph name="longst" xMin="66" yMin="-20" xMax="1091" yMax="1557">
      <contour>
        <pt x="1091" y="-8" on="1"/>
        <pt x="1056" y="-20" on="0"/>
        <pt x="978" y="-20" on="1"/>
        <pt x="905" y="-20" on="0"/>
        <pt x="809" y="31" on="0"/>
        <pt x="757" y="153" on="0"/>
        <pt x="757" y="259" on="1"/>
        <pt x="757" y="1027" on="1"/>
        <pt x="557" y="1027" on="1"/>
        <pt x="557" y="1082" on="1"/>
        <pt x="757" y="1082" on="1"/>
        <pt x="757" y="1452" on="1"/>
        <pt x="720" y="1474" on="0"/>
        <pt x="592" y="1503" on="0"/>
        <pt x="537" y="1503" on="1"/>
        <pt x="430" y="1503" on="0"/>
        <pt x="308" y="1362" on="0"/>
        <pt x="308" y="1236" on="1"/>
        <pt x="308" y="0" on="1"/>
        <pt x="254" y="0" on="1"/>
        <pt x="254" y="1027" on="1"/>
        <pt x="66" y="1027" on="1"/>
        <pt x="66" y="1082" on="1"/>
        <pt x="254" y="1082" on="1"/>
        <pt x="254" y="1236" on="1"/>
        <pt x="254" y="1390" on="0"/>
        <pt x="403" y="1557" on="0"/>
        <pt x="536" y="1557" on="1"/>
        <pt x="607" y="1557" on="0"/>
        <pt x="751" y="1518" on="0"/>
        <pt x="812" y="1488" on="1"/>
        <pt x="812" y="1082" on="1"/>
        <pt x="1058" y="1082" on="1"/>
        <pt x="1058" y="1027" on="1"/>
        <pt x="812" y="1027" on="1"/>
        <pt x="812" y="259" on="1"/>
        <pt x="812" y="128" on="0"/>
        <pt x="899" y="34" on="0"/>
        <pt x="975" y="34" on="1"/>
        <pt x="1015" y="34" on="0"/>
        <pt x="1082" y="43" on="1"/>
      </contour>
    </TTGlyph>
    <TTGlyph name="m" xMin="161" yMin="0" xMax="1680" yMax="1102">
      <contour>
        <pt x="1503" y="1102" on="0"/>
        <pt x="1680" y="909" on="0"/>
        <pt x="1680" y="700" on="1"/>
        <pt x="1680" y="0" on="1"/>
        <pt x="1626" y="0" on="1"/>
        <pt x="1626" y="700" on="1"/>
        <pt x="1626" y="892" on="0"/>
        <pt x="1475" y="1049" on="0"/>
        <pt x="1337" y="1049" on="1"/>
        <pt x="1217" y="1049" on="0"/>
        <pt x="1043" y="940" on="0"/>
        <pt x="952" y="786" on="0"/>
        <pt x="946" y="720" on="1"/>
        <pt x="946" y="0" on="1"/>
        <pt x="892" y="0" on="1"/>
        <pt x="892" y="720" on="1"/>
        <pt x="892" y="902" on="0"/>
        <pt x="738" y="1049" on="0"/>
        <pt x="596" y="1049" on="1"/>
        <pt x="484" y="1049" on="0"/>
        <pt x="323" y="933" on="0"/>
        <pt x="232" y="766" on="0"/>
        <pt x="216" y="684" on="1"/>
        <pt x="216" y="0" on="1"/>
        <pt x="161" y="0" on="1"/>
        <pt x="161" y="1082" on="1"/>
        <pt x="216" y="1082" on="1"/>
        <pt x="216" y="827" on="1"/>
        <pt x="267" y="949" on="0"/>
        <pt x="467" y="1102" on="0"/>
        <pt x="599" y="1102" on="1"/>
        <pt x="739" y="1102" on="0"/>
        <pt x="909" y="978" on="0"/>
        <pt x="935" y="846" on="1"/>
        <pt x="965" y="919" on="0"/>
        <pt x="1080" y="1035" on="0"/>
        <pt x="1239" y="1102" on="0"/>
        <pt x="1333" y="1102" on="1"/>
      </contour>
    </TTGlyph>
    <TTGlyph name="macron" xMin="132" yMin="1383" xMax="699" yMax="1436">
      <contour>
        <pt x="132" y="1383" on="1"/>
        <pt x="132" y="1436" on="1"/>
        <pt x="699" y="1436" on="1"/>
        <pt x="699" y="1383" on="1"/>
      </contour>
    </TTGlyph>
    <TTGlyph name="minus" xMin="163" yMin="721" xMax="998" yMax="775">
      <contour>
        <pt x="163" y="721" on="1"/>
        <pt x="163" y="775" on="1"/>
        <pt x="998" y="775" on="1"/>
        <pt x="998" y="721" on="1"/>
      </contour>
    </TTGlyph>
    <TTGlyph name="multiply" xMin="98" yMin="-1" xMax="944" yMax="832">
      <contour>
        <pt x="905" y="-1" on="1"/>
        <pt x="521" y="390" on="1"/>
        <pt x="137" y="-1" on="1"/>
        <pt x="98" y="36" on="1"/>
        <pt x="483" y="429" on="1"/>
        <pt x="125" y="793" on="1"/>
        <pt x="164" y="832" on="1"/>
        <pt x="521" y="468" on="1"/>
        <pt x="877" y="832" on="1"/>
        <pt x="916" y="793" on="1"/>
        <pt x="559" y="429" on="1"/>
        <pt x="944" y="36" on="1"/>
      </contour>
    </TTGlyph>
    <TTGlyph name="n" xMin="172" yMin="0" xMax="954" yMax="1102">
      <contour>
        <pt x="779" y="1102" on="0"/>
        <pt x="954" y="910" on="0"/>
        <pt x="954" y="700" on="1"/>
        <pt x="954" y="0" on="1"/>
        <pt x="900" y="0" on="1"/>
        <pt x="900" y="700" on="1"/>
        <pt x="900" y="894" on="0"/>
        <pt x="748" y="1049" on="0"/>
        <pt x="607" y="1049" on="1"/>
        <pt x="497" y="1049" on="0"/>
        <pt x="338" y="937" on="0"/>
        <pt x="245" y="775" on="0"/>
        <pt x="226" y="693" on="1"/>
        <pt x="226" y="0" on="1"/>
        <pt x="172" y="0" on="1"/>
        <pt x="172" y="1082" on="1"/>
        <pt x="226" y="1082" on="1"/>
        <pt x="226" y="831" on="1"/>
        <pt x="277" y="951" on="0"/>
        <pt x="479" y="1102" on="0"/>
        <pt x="610" y="1102" on="1"/>
      </contour>
    </TTGlyph>
    <TTGlyph name="nine" xMin="103" yMin="-20" xMax="993" yMax="1476">
      <contour>
        <pt x="753" y="1476" on="0"/>
        <pt x="993" y="1186" on="0"/>
        <pt x="993" y="903" on="1"/>
        <pt x="993" y="740" on="1"/>
        <pt x="993" y="371" on="0"/>
        <pt x="662" y="-20" on="0"/>
        <pt x="332" y="-20" on="1"/>
        <pt x="298" y="-20" on="1"/>
        <pt x="300" y="34" on="1"/>
        <pt x="332" y="34" on="1"/>
        <pt x="637" y="34" on="0"/>
        <pt x="939" y="393" on="0"/>
        <pt x="939" y="718" on="1"/>
        <pt x="939" y="724" on="1"/>
        <pt x="884" y="606" on="0"/>
        <pt x="662" y="468" on="0"/>
        <pt x="523" y="468" on="1"/>
        <pt x="399" y="468" on="0"/>
        <pt x="207" y="601" on="0"/>
        <pt x="103" y="826" on="0"/>
        <pt x="103" y="958" on="1"/>
        <pt x="103" y="1099" on="0"/>
        <pt x="211" y="1336" on="0"/>
        <pt x="406" y="1476" on="0"/>
        <pt x="531" y="1476" on="1"/>
      </contour>
      <contour>
        <pt x="637" y="522" on="0"/>
        <pt x="811" y="616" on="0"/>
        <pt x="918" y="762" on="0"/>
        <pt x="939" y="841" on="1"/>
        <pt x="939" y="902" on="1"/>
        <pt x="939" y="1158" on="0"/>
        <pt x="728" y="1422" on="0"/>
        <pt x="535" y="1422" on="1"/>
        <pt x="423" y="1422" on="0"/>
        <pt x="251" y="1291" on="0"/>
        <pt x="157" y="1078" on="0"/>
        <pt x="157" y="958" on="1"/>
        <pt x="157" y="844" on="0"/>
        <pt x="245" y="644" on="0"/>
        <pt x="412" y="522" on="0"/>
        <pt x="523" y="522" on="1"/>
      </contour>
    </TTGlyph>
    <TTGlyph name="nine.frac" xMin="78" yMin="656" xMax="620" yMax="1464">
      <component glyphName=".ttfautohint" x="78" y="656" flags="0x0"/>
      <component glyphName="nine.sup" x="0" y="664" flags="0x4"/>
    </TTGlyph>
</ttFont>
